<svg id="Capa_1" data-name="Capa 1" xmlns="http://www.w3.org/2000/svg" viewBox="0 0 133.24 109.8"><defs><style>.cls-1{fill:#e10517;}.cls-2{fill:#fff;}.cls-3{fill:#009c3e;}</style></defs><title>_</title><polygon class="cls-1" points="133.24 48.05 133.24 81.13 74.8 81.13 74.8 109.8 0 62 0 48.05 12.22 48.05 68.42 83.97 68.42 60.57 126.86 60.57 126.86 48.05 133.24 48.05"/><polygon class="cls-2" points="14.63 47.81 66.92 14.39 66.92 36.55 125.36 36.55 125.36 59.06 66.92 59.06 66.92 81.23 14.63 47.81"/><path class="cls-3" d="M74.8,28.67V0L0,47.81v.24H12.22l-.38-.24h0L68.42,84V60.56h58.44V35.05H68.42V11.65h0v23.4h58.44v25.6h6.38v-32Zm0,9.38h49.06V57.56H65.42V78.49l-48-30.68,48-30.69V38.05H74.8Z"/></svg>