<?xml version="1.0" encoding="utf-8"?>
<!-- Generator: Adobe Illustrator 25.0.0, SVG Export Plug-In . SVG Version: 6.00 Build 0)  -->
<svg version="1.1" id="Capa_1" xmlns="http://www.w3.org/2000/svg" xmlns:xlink="http://www.w3.org/1999/xlink" x="0px" y="0px"
	 viewBox="0 0 3532.6 187.7" style="enable-background:new 0 0 3532.6 187.7;" xml:space="preserve">
<style type="text/css">
	.st0{clip-path:url(#SVGID_2_);}
	.st1{fill:#3B8C24;}
	.st2{fill:#FC0B08;}
	.st3{fill:#296D1B;}
	.st4{fill:#E6E4DE;}
</style>
<g>
	<defs>
		<rect id="SVGID_1_" y="1.5" width="3532.6" height="186.2"/>
	</defs>
	<clipPath id="SVGID_2_">
		<use xlink:href="#SVGID_1_"  style="overflow:visible;"/>
	</clipPath>
	<g class="st0">
		<path class="st1" d="M1626.3,60.8c2.5,12-0.8-3.6,0.6,3c-152.1,26.2-304,59.3-451.8,103.2c139-67.6,288.9-127.1,439.2-165.7
			C1617.5,17.7,1623.8,48.8,1626.3,60.8z"/>
		<path class="st2" d="M3528.6-0.1c-437.5,8.7-884.1,5.3-1319.2,56.5c1,15.6,1.3,31.8,2.5,47.2c1.2,15.4-0.1,30.7,3.7,45.3
			c0.2,13,0.7,38.7,0.7,38.7H3497C3497,187.7,3519.3,6,3528.6-0.1z"/>
		<path class="st3" d="M0,187.7C499.5,46.5,1094.5,37.3,1612.5,1.5c-64.6,15.6-165.3,50.4-219,71.3c-88.7,34.5-140.6,57-218.3,94
			l7.5,21C1182.7,187.7,204.6,187.7,0,187.7z"/>
		<g>
			<defs>
				<path id="SVGID_3_" d="M1626.3,60.8c2.5,12-0.8-3.6,0.6,3c-152.1,26.2-304,59.3-451.8,103.2c139-67.6,288.9-127.1,439.2-165.7
					C1617.5,17.7,1623.8,48.8,1626.3,60.8z"/>
			</defs>
			<clipPath id="SVGID_4_">
				<use xlink:href="#SVGID_3_"  style="overflow:visible;"/>
			</clipPath>
		</g>
		<path class="st4" d="M1642.4,61.2c-201.7,33.2-291.6,57.9-467.7,105c-1.7,0.5,7.7,21.9,7.7,21.9l1040.5-0.3
			c0,0-11.4-73.9-11.2-81.1c0.3-14.3-1.7-37.3-2.3-48.6c-0.6-11.3,1-0.3-0.7-10.2c-1.7-9.9,3.9-31.1-6.7-40.7
			C2038.2-2.9,1782.5,38.2,1642.4,61.2z"/>
	</g>
</g>
</svg>
