<svg xmlns="http://www.w3.org/2000/svg" xmlns:xlink="http://www.w3.org/1999/xlink" viewBox="0 0 1577.39 470.76"><defs><style>.cls-1{fill:none;}.cls-2{fill:#e0b875;}.cls-3{fill:#bf181a;}.cls-4{fill:#479b41;}.cls-19,.cls-5{fill:#fff;}.cls-30,.cls-31,.cls-32,.cls-5{fill-rule:evenodd;}.cls-6{clip-path:url(#clip-path);}.cls-7{fill:#ececec;}.cls-8{fill:#eeefef;}.cls-9{fill:#f0f0f1;}.cls-10{fill:#f0f2f2;}.cls-11{fill:#f2f3f4;}.cls-12{fill:#f5f4f4;}.cls-13{fill:#f7f6f7;}.cls-14{fill:#f7f8fa;}.cls-15{fill:#f9f9fa;}.cls-16{fill:#fbfcfc;}.cls-17{fill:#fdfdfe;}.cls-18{fill:#fdfeff;}.cls-20{fill:#ecebec;}.cls-21{fill:#eaeaeb;}.cls-22{fill:#eaeaea;}.cls-23{fill:#e8e9e9;}.cls-24{fill:#e8e7e7;}.cls-25{fill:#e7e5e6;}.cls-26{fill:#e5e4e6;}.cls-27{fill:#e3e3e4;}.cls-28{fill:#e3e2e1;}.cls-29{fill:#e1dfe0;}.cls-30{fill:#e30517;}.cls-31{fill:#009e3e;}</style><clipPath id="clip-path" transform="translate(0 179.83)"><polygon class="cls-1" points="938.61 108.84 573.9 108.84 638.79 3.44 1003.5 3.44 938.61 108.84"/></clipPath></defs><g id="Capa_2" data-name="Capa 2"><g id="Capa_1-2" data-name="Capa 1"><g id="Capa_2-2" data-name="Capa 2"><rect class="cls-2" y="224.21" width="1577.39" height="23.52"/><rect class="cls-3" x="788.7" y="227.49" width="788.7" height="16.96"/><rect class="cls-4" y="227.49" width="788.7" height="16.96"/></g><g id="Capa_4" data-name="Capa 4"><polygon class="cls-5" points="940.53 292.11 567.74 292.11 636.87 179.83 1009.66 179.83 940.53 292.11"/><g class="cls-6"><rect class="cls-7" x="707.07" y="154.62" width="372.28" height="1.58" transform="translate(165.44 875.92) rotate(-46.48)"/><rect class="cls-7" x="706.3" y="153.73" width="372.28" height="1.88" transform="translate(165.65 875) rotate(-46.47)"/><rect class="cls-7" x="705.34" y="152.8" width="372.28" height="1.88" transform="translate(166.02 874.02) rotate(-46.47)"/><rect class="cls-7" x="704.46" y="152" width="372.28" height="1.88" transform="translate(166.43 873.25) rotate(-46.48)"/><rect class="cls-8" x="703.56" y="151.13" width="372.28" height="1.88" transform="translate(166.77 872.33) rotate(-46.48)"/><rect class="cls-8" x="702.6" y="150.21" width="372.28" height="1.88" transform="translate(167.14 871.35) rotate(-46.48)"/><rect class="cls-8" x="701.75" y="149.42" width="372.28" height="1.88" transform="translate(167.36 870.36) rotate(-46.47)"/><rect class="cls-8" x="700.77" y="148.47" width="372.28" height="1.88" transform="translate(167.83 869.48) rotate(-46.48)"/><rect class="cls-8" x="699.97" y="147.74" width="372.28" height="1.88" transform="translate(168.02 868.55) rotate(-46.47)"/><rect class="cls-8" x="698.99" y="146.8" width="372.28" height="1.88" transform="translate(168.49 867.67) rotate(-46.48)"/><rect class="cls-8" x="698.16" y="146.02" width="372.28" height="1.88" transform="translate(168.61 866.57) rotate(-46.46)"/><rect class="cls-8" x="697.18" y="145.07" width="372.28" height="1.88" transform="translate(169.18 865.82) rotate(-46.48)"/><rect class="cls-8" x="696.33" y="144.28" width="372.28" height="1.88" transform="translate(169.49 864.95) rotate(-46.48)"/><rect class="cls-8" x="695.47" y="143.48" width="372.28" height="1.88" transform="translate(169.8 864.08) rotate(-46.48)"/><rect class="cls-8" x="694.46" y="142.49" width="372.28" height="1.88" transform="translate(170.11 862.92) rotate(-46.47)"/><rect class="cls-8" x="693.49" y="141.56" width="372.28" height="1.88" transform="translate(170.57 862.05) rotate(-46.48)"/><rect class="cls-8" x="692.58" y="140.69" width="372.28" height="1.88" transform="translate(170.92 861.12) rotate(-46.48)"/><rect class="cls-8" x="691.72" y="139.89" width="372.28" height="1.88" transform="translate(171.24 860.25) rotate(-46.48)"/><rect class="cls-8" x="690.77" y="138.98" width="372.28" height="1.88" transform="translate(171.51 859.15) rotate(-46.47)"/><rect class="cls-9" x="690" y="138.28" width="372.28" height="1.88" transform="translate(171.87 858.5) rotate(-46.48)"/><rect class="cls-9" x="688.99" y="137.29" width="372.28" height="1.88" transform="translate(172.37 857.58) rotate(-46.49)"/><rect class="cls-9" x="688.04" y="136.37" width="372.28" height="1.88" transform="translate(172.64 856.48) rotate(-46.48)"/><rect class="cls-9" x="687.17" y="135.57" width="372.28" height="1.88" transform="translate(172.86 855.48) rotate(-46.47)"/><rect class="cls-9" x="686.22" y="134.65" width="372.28" height="1.88" transform="translate(173.23 854.51) rotate(-46.47)"/><rect class="cls-9" x="685.3" y="133.77" width="372.28" height="1.88" transform="translate(173.68 853.69) rotate(-46.48)"/><rect class="cls-9" x="684.39" y="132.92" width="372.28" height="1.88" transform="translate(174.01 852.76) rotate(-46.48)"/><rect class="cls-9" x="683.48" y="132.05" width="372.28" height="1.88" transform="translate(174.36 851.83) rotate(-46.48)"/><rect class="cls-9" x="682.69" y="131.31" width="372.28" height="1.88" transform="translate(174.55 850.91) rotate(-46.47)"/><rect class="cls-9" x="681.71" y="130.38" width="372.28" height="1.88" transform="translate(175.02 850.03) rotate(-46.48)"/><rect class="cls-9" x="680.85" y="129.57" width="372.28" height="1.88" transform="translate(175.24 849.03) rotate(-46.47)"/><rect class="cls-10" x="679.9" y="128.66" width="372.28" height="1.88" transform="translate(175.61 848.06) rotate(-46.47)"/><rect class="cls-11" x="678.99" y="127.8" width="372.28" height="1.88" transform="translate(175.95 847.13) rotate(-46.47)"/><rect class="cls-11" x="678.01" y="126.87" width="372.28" height="1.88" transform="translate(176.41 846.25) rotate(-46.48)"/><rect class="cls-12" x="677.1" y="126" width="372.28" height="1.88" transform="translate(176.85 845.44) rotate(-46.49)"/><rect class="cls-12" x="676.2" y="125.14" width="372.28" height="1.88" transform="translate(177.1 844.4) rotate(-46.48)"/><rect class="cls-12" x="675.29" y="124.27" width="372.28" height="1.88" transform="translate(177.35 843.35) rotate(-46.47)"/><rect class="cls-13" x="674.42" y="123.46" width="372.28" height="1.88" transform="translate(177.76 842.59) rotate(-46.48)"/><rect class="cls-13" x="673.46" y="122.53" width="372.28" height="1.88" transform="translate(178.14 841.6) rotate(-46.48)"/><rect class="cls-13" x="672.61" y="121.73" width="372.28" height="1.88" transform="translate(178.45 840.73) rotate(-46.48)"/><rect class="cls-14" x="671.69" y="120.88" width="372.28" height="1.88" transform="translate(178.69 839.69) rotate(-46.47)"/><rect class="cls-14" x="670.83" y="120.07" width="372.28" height="1.88" transform="translate(179.01 838.81) rotate(-46.47)"/><rect class="cls-15" x="669.86" y="119.13" width="372.28" height="1.88" transform="translate(179.58 838.05) rotate(-46.49)"/><rect class="cls-15" x="668.91" y="118.22" width="372.28" height="1.88" transform="translate(179.85 836.96) rotate(-46.48)"/><rect class="cls-16" x="668.02" y="117.36" width="372.28" height="1.88" transform="translate(180.1 835.93) rotate(-46.47)"/><rect class="cls-16" x="667.09" y="116.49" width="372.28" height="1.88" transform="translate(180.54 835.1) rotate(-46.48)"/><rect class="cls-16" x="666.18" y="115.62" width="372.28" height="1.88" transform="translate(180.88 834.17) rotate(-46.48)"/><rect class="cls-16" x="665.37" y="114.87" width="372.28" height="1.88" transform="translate(181.08 833.23) rotate(-46.47)"/><rect class="cls-17" x="664.42" y="113.96" width="372.28" height="1.88" transform="translate(181.45 832.26) rotate(-46.47)"/><rect class="cls-18" x="663.56" y="113.14" width="372.28" height="1.88" transform="translate(181.86 831.5) rotate(-46.48)"/><rect class="cls-19" x="662.6" y="112.22" width="372.28" height="1.88" transform="translate(182.23 830.51) rotate(-46.48)"/><rect class="cls-19" x="661.74" y="111.42" width="372.28" height="1.88" transform="translate(182.45 829.52) rotate(-46.47)"/><rect class="cls-19" x="660.72" y="110.45" width="372.28" height="1.88" transform="translate(182.84 828.49) rotate(-46.47)"/><rect class="cls-18" x="659.86" y="109.62" width="372.28" height="1.88" transform="translate(183.27 827.72) rotate(-46.48)"/><rect class="cls-18" x="658.9" y="108.7" width="372.28" height="1.88" transform="translate(183.64 826.74) rotate(-46.48)"/><rect class="cls-18" x="657.98" y="107.84" width="372.28" height="1.88" transform="translate(183.97 825.8) rotate(-46.48)"/><rect class="cls-18" x="657.13" y="107.04" width="372.28" height="1.88" transform="translate(184.29 824.94) rotate(-46.48)"/><rect class="cls-17" x="656.17" y="106.11" width="372.28" height="1.88" transform="translate(184.57 823.84) rotate(-46.47)"/><rect class="cls-17" x="655.31" y="105.3" width="372.28" height="1.88" transform="translate(184.98 823.07) rotate(-46.48)"/><rect class="cls-17" x="654.41" y="104.44" width="372.28" height="1.88" transform="translate(185.32 822.15) rotate(-46.48)"/><rect class="cls-16" x="653.44" y="103.53" width="372.28" height="1.88" transform="translate(185.59 821.06) rotate(-46.47)"/><rect class="cls-16" x="652.59" y="102.72" width="372.28" height="1.88" transform="translate(185.91 820.18) rotate(-46.47)"/><rect class="cls-16" x="651.72" y="101.91" width="372.28" height="1.88" transform="translate(186.23 819.3) rotate(-46.47)"/><rect class="cls-16" x="650.85" y="101.1" width="372.28" height="1.88" transform="translate(186.64 818.53) rotate(-46.48)"/><rect class="cls-16" x="649.8" y="100.07" width="372.28" height="1.88" transform="translate(186.97 817.34) rotate(-46.47)"/><rect class="cls-16" x="648.89" y="99.21" width="372.28" height="1.88" transform="translate(187.31 816.41) rotate(-46.47)"/><rect class="cls-16" x="647.97" y="98.34" width="372.28" height="1.88" transform="translate(187.75 815.58) rotate(-46.48)"/><rect class="cls-16" x="647.12" y="97.52" width="372.28" height="1.88" transform="translate(188.07 814.71) rotate(-46.48)"/><rect class="cls-16" x="646.26" y="96.72" width="372.28" height="1.88" transform="translate(188.29 813.72) rotate(-46.47)"/><rect class="cls-16" x="645.31" y="95.8" width="372.28" height="1.88" transform="translate(188.66 812.75) rotate(-46.47)"/><rect class="cls-16" x="644.48" y="95.04" width="372.28" height="1.88" transform="translate(189.05 812.03) rotate(-46.48)"/><rect class="cls-16" x="643.57" y="94.18" width="372.28" height="1.88" transform="translate(189.39 811.1) rotate(-46.48)"/><rect class="cls-15" x="642.55" y="93.19" width="372.28" height="1.88" transform="translate(189.79 810.05) rotate(-46.48)"/><rect class="cls-15" x="641.61" y="92.29" width="372.28" height="1.88" transform="translate(190.06 808.98) rotate(-46.47)"/><rect class="cls-15" x="640.69" y="91.42" width="372.28" height="1.88" transform="translate(190.5 808.15) rotate(-46.48)"/><rect class="cls-15" x="639.83" y="90.61" width="372.28" height="1.88" transform="translate(190.82 807.27) rotate(-46.48)"/><rect class="cls-15" x="638.88" y="89.69" width="372.28" height="1.88" transform="translate(191.19 806.3) rotate(-46.48)"/><rect class="cls-15" x="638.02" y="88.89" width="372.28" height="1.88" transform="translate(191.5 805.43) rotate(-46.48)"/><rect class="cls-15" x="637.21" y="88.12" width="372.28" height="1.88" transform="translate(191.8 804.6) rotate(-46.48)"/><rect class="cls-14" x="636.25" y="87.2" width="372.28" height="1.88" transform="translate(192.08 803.51) rotate(-46.47)"/><rect class="cls-14" x="635.28" y="86.28" width="372.28" height="1.88" transform="translate(192.54 802.63) rotate(-46.48)"/><rect class="cls-14" x="634.43" y="85.48" width="372.28" height="1.88" transform="translate(192.67 801.55) rotate(-46.46)"/><rect class="cls-14" x="633.41" y="84.5" width="372.28" height="1.88" transform="translate(193.25 800.72) rotate(-46.48)"/><rect class="cls-14" x="632.5" y="83.63" width="372.28" height="1.88" transform="translate(193.59 799.78) rotate(-46.48)"/><rect class="cls-14" x="631.75" y="82.93" width="372.28" height="1.88" transform="translate(193.87 799.02) rotate(-46.48)"/><rect class="cls-14" x="630.69" y="81.91" width="372.28" height="1.88" transform="translate(194.28 797.94) rotate(-46.48)"/><rect class="cls-14" x="629.83" y="81.11" width="372.28" height="1.88" transform="translate(194.5 796.96) rotate(-46.47)"/><rect class="cls-13" x="628.85" y="80.17" width="372.28" height="1.88" transform="translate(194.97 796.06) rotate(-46.48)"/><rect class="cls-13" x="628" y="79.36" width="372.28" height="1.88" transform="translate(195.29 795.19) rotate(-46.48)"/><rect class="cls-13" x="627.06" y="78.45" width="372.28" height="1.88" transform="translate(195.56 794.12) rotate(-46.47)"/><rect class="cls-13" x="626.13" y="77.59" width="372.28" height="1.88" transform="translate(195.9 793.18) rotate(-46.47)"/><rect class="cls-13" x="625.27" y="76.78" width="372.28" height="1.88" transform="translate(196.31 792.41) rotate(-46.48)"/><rect class="cls-13" x="624.46" y="76.02" width="372.28" height="1.88" transform="translate(196.61 791.58) rotate(-46.48)"/><rect class="cls-13" x="623.45" y="75.05" width="372.28" height="1.88" transform="translate(196.9 790.45) rotate(-46.47)"/><rect class="cls-12" x="622.54" y="74.18" width="372.28" height="1.88" transform="translate(197.25 789.51) rotate(-46.47)"/><rect class="cls-12" x="621.57" y="73.26" width="372.28" height="1.88" transform="translate(197.71 788.63) rotate(-46.48)"/><rect class="cls-12" x="620.66" y="72.4" width="372.28" height="1.88" transform="translate(198.05 787.7) rotate(-46.48)"/><rect class="cls-12" x="619.81" y="71.6" width="372.28" height="1.88" transform="translate(198.27 786.73) rotate(-46.47)"/><rect class="cls-12" x="618.85" y="70.67" width="372.28" height="1.88" transform="translate(198.65 785.75) rotate(-46.47)"/><rect class="cls-12" x="617.98" y="69.85" width="372.28" height="1.88" transform="translate(199.16 785.07) rotate(-46.49)"/><rect class="cls-12" x="617.12" y="69.05" width="372.28" height="1.88" transform="translate(199.28 783.99) rotate(-46.47)"/><rect class="cls-12" x="616.11" y="68.07" width="372.28" height="1.88" transform="translate(199.77 783.05) rotate(-46.48)"/><rect class="cls-12" x="615.26" y="67.27" width="372.28" height="1.88" transform="translate(199.99 782.09) rotate(-46.47)"/><rect class="cls-12" x="614.29" y="66.34" width="372.28" height="1.88" transform="translate(200.46 781.2) rotate(-46.48)"/><rect class="cls-12" x="613.39" y="65.48" width="372.28" height="1.88" transform="translate(200.8 780.28) rotate(-46.48)"/><rect class="cls-11" x="612.52" y="64.67" width="372.28" height="1.88" transform="translate(201.12 779.39) rotate(-46.48)"/><rect class="cls-11" x="611.57" y="63.76" width="372.28" height="1.88" transform="translate(201.49 778.42) rotate(-46.48)"/><rect class="cls-11" x="610.7" y="62.94" width="372.28" height="1.88" transform="translate(201.81 777.54) rotate(-46.48)"/><rect class="cls-11" x="609.74" y="62.02" width="372.28" height="1.88" transform="translate(202.18 776.55) rotate(-46.48)"/><rect class="cls-10" x="608.83" y="61.15" width="372.28" height="1.88" transform="translate(202.53 775.62) rotate(-46.48)"/><rect class="cls-10" x="607.98" y="60.36" width="372.28" height="1.88" transform="translate(202.74 774.66) rotate(-46.47)"/><rect class="cls-10" x="607.01" y="59.42" width="372.28" height="1.88" transform="translate(203.21 773.76) rotate(-46.48)"/><rect class="cls-10" x="606.1" y="58.56" width="372.28" height="1.88" transform="translate(203.55 772.83) rotate(-46.48)"/><rect class="cls-9" x="605.23" y="57.74" width="372.28" height="1.88" transform="translate(203.97 772.06) rotate(-46.49)"/><rect class="cls-9" x="604.28" y="56.84" width="372.28" height="1.88" transform="translate(204.14 770.88) rotate(-46.47)"/><rect class="cls-10" x="603.43" y="56.02" width="372.28" height="1.88" transform="translate(204.47 770.01) rotate(-46.47)"/><rect class="cls-11" x="602.46" y="55.1" width="372.28" height="1.88" transform="translate(204.93 769.12) rotate(-46.48)"/><rect class="cls-12" x="601.66" y="54.35" width="372.28" height="1.88" transform="translate(205.13 768.2) rotate(-46.47)"/><rect class="cls-12" x="600.69" y="53.44" width="372.28" height="1.88" transform="translate(205.49 767.22) rotate(-46.47)"/><rect class="cls-12" x="599.84" y="52.63" width="372.28" height="1.88" transform="translate(205.71 766.25) rotate(-46.46)"/><rect class="cls-13" x="598.96" y="51.8" width="372.28" height="1.88" transform="translate(206.23 765.55) rotate(-46.48)"/><rect class="cls-13" x="597.9" y="50.78" width="372.28" height="1.88" transform="translate(206.73 764.57) rotate(-46.49)"/><rect class="cls-14" x="597" y="49.92" width="372.28" height="1.88" transform="translate(206.89 763.44) rotate(-46.47)"/><rect class="cls-14" x="596.15" y="49.12" width="372.28" height="1.88" transform="translate(207.21 762.58) rotate(-46.47)"/><rect class="cls-15" x="595.22" y="48.24" width="372.28" height="1.88" transform="translate(207.65 761.74) rotate(-46.48)"/><rect class="cls-15" x="594.26" y="47.33" width="372.28" height="1.88" transform="translate(208.01 760.76) rotate(-46.48)"/><rect class="cls-16" x="593.41" y="46.52" width="372.28" height="1.88" transform="translate(208.24 759.79) rotate(-46.47)"/><rect class="cls-16" x="592.45" y="45.61" width="372.28" height="1.88" transform="translate(208.69 758.9) rotate(-46.48)"/><rect class="cls-16" x="591.68" y="44.89" width="372.28" height="1.88" transform="translate(208.98 758.12) rotate(-46.48)"/><rect class="cls-17" x="590.67" y="43.91" width="372.28" height="1.88" transform="translate(209.37 757.09) rotate(-46.48)"/><rect class="cls-18" x="589.71" y="43" width="372.28" height="1.88" transform="translate(209.73 756.1) rotate(-46.48)"/><rect class="cls-19" x="588.86" y="42.19" width="372.28" height="1.88" transform="translate(209.96 755.14) rotate(-46.47)"/><rect class="cls-19" x="587.9" y="41.27" width="372.28" height="1.88" transform="translate(210.42 754.26) rotate(-46.48)"/><rect class="cls-19" x="586.98" y="40.4" width="372.28" height="1.88" transform="translate(210.77 753.32) rotate(-46.48)"/><rect class="cls-19" x="586.08" y="39.54" width="372.28" height="1.88" transform="translate(211.2 752.49) rotate(-46.49)"/><rect class="cls-19" x="585.17" y="38.68" width="372.28" height="1.88" transform="translate(211.45 751.46) rotate(-46.48)"/><rect class="cls-19" x="584.36" y="37.92" width="372.28" height="1.88" transform="translate(211.65 750.55) rotate(-46.47)"/><rect class="cls-19" x="583.39" y="37" width="372.28" height="1.88" transform="translate(212.11 749.65) rotate(-46.48)"/><rect class="cls-19" x="582.54" y="36.19" width="372.28" height="1.88" transform="translate(212.34 748.69) rotate(-46.47)"/><rect class="cls-19" x="581.52" y="35.22" width="372.28" height="1.88" transform="translate(212.73 747.65) rotate(-46.47)"/><rect class="cls-19" x="580.66" y="34.4" width="372.28" height="1.88" transform="translate(213.15 746.87) rotate(-46.48)"/><rect class="cls-19" x="579.85" y="33.64" width="372.28" height="1.88" transform="translate(213.45 746.04) rotate(-46.48)"/><rect class="cls-19" x="578.84" y="32.67" width="372.28" height="1.88" transform="translate(213.93 745.1) rotate(-46.49)"/><rect class="cls-19" x="577.89" y="31.76" width="372.28" height="1.88" transform="translate(214.11 743.94) rotate(-46.47)"/><rect class="cls-19" x="576.97" y="30.89" width="372.28" height="1.88" transform="translate(214.55 743.1) rotate(-46.48)"/><rect class="cls-19" x="576.11" y="30.07" width="372.28" height="1.88" transform="translate(214.87 742.22) rotate(-46.48)"/><rect class="cls-19" x="575.15" y="29.16" width="372.28" height="1.88" transform="translate(215.23 741.24) rotate(-46.48)"/><rect class="cls-19" x="574.24" y="28.32" width="372.28" height="1.88" transform="translate(215.47 740.22) rotate(-46.47)"/><rect class="cls-19" x="573.39" y="27.5" width="372.28" height="1.88" transform="translate(215.8 739.35) rotate(-46.47)"/><rect class="cls-19" x="572.52" y="26.68" width="372.28" height="1.88" transform="translate(216.21 738.56) rotate(-46.48)"/><rect class="cls-19" x="571.55" y="25.76" width="372.28" height="1.88" transform="translate(216.58 737.57) rotate(-46.48)"/><rect class="cls-19" x="570.61" y="24.86" width="372.28" height="1.88" transform="translate(216.85 736.51) rotate(-46.47)"/><rect class="cls-18" x="569.69" y="23.99" width="372.28" height="1.88" transform="translate(217.19 735.57) rotate(-46.47)"/><rect class="cls-18" x="568.78" y="23.12" width="372.28" height="1.88" transform="translate(217.63 734.74) rotate(-46.48)"/><rect class="cls-18" x="567.86" y="22.25" width="372.28" height="1.88" transform="translate(217.97 733.8) rotate(-46.48)"/><rect class="cls-18" x="566.96" y="21.4" width="372.28" height="1.88" transform="translate(218.22 732.79) rotate(-46.47)"/><rect class="cls-17" x="566.1" y="20.58" width="372.28" height="1.88" transform="translate(218.64 732) rotate(-46.48)"/><rect class="cls-17" x="565.13" y="19.66" width="372.28" height="1.88" transform="translate(219 731.01) rotate(-46.48)"/><rect class="cls-17" x="564.27" y="18.84" width="372.28" height="1.88" transform="translate(219.33 730.14) rotate(-46.48)"/><rect class="cls-17" x="563.31" y="17.93" width="372.28" height="1.88" transform="translate(219.69 729.16) rotate(-46.48)"/><rect class="cls-16" x="562.41" y="17.07" width="372.28" height="1.88" transform="translate(219.94 728.14) rotate(-46.47)"/><rect class="cls-16" x="561.54" y="16.24" width="372.28" height="1.88" transform="translate(220.36 727.35) rotate(-46.48)"/><rect class="cls-16" x="560.63" y="15.38" width="372.28" height="1.88" transform="translate(220.7 726.42) rotate(-46.48)"/><rect class="cls-16" x="559.82" y="14.61" width="372.28" height="1.88" transform="translate(221.01 725.59) rotate(-46.48)"/><rect class="cls-16" x="558.82" y="13.66" width="372.28" height="1.88" transform="translate(221.3 724.48) rotate(-46.47)"/><rect class="cls-16" x="557.85" y="12.74" width="372.28" height="1.88" transform="translate(221.75 723.58) rotate(-46.48)"/><rect class="cls-16" x="556.94" y="11.88" width="372.28" height="1.88" transform="translate(222.09 722.65) rotate(-46.48)"/><rect class="cls-16" x="556.08" y="11.06" width="372.28" height="1.88" transform="translate(222.42 721.77) rotate(-46.48)"/><rect class="cls-16" x="555.13" y="10.16" width="372.28" height="1.88" transform="translate(222.69 720.71) rotate(-46.47)"/><rect class="cls-16" x="554.25" y="9.33" width="372.28" height="1.88" transform="translate(223.11 719.91) rotate(-46.48)"/><rect class="cls-16" x="553.4" y="8.52" width="372.28" height="1.88" transform="translate(223.43 719.04) rotate(-46.48)"/><rect class="cls-15" x="552.39" y="7.55" width="372.28" height="1.88" transform="translate(223.82 718) rotate(-46.48)"/><rect class="cls-15" x="551.49" y="6.69" width="372.28" height="1.88" transform="translate(224.07 717) rotate(-46.47)"/><rect class="cls-15" x="550.57" y="5.81" width="372.28" height="1.88" transform="translate(224.51 716.14) rotate(-46.48)"/><rect class="cls-15" x="549.76" y="5.06" width="372.28" height="1.88" transform="translate(224.71 715.24) rotate(-46.47)"/><rect class="cls-15" x="548.79" y="4.14" width="372.28" height="1.88" transform="translate(225.17 714.34) rotate(-46.48)"/><rect class="cls-15" x="547.84" y="3.25" width="372.28" height="1.88" transform="translate(225.43 713.28) rotate(-46.47)"/><rect class="cls-15" x="546.93" y="2.38" width="372.28" height="1.88" transform="translate(225.87 712.44) rotate(-46.48)"/><rect class="cls-14" x="546.17" y="1.65" width="372.28" height="1.88" transform="translate(226.16 711.65) rotate(-46.48)"/><rect class="cls-14" x="545.11" y="0.64" width="372.28" height="1.88" transform="translate(226.56 710.57) rotate(-46.48)"/><rect class="cls-14" x="544.25" y="-0.17" width="372.28" height="1.88" transform="translate(226.79 709.61) rotate(-46.47)"/><rect class="cls-14" x="543.29" y="-1.08" width="372.28" height="1.88" transform="translate(227.15 708.63) rotate(-46.47)"/><rect class="cls-14" x="542.37" y="-1.96" width="372.28" height="1.88" transform="translate(227.59 707.78) rotate(-46.48)"/><rect class="cls-14" x="541.51" y="-2.77" width="372.28" height="1.88" transform="translate(227.91 706.9) rotate(-46.48)"/><rect class="cls-14" x="540.55" y="-3.68" width="372.28" height="1.88" transform="translate(228.27 705.92) rotate(-46.48)"/><rect class="cls-14" x="539.65" y="-4.54" width="372.28" height="1.88" transform="translate(228.62 705) rotate(-46.48)"/><rect class="cls-13" x="538.77" y="-5.37" width="372.28" height="1.88" transform="translate(228.94 704.11) rotate(-46.48)"/><rect class="cls-13" x="537.93" y="-6.18" width="372.28" height="1.88" transform="translate(229.17 703.16) rotate(-46.47)"/><rect class="cls-13" x="536.97" y="-7.1" width="372.28" height="1.88" transform="translate(229.54 702.18) rotate(-46.47)"/><rect class="cls-13" x="536.01" y="-8" width="372.28" height="1.88" transform="translate(229.9 701.2) rotate(-46.47)"/><rect class="cls-13" x="535.1" y="-8.88" width="372.28" height="1.88" transform="translate(230.34 700.35) rotate(-46.48)"/><rect class="cls-13" x="534.18" y="-9.74" width="372.28" height="1.88" transform="translate(230.78 699.51) rotate(-46.49)"/><rect class="cls-12" x="533.43" y="-10.46" width="372.28" height="1.88" transform="translate(230.97 698.65) rotate(-46.48)"/><rect class="cls-12" x="532.42" y="-11.41" width="372.28" height="1.88" transform="translate(231.25 697.53) rotate(-46.47)"/><rect class="cls-12" x="531.5" y="-12.29" width="372.28" height="1.88" transform="translate(231.7 696.68) rotate(-46.48)"/><rect class="cls-12" x="530.53" y="-13.2" width="372.28" height="1.88" transform="translate(232.06 695.7) rotate(-46.48)"/><rect class="cls-12" x="529.68" y="-14.01" width="372.28" height="1.88" transform="translate(232.38 694.83) rotate(-46.48)"/><rect class="cls-11" x="528.78" y="-14.88" width="372.28" height="1.88" transform="translate(232.63 693.82) rotate(-46.47)"/><rect class="cls-11" x="527.97" y="-15.65" width="372.28" height="1.88" transform="translate(233.04 693.07) rotate(-46.48)"/><rect class="cls-10" x="526.94" y="-16.61" width="372.28" height="1.88" transform="translate(233.51 692.11) rotate(-46.49)"/><rect class="cls-9" x="525.99" y="-17.52" width="372.28" height="1.88" transform="translate(233.78 691.05) rotate(-46.48)"/><rect class="cls-9" x="525.08" y="-18.38" width="372.28" height="1.88" transform="translate(234.02 690.05) rotate(-46.47)"/><rect class="cls-9" x="524.17" y="-19.25" width="372.28" height="1.88" transform="translate(234.46 689.2) rotate(-46.48)"/><rect class="cls-9" x="523.25" y="-20.12" width="372.28" height="1.88" transform="translate(234.81 688.26) rotate(-46.48)"/><rect class="cls-9" x="522.45" y="-20.88" width="372.28" height="1.88" transform="translate(235.01 687.36) rotate(-46.47)"/><rect class="cls-8" x="521.5" y="-21.78" width="372.28" height="1.88" transform="translate(235.37 686.39) rotate(-46.47)"/><rect class="cls-8" x="520.63" y="-22.6" width="372.28" height="1.88" transform="translate(235.7 685.51) rotate(-46.47)"/><rect class="cls-7" x="519.67" y="-23.52" width="372.28" height="1.88" transform="translate(236.16 684.6) rotate(-46.48)"/><rect class="cls-7" x="518.8" y="-24.34" width="372.28" height="1.88" transform="translate(236.39 683.64) rotate(-46.47)"/><rect class="cls-20" x="517.8" y="-25.28" width="372.28" height="1.88" transform="translate(236.76 682.62) rotate(-46.47)"/><rect class="cls-20" x="516.94" y="-26.11" width="372.28" height="1.88" transform="translate(237.09 681.73) rotate(-46.47)"/><rect class="cls-20" x="515.97" y="-27.03" width="372.28" height="1.88" transform="translate(237.55 680.83) rotate(-46.48)"/><rect class="cls-21" x="515.05" y="-27.9" width="372.28" height="1.88" transform="translate(237.89 679.89) rotate(-46.48)"/><rect class="cls-21" x="514.21" y="-28.71" width="372.28" height="1.88" transform="translate(238.22 679.03) rotate(-46.48)"/><rect class="cls-22" x="513.25" y="-29.62" width="372.28" height="1.88" transform="translate(238.49 677.97) rotate(-46.47)"/><rect class="cls-23" x="512.39" y="-30.44" width="372.28" height="1.88" transform="translate(238.91 677.17) rotate(-46.48)"/><rect class="cls-23" x="511.47" y="-31.31" width="372.28" height="1.88" transform="translate(239.25 676.23) rotate(-46.48)"/><rect class="cls-24" x="510.52" y="-32.21" width="372.28" height="1.88" transform="translate(239.52 675.18) rotate(-46.47)"/><rect class="cls-24" x="509.66" y="-33.03" width="372.28" height="1.88" transform="translate(239.84 674.3) rotate(-46.47)"/><rect class="cls-25" x="508.79" y="-33.85" width="372.28" height="1.88" transform="translate(240.17 673.42) rotate(-46.47)"/><rect class="cls-26" x="508.59" y="-40.49" width="373.95" height="1.89" transform="translate(246.51 672.94) rotate(-46.61)"/><rect class="cls-26" x="506.92" y="-35.63" width="372.28" height="1.88" transform="translate(240.97 671.59) rotate(-46.48)"/><rect class="cls-26" x="505.98" y="-36.53" width="372.28" height="1.88" transform="translate(241.23 670.54) rotate(-46.47)"/><rect class="cls-26" x="505.06" y="-37.41" width="372.28" height="1.88" transform="translate(241.68 669.68) rotate(-46.48)"/><rect class="cls-27" x="504.2" y="-38.23" width="372.28" height="1.88" transform="translate(242 668.8) rotate(-46.48)"/><rect class="cls-28" x="503.33" y="-39.04" width="372.28" height="1.88" transform="translate(242.23 667.85) rotate(-46.47)"/><rect class="cls-28" x="502.38" y="-39.94" width="372.28" height="1.88" transform="translate(242.59 666.88) rotate(-46.47)"/><rect class="cls-28" x="501.51" y="-40.78" width="372.28" height="1.88" transform="translate(243.02 666.06) rotate(-46.48)"/><rect class="cls-28" x="500.65" y="-41.59" width="372.28" height="1.88" transform="translate(243.34 665.18) rotate(-46.48)"/><rect class="cls-29" x="499.59" y="-42.59" width="372.28" height="1.88" transform="translate(243.73 664.11) rotate(-46.48)"/><rect class="cls-29" x="498.69" y="-43.45" width="372.28" height="1.88" transform="translate(243.98 663.11) rotate(-46.47)"/><rect class="cls-29" x="497.81" y="-44.28" width="372.28" height="1.88" transform="translate(244.41 662.29) rotate(-46.48)"/><rect class="cls-29" x="496.91" y="-45.14" width="372.28" height="1.88" transform="translate(244.75 661.37) rotate(-46.48)"/><rect class="cls-29" x="497.13" y="-44.5" width="372.28" height="1" transform="translate(244.48 661.43) rotate(-46.46)"/></g><polygon class="cls-30" points="929.22 268.04 906.82 268.04 946.7 203.91 969.11 203.91 929.22 268.04"/><polygon class="cls-31" points="631.16 268.04 608.75 268.04 648.41 203.91 670.81 203.91 631.16 268.04"/><path class="cls-32" d="M735.32,47.31c0,1.12-1.48,2-3.31,2s-3.31-.9-3.31-2,1.48-2,3.31-2S735.32,46.15,735.32,47.31Z" transform="translate(0 179.83)"/><path class="cls-32" d="M709.41,54.49a30.56,30.56,0,0,0,6.29-8.58s19.84-14.44,16.78-18.55c0,0-1.49-2-7.33,2.3S713.3,40.35,707.39,48.73c0,0-9.38,8.59-21.48,8.59S675.59,46.2,678.09,42.4,688.34,28,700.68,28s11.4,7.65,4,15.87-16.08,8-17.65,4.38a6.47,6.47,0,0,0,2.46-.42c1.09-.48,2.66-1.57,2.3-3s-2.4-1.89-4.32-1.44-3.57,1.71-2.93,4.53,4.14,4.33,6.92,4.33,9.43-1.78,15.18-7.45S711.92,34,711.92,34c0-4.92-5-7.61-11-7.61s-20,3.75-26.64,13.85.24,18.55,12.79,18.55a26.77,26.77,0,0,0,16.1-5s-1,4.43-9.82,8a171.43,171.43,0,0,0-20.74-1.48c-7.2,0-9.33,2-9.33,3.09,0,1.42,3.55,3.27,9.33,3.09a82.56,82.56,0,0,0,15.44-1.69s16.37,2.53,21,2.53c5,0,10.28-.76,10.33-2.26,0-1.07-2.64-.09-6.29-.35,0,0-2.47.35-15.74-2.07l.35-1s5.13-.9,11.69-7.18Zm14-21.11h0c1.62-1.69,6.37-5.34,7.41-4.28.86.88-2.73,4.51-4.74,6.34s-7.31,4.8-7.62,4.43,3.33-4.81,5-6.49ZM674,65h0c-2.33.26-8.32,0-8.44-1.45-.09-1.23,5-1.72,7.71-1.85s8.68,1,8.68,1.48-5.62,1.56-7.94,1.82Z" transform="translate(0 179.83)"/><path class="cls-32" d="M790.56,56.15c-1,0-3.46,2.25-6.73,5-2.53,2.13-5.9,3.65-8.28,3.65-4.85,0,.17-6.42.17-6.42,13.14.69,19-8.49,10-8.49A17.82,17.82,0,0,0,771,57.22c-2.5,3.33-8.5,7.89-10.46,7.89s1-3.37,1-3.37l18.14-24.22a6.21,6.21,0,0,1-6,0h0L759,57.29c-2.51,3.33-8.48,7.86-10.43,7.86s1-3.37,1-3.37l7.6-10.14h3l1.32-1.76h-3l4.62-6.17a6.06,6.06,0,0,1-6,0h0l-4.63,6.18h-6l4.63-6.18h0a6.11,6.11,0,0,1-6,0h0l-4.63,6.17h-3l-1.32,1.76h3l-4.29,5.72c-2.54,3.33-8.43,7.79-10.37,7.79s1-3.37,1-3.37l8.9-11.88a5.29,5.29,0,0,1-3,.77,5.11,5.11,0,0,1-3-.79h0S722,58.31,721,59.71s-3.43,6.74,2.65,6.74c0,0,3.2.49,8.06-3.71l.11-.09c-.35,1.85.24,3.8,3.93,3.8,0,0,3.2.49,8-3.71l.12-.09c-.35,1.85.23,3.8,3.92,3.8,0,0,3.2.49,8.06-3.71l.11-.09c-.35,1.85.24,3.8,3.93,3.8,0,0,3.19.49,8-3.71l1.53-1.22c-.24,2,.51,4.84,6.1,4.84,8.77,0,14.31-7.62,15.15-9s-.07-1.24-.07-1.24Zm-9.34-2.68h0c1.21-.81,4.61-2.4,5.1-1.61s-2.28,2.38-3.75,3.23-5.11,1.95-5.25,1.68S780,54.28,781.22,53.47Zm-34.36,3.88h0c-2.54,3.33-8.45,7.8-10.39,7.8s1-3.37,1-3.37l7.59-10.14h6Z" transform="translate(0 179.83)"/><path class="cls-32" d="M859.67,24.69c-.83-2.3-8.72,2.54-11,3.87,0,0-24.46,3.63-26.17,12.85-1.25,6.77,5.73,8.47,5.73,8.47S819,65.54,805.68,65.54c0,0-8.7,0-9.15-2.62a6.13,6.13,0,0,0,3.31-.87c1.31-.94,1.47-1.56,1.47-2.34s-1.2-2.28-4.15-1.71-3.26,2.51-3.26,3.59.64,5.7,10.67,5.7,20.57-3.63,29.71-17.41a15.16,15.16,0,0,0,8-2.58c4.08-2.7,5.75-4.8,5.75-6.84a1.19,1.19,0,0,0-2.34-.45,1.15,1.15,0,0,0,0,.37c0,1.52-3,6.37-9.77,7.35,0,0,.54-5.45,14.11-17.88,0,0,10.46-2.86,9.64-5.16Zm-29.83,23h0s-3.94.36-3.94-4c0,0,0-8,18.5-12.25,0,0-10.32,8.71-14.54,16.29Z" transform="translate(0 179.83)"/><path class="cls-32" d="M913.6,56.77c-1-.69-1.8.49-1.8.49-2.5,3.33-8.5,7.89-10.46,7.89s1-3.37,1-3.37l8.92-11.9h0a5.14,5.14,0,0,1-3,.8,5.2,5.2,0,0,1-3-.78l-5.54,7.39h0c-2.5,3.33-8.51,7.89-10.47,7.89s1-3.37,1-3.37L899.09,50a5.33,5.33,0,0,1-2.91.71,5.12,5.12,0,0,1-3-.8h0l-5.7,7.62c-2.6,3.31-8.36,7.65-10.27,7.65s1-3.37,1-3.37l18.11-24.16a5.38,5.38,0,0,1-2.93.71,5.12,5.12,0,0,1-3-.8h0l-15.1,19.89c-2.58,3.32-8.37,7.68-10.29,7.68s1-3.36,1-3.36l8.89-11.87a5.28,5.28,0,0,1-3,.76,5.19,5.19,0,0,1-3-.79h0l-.55.73c-.37-.89-3.64-.73-3.64-.73-8,0-13.7,6.87-15.47,8.85s-2.92,3.33-3,3.39c-2.21,1.73-4.41,3-5.46,3-2,0,1-3.37,1-3.37l7.57-10.14h2.71l1.32-1.76h-2.72l4.6-6.16h0a6.16,6.16,0,0,1-6,0h0l-4.61,6.16h-2.7l-1.32,1.76h2.7c-2.76,3.68-5.54,7.41-6,8.08-1.08,1.45-3.42,6.74,2.66,6.74,0,0,3.2.49,8.06-3.71l1.25-1c0,1.85.73,4.73,5.11,4.73a10.28,10.28,0,0,0,5.88-2.12c.32,1.17,1.38,2.09,3.9,2.09,0,0,3.2.49,8.06-3.72l.1-.07c-.35,1.85.23,3.8,3.92,3.8,0,0,3.2.49,8.06-3.71l.1-.09c-.34,1.86.25,3.8,3.93,3.8,0,0,3,.58,7.89-3.63l-2.38,3.55a76.33,76.33,0,0,0-12.27,5.06c-5.68,3-8.38,5.49-8.09,8.88s6.93,2.67,11.12.57,12-8.45,15.07-14.42h0a6.31,6.31,0,0,0,.87,0s3.19.49,8-3.71l5-4a1.18,1.18,0,0,0,.37-1.63,1.09,1.09,0,0,0-.37-.37Zm-60,7.52h0c-.93-.6-.79-2.94,4.26-7.81s8.52-4.88,8.81-4.4c1,1.72-10.14,14.1-13.07,12.21Zm22.64,15.54h0c0-5.19,16.32-11,16.32-11-6.65,11.67-16.31,14.32-16.31,11Z" transform="translate(0 179.83)"/><path class="cls-32" d="M719.73,87.87h-3.25c.51-.07.81-.45.9-1.16V78.82h0a2,2,0,0,0-.24-1,1,1,0,0,0-.67-.43h4.15a4.19,4.19,0,0,1,2.15.56,2.06,2.06,0,0,1,1,1.87c0,1.1-.68,2-2,2.82a.94.94,0,0,1-.18.12l-.22.09-.22.07H721a1.09,1.09,0,0,1-.3.07l-.73.07a5.23,5.23,0,0,0-1.12.06v3.33a1.85,1.85,0,0,0,.24,1,.92.92,0,0,0,.67.44h0Zm2.37-8.09h0a2.74,2.74,0,0,0-.15-.9,1.07,1.07,0,0,0-.38-.53h0a2.54,2.54,0,0,0-1.71-.48c-.63,0-1,.09-1,.28a.49.49,0,0,0,0,.17v4h.66a4.86,4.86,0,0,0,1-.11h.05a2,2,0,0,0,1-.58,2.62,2.62,0,0,0,.65-1.77Z" transform="translate(0 179.83)"/><path class="cls-32" d="M730.16,77.15a1.32,1.32,0,0,0-.74.28,2.58,2.58,0,0,0-.54.6v8.34a1.21,1.21,0,0,0,.25.78,1.4,1.4,0,0,0,.42.42,1.35,1.35,0,0,0,.58.24v0s-.18,0-.41,0a30.27,30.27,0,0,0-3.3,0c-.17,0-.28,0-.33-.07a1.57,1.57,0,0,0,1-.41,1.27,1.27,0,0,0,.43-.83v-8a1.3,1.3,0,0,0-.14-.58,1.91,1.91,0,0,0-.35-.58.72.72,0,0,0-.49-.24h1.87A17,17,0,0,1,730.16,77.15Z" transform="translate(0 179.83)"/><path class="cls-32" d="M742,87.83h-9.11a.51.51,0,0,1,.12-.5q3.64-5.06,6.12-9a.75.75,0,0,0,.1-.2c0-.08-.26-.13-.73-.13h-2a3.89,3.89,0,0,0-2.22.47A5.89,5.89,0,0,0,733,79.94h-.13V77.31h8.48a.64.64,0,0,1-.14.43q-3.37,4.62-6,8.79a.61.61,0,0,0-.13.31c0,.14.16.21.46.23q1.08.09,2.79.09a4.74,4.74,0,0,0,2.32-.38,2.36,2.36,0,0,0,1.05-1,4.41,4.41,0,0,1,.33-.65Z" transform="translate(0 179.83)"/><path class="cls-32" d="M753.29,87.83h-9.1c-.07-.13,0-.3.11-.5q3.66-5.06,6.12-9a.54.54,0,0,0,.1-.2c0-.08-.25-.13-.73-.13h-2a3.89,3.89,0,0,0-2.22.47,5.38,5.38,0,0,0-1.26,1.47h-.07V77.31h8.47a.67.67,0,0,1-.13.43q-3.39,4.62-6,8.79a.73.73,0,0,0-.14.31c0,.14.17.21.47.23.72.06,1.64.09,2.78.09a4.74,4.74,0,0,0,2.32-.38,2.38,2.38,0,0,0,1.06-1,5.59,5.59,0,0,1,.32-.65Z" transform="translate(0 179.83)"/><path class="cls-32" d="M755.13,87.85h-2a.88.88,0,0,0,.6-.37c.14-.2.29-.41.46-.62a16.66,16.66,0,0,0,1.13-2.23c.6-1.29,1-2.29,1.36-3,.8-2,1.5-3.75,2.08-5.31q2.22,5.3,4.4,10.08a2.4,2.4,0,0,0,.63,1,1.45,1.45,0,0,0,.83.43h-2.57c-.48-1.25-.85-2.22-1.13-2.9H756.2l-1,2.88Zm5.44-3.66-2-5-2.11,5.09h4.22Z" transform="translate(0 179.83)"/><path class="cls-32" d="M770.58,83.46a2.59,2.59,0,0,1,.78,1.69,2.66,2.66,0,0,1,0,.69,2,2,0,0,1-.31.75,4.65,4.65,0,0,1-.54.7,1.47,1.47,0,0,1-.55.41,4.74,4.74,0,0,1-2.62.42,4.23,4.23,0,0,1-2.55-.78V85.21l.06.09a4.94,4.94,0,0,0,1.28,1.56,3,3,0,0,0,1.58.56c1.11.1,1.84-.16,2.17-.78a1.19,1.19,0,0,1,.08-.2,2.13,2.13,0,0,0,.12-.61,1.78,1.78,0,0,0-.43-1.25,11.58,11.58,0,0,0-1.91-1.45,14.93,14.93,0,0,1-2.42-1.83,2.44,2.44,0,0,1-.62-1.86,2.33,2.33,0,0,1,1.06-1.83,3.67,3.67,0,0,1,2.46-.59,6.7,6.7,0,0,1,1.86.43c.5.21.74.4.71.57s0,.72,0,1.87l-.32-.48a4.69,4.69,0,0,0-1-1.13,2.72,2.72,0,0,0-1.52-.51,2.17,2.17,0,0,0-1.37.28,1.3,1.3,0,0,0-.57,1.08,1.74,1.74,0,0,0,.43,1.23,7.61,7.61,0,0,0,1.64,1.24A12.31,12.31,0,0,1,770.58,83.46Z" transform="translate(0 179.83)"/><path class="cls-32" d="M801.17,87.87h-3.25c.51-.07.81-.45.9-1.16V78.82h0a2,2,0,0,0-.24-1,1,1,0,0,0-.67-.43h4.15a4.19,4.19,0,0,1,2.15.56,2.08,2.08,0,0,1,1,1.87c0,1.1-.68,2-2.06,2.82a.66.66,0,0,1-.17.12l-.22.09-.22.07h-.15a1.09,1.09,0,0,1-.3.07l-.73.07a5.23,5.23,0,0,0-1.12.06l0,3.33a1.85,1.85,0,0,0,.24,1,.92.92,0,0,0,.67.44h0Zm2.37-8.09h0a2.74,2.74,0,0,0-.15-.9,1.07,1.07,0,0,0-.38-.53h0a2.54,2.54,0,0,0-1.71-.48c-.63,0-1,.09-1,.28a.49.49,0,0,0,0,.17l0,4h.66a4.26,4.26,0,0,0,1-.11h0a1.93,1.93,0,0,0,1-.58,2.62,2.62,0,0,0,.65-1.77Z" transform="translate(0 179.83)"/><path class="cls-32" d="M807.44,87.85h-2a.86.86,0,0,0,.59-.37c.15-.2.3-.41.47-.62a16.66,16.66,0,0,0,1.13-2.23c.59-1.29,1-2.29,1.35-3q1.21-3,2.09-5.31,2.22,5.3,4.4,10.08a2.4,2.4,0,0,0,.63,1,1.45,1.45,0,0,0,.83.43h-2.57c-.48-1.25-.85-2.22-1.13-2.9H808.5l-1,2.88Zm5.42-3.7q-.06-.12-2-5l-2.11,5.09H813Z" transform="translate(0 179.83)"/><path class="cls-32" d="M822.86,83.46a2.59,2.59,0,0,1,.78,1.69,2.66,2.66,0,0,1,0,.69,2,2,0,0,1-.31.75,4.65,4.65,0,0,1-.54.7,1.47,1.47,0,0,1-.55.41,4.74,4.74,0,0,1-2.62.42,4.14,4.14,0,0,1-2.55-.78V85.21l.06.09a4.94,4.94,0,0,0,1.28,1.56,3,3,0,0,0,1.57.56c1.12.1,1.84-.16,2.18-.78a.5.5,0,0,1,.08-.2,2.13,2.13,0,0,0,.12-.61,1.78,1.78,0,0,0-.44-1.25,11.11,11.11,0,0,0-1.9-1.45,14.93,14.93,0,0,1-2.42-1.83,2.44,2.44,0,0,1-.62-1.86A2.33,2.33,0,0,1,818,77.61,3.62,3.62,0,0,1,820.5,77a7.08,7.08,0,0,1,1.86.43c.5.21.74.4.71.57s0,.72,0,1.87l-.32-.48a4.69,4.69,0,0,0-1-1.13,2.72,2.72,0,0,0-1.52-.51,2.17,2.17,0,0,0-1.37.28,1.3,1.3,0,0,0-.57,1.08,1.69,1.69,0,0,0,.43,1.23,7.37,7.37,0,0,0,1.64,1.24A12.31,12.31,0,0,1,822.86,83.46Z" transform="translate(0 179.83)"/><path class="cls-32" d="M836.72,77.22v2.64h-.07a6.18,6.18,0,0,0-1.26-1.48,4.07,4.07,0,0,0-2.22-.46h-.63c-.2,0-.31.07-.33.13a.15.15,0,0,0,0,.13v8.16a1.16,1.16,0,0,0,.25.78,1.27,1.27,0,0,0,.41.42,1.49,1.49,0,0,0,.58.24v0a.75.75,0,0,1-.42,0,30.27,30.27,0,0,0-3.3,0,.42.42,0,0,1-.33-.07,1.5,1.5,0,0,0,1-.41,1.23,1.23,0,0,0,.43-.83V78.14a.25.25,0,0,0-.16-.24h-.88a3.92,3.92,0,0,0-2.23.46,5.76,5.76,0,0,0-1.26,1.48h-.06V77.2h4.55Z" transform="translate(0 179.83)"/><path class="cls-32" d="M838.39,87.85h-2a.88.88,0,0,0,.6-.37c.14-.2.3-.41.46-.62a15.61,15.61,0,0,0,1.14-2.23c.59-1.29,1-2.29,1.35-3,.81-2,1.5-3.75,2.09-5.31q2.22,5.3,4.39,10.08a2.62,2.62,0,0,0,.63,1,1.45,1.45,0,0,0,.83.43h-2.57c-.47-1.25-.85-2.22-1.13-2.9h-4.72l-1,2.88Zm5.47-3.7-2-5-2.1,5.09h4.1Z" transform="translate(0 179.83)"/><path class="cls-32" d="M853.86,83.46a2.69,2.69,0,0,1,.78,1.69,2.66,2.66,0,0,1,0,.69,2,2,0,0,1-.3.75,6.28,6.28,0,0,1-.55.7,1.47,1.47,0,0,1-.55.41,4.74,4.74,0,0,1-2.62.42,4.23,4.23,0,0,1-2.55-.78V85.21l.07.09a4.91,4.91,0,0,0,1.27,1.56,3,3,0,0,0,1.58.56c1.12.1,1.84-.16,2.17-.78a1.19,1.19,0,0,1,.08-.2,2.13,2.13,0,0,0,.12-.61,1.72,1.72,0,0,0-.43-1.25,11.37,11.37,0,0,0-2-1.43,14.93,14.93,0,0,1-2.42-1.83,2.48,2.48,0,0,1-.61-1.86,2.3,2.3,0,0,1,1-1.83,3.67,3.67,0,0,1,2.46-.59,6.7,6.7,0,0,1,1.86.43c.51.21.75.4.71.57s0,.72,0,1.87q.09.16-.33-.48a4.69,4.69,0,0,0-1-1.13,2.72,2.72,0,0,0-1.53-.51,2.17,2.17,0,0,0-1.37.28,1.3,1.3,0,0,0-.57,1.08,1.74,1.74,0,0,0,.43,1.23,8,8,0,0,0,1.64,1.24A13,13,0,0,1,853.86,83.46Z" transform="translate(0 179.83)"/><path class="cls-32" d="M786.78,80.77h3.4v.32a2,2,0,0,0-1,.31,5.94,5.94,0,0,0-1,1.53,17.47,17.47,0,0,1-1.6,2.39,5.32,5.32,0,0,0,1.28,1.18,2.12,2.12,0,0,0,1.15.34,1.51,1.51,0,0,0,.94-.3,1.63,1.63,0,0,0,.55-.9l.3.22a3.23,3.23,0,0,1-1,1.69,2.39,2.39,0,0,1-1.55.55,2.86,2.86,0,0,1-1.34-.36,6.36,6.36,0,0,1-1.5-1.23,6.94,6.94,0,0,1-1.81,1.24,4.38,4.38,0,0,1-1.74.4,3,3,0,0,1-2.12-.71,2.25,2.25,0,0,1-.79-1.71,3.29,3.29,0,0,1,.71-2,7.81,7.81,0,0,1,2.66-2,8.91,8.91,0,0,1-.53-1.38,3.76,3.76,0,0,1-.13-1,2.43,2.43,0,0,1,1-2.11,3,3,0,0,1,1.8-.57,2.24,2.24,0,0,1,1.58.57,1.86,1.86,0,0,1,.6,1.4,2.22,2.22,0,0,1-.59,1.51A7.57,7.57,0,0,1,784,81.56a34.78,34.78,0,0,0,2.15,3.36,5,5,0,0,0,1.42-2.86,1,1,0,0,0-.24-.66.74.74,0,0,0-.51-.25v-.38Zm-3.09.21a4.46,4.46,0,0,0,1.5-1.08,2.16,2.16,0,0,0,.5-1.35,1.36,1.36,0,0,0-.36-1,1.2,1.2,0,0,0-.89-.37,1.22,1.22,0,0,0-1.06.48,1.59,1.59,0,0,0-.36,1,3,3,0,0,0,.13.89c.1.32.28.81.54,1.44ZM784.94,86a25.77,25.77,0,0,1-1.47-2.13c-.28-.45-.58-1-.91-1.67a4.75,4.75,0,0,0-1.47,1.24,2.4,2.4,0,0,0-.49,1.46,2.24,2.24,0,0,0,.56,1.52,1.87,1.87,0,0,0,1.5.66,2.66,2.66,0,0,0,1-.2,6.2,6.2,0,0,0,1.28-.88Z" transform="translate(0 179.83)"/></g></g></g></svg>