<svg xmlns="http://www.w3.org/2000/svg" xmlns:xlink="http://www.w3.org/1999/xlink" viewBox="0 0 2559.68 113.99"><defs><style>.cls-1{fill:none;clip-rule:evenodd;}.cls-2{fill:#e0b875;}.cls-3{fill:#bf181a;}.cls-4{fill:#479b41;}.cls-19,.cls-5{fill:#fff;}.cls-30,.cls-31,.cls-32,.cls-5{fill-rule:evenodd;}.cls-6{clip-path:url(#clip-path);}.cls-7{fill:#ececec;}.cls-8{fill:#eeefef;}.cls-9{fill:#f0f0f1;}.cls-10{fill:#f0f2f2;}.cls-11{fill:#f2f3f4;}.cls-12{fill:#f5f4f4;}.cls-13{fill:#f7f6f7;}.cls-14{fill:#f7f8fa;}.cls-15{fill:#f9f9fa;}.cls-16{fill:#fbfcfc;}.cls-17{fill:#fdfdfe;}.cls-18{fill:#fdfeff;}.cls-20{fill:#ecebec;}.cls-21{fill:#eaeaeb;}.cls-22{fill:#eaeaea;}.cls-23{fill:#e8e9e9;}.cls-24{fill:#e8e7e7;}.cls-25{fill:#e7e5e6;}.cls-26{fill:#e5e4e6;}.cls-27{fill:#e3e3e4;}.cls-28{fill:#e3e2e1;}.cls-29{fill:#e1dfe0;}.cls-30{fill:#e30517;}.cls-31{fill:#009e3e;}</style><clipPath id="clip-path"><polygon class="cls-1" points="1429.75 109.69 1065.04 109.69 1129.93 4.29 1494.64 4.29 1429.75 109.69"/></clipPath></defs><title>logo svg</title><g id="Capa_2" data-name="Capa 2"><rect class="cls-2" y="42.44" width="2559.68" height="29.11"/><rect class="cls-3" x="1279.84" y="46.5" width="1279.84" height="20.99"/><rect class="cls-4" y="46.5" width="1279.84" height="20.99"/></g><g id="Capa_4" data-name="Capa 4"><polygon class="cls-5" points="1431.67 113.13 1058.88 113.13 1128.01 0.85 1500.8 0.85 1431.67 113.13"/><g class="cls-6"><rect class="cls-7" x="1198.25" y="155.51" width="372.28" height="1.58" transform="translate(317.71 1052.5) rotate(-46.48)"/><rect class="cls-7" x="1197.46" y="154.6" width="372.28" height="1.88" transform="translate(317.88 1051.52) rotate(-46.47)"/><rect class="cls-7" x="1196.55" y="153.74" width="372.28" height="1.88" transform="translate(318.17 1050.53) rotate(-46.47)"/><rect class="cls-7" x="1195.63" y="152.87" width="372.28" height="1.88" transform="translate(318.71 1049.84) rotate(-46.48)"/><rect class="cls-8" x="1194.72" y="152.01" width="372.28" height="1.88" transform="translate(319.06 1048.91) rotate(-46.48)"/><rect class="cls-8" x="1193.81" y="151.14" width="372.28" height="1.88" transform="translate(319.36 1047.93) rotate(-46.48)"/><rect class="cls-8" x="1192.9" y="150.28" width="372.28" height="1.88" transform="translate(319.6 1046.88) rotate(-46.47)"/><rect class="cls-8" x="1191.99" y="149.41" width="372.28" height="1.88" transform="translate(320.04 1046.06) rotate(-46.48)"/><rect class="cls-8" x="1191.08" y="148.55" width="372.28" height="1.88" transform="translate(320.33 1045.07) rotate(-46.47)"/><rect class="cls-8" x="1190.17" y="147.68" width="372.28" height="1.88" transform="translate(320.77 1044.26) rotate(-46.48)"/><rect class="cls-8" x="1189.26" y="146.82" width="372.28" height="1.88" transform="translate(320.87 1043.04) rotate(-46.46)"/><rect class="cls-8" x="1188.35" y="145.95" width="372.28" height="1.88" transform="translate(321.46 1042.4) rotate(-46.48)"/><rect class="cls-8" x="1187.44" y="145.09" width="372.28" height="1.88" transform="translate(321.86 1041.54) rotate(-46.48)"/><rect class="cls-8" x="1186.53" y="144.23" width="372.28" height="1.88" transform="translate(322.25 1040.67) rotate(-46.48)"/><rect class="cls-8" x="1185.62" y="143.36" width="372.28" height="1.88" transform="translate(322.35 1039.44) rotate(-46.47)"/><rect class="cls-8" x="1184.71" y="142.5" width="372.28" height="1.88" transform="translate(322.78 1038.63) rotate(-46.48)"/><rect class="cls-8" x="1183.8" y="141.63" width="372.28" height="1.88" transform="translate(323.13 1037.7) rotate(-46.48)"/><rect class="cls-8" x="1182.89" y="140.77" width="372.28" height="1.88" transform="translate(323.52 1036.83) rotate(-46.48)"/><rect class="cls-8" x="1181.98" y="139.9" width="372.28" height="1.88" transform="translate(323.67 1035.67) rotate(-46.47)"/><rect class="cls-9" x="1181.07" y="139.04" width="372.28" height="1.88" transform="translate(324.31 1035.09) rotate(-46.48)"/><rect class="cls-9" x="1180.16" y="138.17" width="372.28" height="1.88" transform="translate(324.71 1034.22) rotate(-46.49)"/><rect class="cls-9" x="1179.25" y="137.31" width="372.28" height="1.88" transform="translate(324.85 1033.05) rotate(-46.48)"/><rect class="cls-9" x="1178.34" y="136.44" width="372.28" height="1.88" transform="translate(325.09 1032.01) rotate(-46.47)"/><rect class="cls-9" x="1177.43" y="135.58" width="372.28" height="1.88" transform="translate(325.39 1031.02) rotate(-46.47)"/><rect class="cls-9" x="1176.52" y="134.71" width="372.28" height="1.88" transform="translate(325.88 1030.26) rotate(-46.48)"/><rect class="cls-9" x="1175.61" y="133.85" width="372.28" height="1.88" transform="translate(326.22 1029.34) rotate(-46.48)"/><rect class="cls-9" x="1174.7" y="132.98" width="372.28" height="1.88" transform="translate(326.57 1028.41) rotate(-46.48)"/><rect class="cls-9" x="1173.79" y="132.12" width="372.28" height="1.88" transform="translate(326.87 1027.43) rotate(-46.47)"/><rect class="cls-9" x="1172.88" y="131.26" width="372.28" height="1.88" transform="translate(327.3 1026.61) rotate(-46.48)"/><rect class="cls-9" x="1171.97" y="130.39" width="372.28" height="1.88" transform="translate(327.54 1025.56) rotate(-46.47)"/><rect class="cls-10" x="1171.06" y="129.53" width="372.28" height="1.88" transform="translate(327.84 1024.58) rotate(-46.47)"/><rect class="cls-11" x="1170.14" y="128.66" width="372.28" height="1.88" transform="translate(328.19 1023.65) rotate(-46.47)"/><rect class="cls-11" x="1169.23" y="127.8" width="372.28" height="1.88" transform="translate(328.62 1022.83) rotate(-46.48)"/><rect class="cls-12" x="1168.32" y="126.93" width="372.28" height="1.88" transform="translate(329.12 1022.08) rotate(-46.49)"/><rect class="cls-12" x="1167.41" y="126.07" width="372.28" height="1.88" transform="translate(329.32 1020.98) rotate(-46.48)"/><rect class="cls-12" x="1166.5" y="125.2" width="372.28" height="1.88" transform="translate(329.51 1019.87) rotate(-46.47)"/><rect class="cls-13" x="1165.59" y="124.34" width="372.28" height="1.88" transform="translate(330.05 1019.17) rotate(-46.48)"/><rect class="cls-13" x="1164.68" y="123.47" width="372.28" height="1.88" transform="translate(330.34 1018.18) rotate(-46.48)"/><rect class="cls-13" x="1163.77" y="122.61" width="372.28" height="1.88" transform="translate(330.74 1017.31) rotate(-46.48)"/><rect class="cls-14" x="1162.86" y="121.74" width="372.28" height="1.88" transform="translate(330.93 1016.22) rotate(-46.47)"/><rect class="cls-14" x="1161.95" y="120.88" width="372.28" height="1.88" transform="translate(331.32 1015.34) rotate(-46.47)"/><rect class="cls-15" x="1161.04" y="120.01" width="372.28" height="1.88" transform="translate(331.92 1014.7) rotate(-46.49)"/><rect class="cls-15" x="1160.13" y="119.15" width="372.28" height="1.88" transform="translate(332.06 1013.54) rotate(-46.48)"/><rect class="cls-16" x="1159.22" y="118.29" width="372.28" height="1.88" transform="translate(332.26 1012.44) rotate(-46.47)"/><rect class="cls-16" x="1158.31" y="117.42" width="372.28" height="1.88" transform="translate(332.75 1011.68) rotate(-46.48)"/><rect class="cls-16" x="1157.4" y="116.56" width="372.28" height="1.88" transform="translate(333.09 1010.75) rotate(-46.48)"/><rect class="cls-16" x="1156.49" y="115.69" width="372.28" height="1.88" transform="translate(333.38 1009.76) rotate(-46.47)"/><rect class="cls-17" x="1155.58" y="114.83" width="372.28" height="1.88" transform="translate(333.68 1008.78) rotate(-46.47)"/><rect class="cls-18" x="1154.67" y="113.96" width="372.28" height="1.88" transform="translate(334.23 1008.08) rotate(-46.48)"/><rect class="cls-19" x="1153.76" y="113.1" width="372.28" height="1.88" transform="translate(334.52 1007.09) rotate(-46.48)"/><rect class="cls-19" x="1152.85" y="112.23" width="372.28" height="1.88" transform="translate(334.76 1006.05) rotate(-46.47)"/><rect class="cls-19" x="1151.94" y="111.37" width="372.28" height="1.88" transform="translate(335 1005.01) rotate(-46.47)"/><rect class="cls-18" x="1151.03" y="110.5" width="372.28" height="1.88" transform="translate(335.55 1004.3) rotate(-46.48)"/><rect class="cls-18" x="1150.12" y="109.64" width="372.28" height="1.88" transform="translate(335.84 1003.31) rotate(-46.48)"/><rect class="cls-18" x="1149.21" y="108.77" width="372.28" height="1.88" transform="translate(336.18 1002.39) rotate(-46.48)"/><rect class="cls-18" x="1148.3" y="107.91" width="372.28" height="1.88" transform="translate(336.58 1001.52) rotate(-46.48)"/><rect class="cls-17" x="1147.39" y="107.04" width="372.28" height="1.88" transform="translate(336.72 1000.36) rotate(-46.47)"/><rect class="cls-17" x="1146.48" y="106.18" width="372.28" height="1.88" transform="translate(337.26 999.65) rotate(-46.48)"/><rect class="cls-17" x="1145.57" y="105.32" width="372.28" height="1.88" transform="translate(337.61 998.73) rotate(-46.48)"/><rect class="cls-16" x="1144.66" y="104.45" width="372.28" height="1.88" transform="translate(337.75 997.58) rotate(-46.47)"/><rect class="cls-16" x="1143.74" y="103.59" width="372.28" height="1.88" transform="translate(338.15 996.7) rotate(-46.47)"/><rect class="cls-16" x="1142.83" y="102.72" width="372.28" height="1.88" transform="translate(338.54 995.83) rotate(-46.47)"/><rect class="cls-16" x="1141.92" y="101.86" width="372.28" height="1.88" transform="translate(339.08 995.12) rotate(-46.48)"/><rect class="cls-16" x="1141.01" y="100.99" width="372.28" height="1.88" transform="translate(339.13 993.86) rotate(-46.47)"/><rect class="cls-16" x="1140.1" y="100.13" width="372.28" height="1.88" transform="translate(339.47 992.93) rotate(-46.47)"/><rect class="cls-16" x="1139.19" y="99.26" width="372.28" height="1.88" transform="translate(339.96 992.17) rotate(-46.48)"/><rect class="cls-16" x="1138.28" y="98.4" width="372.28" height="1.88" transform="translate(340.36 991.29) rotate(-46.48)"/><rect class="cls-16" x="1137.37" y="97.53" width="372.28" height="1.88" transform="translate(340.6 990.25) rotate(-46.47)"/><rect class="cls-16" x="1136.46" y="96.67" width="372.28" height="1.88" transform="translate(340.9 989.27) rotate(-46.47)"/><rect class="cls-16" x="1135.55" y="95.8" width="372.28" height="1.88" transform="translate(341.49 988.62) rotate(-46.48)"/><rect class="cls-16" x="1134.64" y="94.94" width="372.28" height="1.88" transform="translate(341.83 987.69) rotate(-46.48)"/><rect class="cls-15" x="1133.73" y="94.07" width="372.28" height="1.88" transform="translate(342.07 986.64) rotate(-46.48)"/><rect class="cls-15" x="1132.82" y="93.21" width="372.28" height="1.88" transform="translate(342.22 985.5) rotate(-46.47)"/><rect class="cls-15" x="1131.91" y="92.35" width="372.28" height="1.88" transform="translate(342.71 984.73) rotate(-46.48)"/><rect class="cls-15" x="1131" y="91.48" width="372.28" height="1.88" transform="translate(343.1 983.86) rotate(-46.48)"/><rect class="cls-15" x="1130.09" y="90.62" width="372.28" height="1.88" transform="translate(343.4 982.87) rotate(-46.48)"/><rect class="cls-15" x="1129.18" y="89.75" width="372.28" height="1.88" transform="translate(343.8 982.01) rotate(-46.48)"/><rect class="cls-15" x="1128.27" y="88.89" width="372.28" height="1.88" transform="translate(344.24 981.18) rotate(-46.48)"/><rect class="cls-14" x="1127.36" y="88.02" width="372.28" height="1.88" transform="translate(344.38 980.03) rotate(-46.47)"/><rect class="cls-14" x="1126.45" y="87.16" width="372.28" height="1.88" transform="translate(344.82 979.21) rotate(-46.48)"/><rect class="cls-14" x="1125.54" y="86.29" width="372.28" height="1.88" transform="translate(344.92 978.01) rotate(-46.46)"/><rect class="cls-14" x="1124.63" y="85.43" width="372.28" height="1.88" transform="translate(345.46 977.3) rotate(-46.48)"/><rect class="cls-14" x="1123.72" y="84.56" width="372.28" height="1.88" transform="translate(345.8 976.37) rotate(-46.48)"/><rect class="cls-14" x="1122.81" y="83.7" width="372.28" height="1.88" transform="translate(346.3 975.6) rotate(-46.48)"/><rect class="cls-14" x="1121.9" y="82.83" width="372.28" height="1.88" transform="translate(346.5 974.52) rotate(-46.48)"/><rect class="cls-14" x="1120.99" y="81.97" width="372.28" height="1.88" transform="translate(346.74 973.48) rotate(-46.47)"/><rect class="cls-13" x="1120.08" y="81.1" width="372.28" height="1.88" transform="translate(347.17 972.65) rotate(-46.48)"/><rect class="cls-13" x="1119.17" y="80.24" width="372.28" height="1.88" transform="translate(347.57 971.77) rotate(-46.48)"/><rect class="cls-13" x="1118.26" y="79.38" width="372.28" height="1.88" transform="translate(347.72 970.63) rotate(-46.47)"/><rect class="cls-13" x="1117.34" y="78.51" width="372.28" height="1.88" transform="translate(348.06 969.7) rotate(-46.47)"/><rect class="cls-13" x="1116.43" y="77.65" width="372.28" height="1.88" transform="translate(348.6 968.99) rotate(-46.48)"/><rect class="cls-13" x="1115.52" y="76.78" width="372.28" height="1.88" transform="translate(349.05 968.17) rotate(-46.48)"/><rect class="cls-13" x="1114.61" y="75.92" width="372.28" height="1.88" transform="translate(349.14 966.97) rotate(-46.47)"/><rect class="cls-12" x="1113.7" y="75.05" width="372.28" height="1.88" transform="translate(349.48 966.04) rotate(-46.47)"/><rect class="cls-12" x="1112.79" y="74.19" width="372.28" height="1.88" transform="translate(349.92 965.21) rotate(-46.48)"/><rect class="cls-12" x="1111.88" y="73.32" width="372.28" height="1.88" transform="translate(350.27 964.29) rotate(-46.48)"/><rect class="cls-12" x="1110.97" y="72.46" width="372.28" height="1.88" transform="translate(350.51 963.26) rotate(-46.47)"/><rect class="cls-12" x="1110.06" y="71.59" width="372.28" height="1.88" transform="translate(350.81 962.27) rotate(-46.47)"/><rect class="cls-12" x="1109.15" y="70.73" width="372.28" height="1.88" transform="translate(351.5 961.71) rotate(-46.49)"/><rect class="cls-12" x="1108.24" y="69.86" width="372.28" height="1.88" transform="translate(351.59 960.52) rotate(-46.47)"/><rect class="cls-12" x="1107.33" y="69" width="372.28" height="1.88" transform="translate(351.98 959.64) rotate(-46.48)"/><rect class="cls-12" x="1106.42" y="68.14" width="372.28" height="1.88" transform="translate(352.23 958.61) rotate(-46.47)"/><rect class="cls-12" x="1105.51" y="67.27" width="372.28" height="1.88" transform="translate(352.67 957.78) rotate(-46.48)"/><rect class="cls-12" x="1104.6" y="66.41" width="372.28" height="1.88" transform="translate(353.02 956.85) rotate(-46.48)"/><rect class="cls-11" x="1103.69" y="65.54" width="372.28" height="1.88" transform="translate(353.41 955.98) rotate(-46.48)"/><rect class="cls-11" x="1102.78" y="64.68" width="372.28" height="1.88" transform="translate(353.71 955) rotate(-46.48)"/><rect class="cls-11" x="1101.87" y="63.81" width="372.28" height="1.88" transform="translate(354.1 954.12) rotate(-46.48)"/><rect class="cls-11" x="1100.96" y="62.95" width="372.28" height="1.88" transform="translate(354.39 953.13) rotate(-46.48)"/><rect class="cls-10" x="1100.05" y="62.08" width="372.28" height="1.88" transform="translate(354.73 952.2) rotate(-46.48)"/><rect class="cls-10" x="1099.14" y="61.22" width="372.28" height="1.88" transform="translate(354.98 951.18) rotate(-46.47)"/><rect class="cls-10" x="1098.23" y="60.35" width="372.28" height="1.88" transform="translate(355.42 950.35) rotate(-46.48)"/><rect class="cls-10" x="1097.32" y="59.49" width="372.28" height="1.88" transform="translate(355.76 949.42) rotate(-46.48)"/><rect class="cls-9" x="1096.41" y="58.62" width="372.28" height="1.88" transform="translate(356.31 948.7) rotate(-46.49)"/><rect class="cls-9" x="1095.5" y="57.76" width="372.28" height="1.88" transform="translate(356.3 947.41) rotate(-46.47)"/><rect class="cls-10" x="1094.59" y="56.89" width="372.28" height="1.88" transform="translate(356.7 946.53) rotate(-46.47)"/><rect class="cls-11" x="1093.68" y="56.03" width="372.28" height="1.88" transform="translate(357.14 945.7) rotate(-46.48)"/><rect class="cls-12" x="1092.77" y="55.17" width="372.28" height="1.88" transform="translate(357.43 944.72) rotate(-46.47)"/><rect class="cls-12" x="1091.85" y="54.3" width="372.28" height="1.88" transform="translate(357.73 943.74) rotate(-46.47)"/><rect class="cls-12" x="1090.94" y="53.44" width="372.28" height="1.88" transform="translate(357.97 942.71) rotate(-46.46)"/><rect class="cls-13" x="1090.03" y="52.57" width="372.28" height="1.88" transform="translate(358.66 942.14) rotate(-46.48)"/><rect class="cls-13" x="1089.12" y="51.71" width="372.28" height="1.88" transform="translate(359.01 941.21) rotate(-46.49)"/><rect class="cls-14" x="1088.21" y="50.84" width="372.28" height="1.88" transform="translate(359.05 939.97) rotate(-46.47)"/><rect class="cls-14" x="1087.3" y="49.98" width="372.28" height="1.88" transform="translate(359.45 939.1) rotate(-46.47)"/><rect class="cls-15" x="1086.39" y="49.11" width="372.28" height="1.88" transform="translate(359.94 938.32) rotate(-46.48)"/><rect class="cls-15" x="1085.48" y="48.25" width="372.28" height="1.88" transform="translate(360.23 937.34) rotate(-46.48)"/><rect class="cls-16" x="1084.57" y="47.38" width="372.28" height="1.88" transform="translate(360.48 936.31) rotate(-46.47)"/><rect class="cls-16" x="1083.66" y="46.52" width="372.28" height="1.88" transform="translate(360.92 935.49) rotate(-46.48)"/><rect class="cls-16" x="1082.75" y="45.65" width="372.28" height="1.88" transform="translate(361.41 934.71) rotate(-46.48)"/><rect class="cls-17" x="1081.84" y="44.79" width="372.28" height="1.88" transform="translate(361.65 933.67) rotate(-46.48)"/><rect class="cls-18" x="1080.93" y="43.92" width="372.28" height="1.88" transform="translate(361.95 932.69) rotate(-46.48)"/><rect class="cls-19" x="1080.02" y="43.06" width="372.28" height="1.88" transform="translate(362.19 931.66) rotate(-46.47)"/><rect class="cls-19" x="1079.11" y="42.2" width="372.28" height="1.88" transform="translate(362.64 930.83) rotate(-46.48)"/><rect class="cls-19" x="1078.2" y="41.33" width="372.28" height="1.88" transform="translate(362.98 929.9) rotate(-46.48)"/><rect class="cls-19" x="1077.29" y="40.47" width="372.28" height="1.88" transform="translate(363.48 929.13) rotate(-46.49)"/><rect class="cls-19" x="1076.38" y="39.6" width="372.28" height="1.88" transform="translate(363.67 928.05) rotate(-46.48)"/><rect class="cls-19" x="1075.47" y="38.74" width="372.28" height="1.88" transform="translate(363.96 927.07) rotate(-46.47)"/><rect class="cls-19" x="1074.56" y="37.87" width="372.28" height="1.88" transform="translate(364.4 926.24) rotate(-46.48)"/><rect class="cls-19" x="1073.65" y="37.01" width="372.28" height="1.88" transform="translate(364.65 925.21) rotate(-46.47)"/><rect class="cls-19" x="1072.74" y="36.14" width="372.28" height="1.88" transform="translate(364.89 924.18) rotate(-46.47)"/><rect class="cls-19" x="1071.83" y="35.28" width="372.28" height="1.88" transform="translate(365.43 923.45) rotate(-46.48)"/><rect class="cls-19" x="1070.92" y="34.41" width="372.28" height="1.88" transform="translate(365.88 922.62) rotate(-46.48)"/><rect class="cls-19" x="1070.01" y="33.55" width="372.28" height="1.88" transform="translate(366.27 921.74) rotate(-46.49)"/><rect class="cls-19" x="1069.1" y="32.68" width="372.28" height="1.88" transform="translate(366.27 920.46) rotate(-46.47)"/><rect class="cls-19" x="1068.19" y="31.82" width="372.28" height="1.88" transform="translate(366.76 919.68) rotate(-46.48)"/><rect class="cls-19" x="1067.28" y="30.95" width="372.28" height="1.88" transform="translate(367.15 918.8) rotate(-46.48)"/><rect class="cls-19" x="1066.37" y="30.09" width="372.28" height="1.88" transform="translate(367.44 917.82) rotate(-46.48)"/><rect class="cls-19" x="1065.45" y="29.23" width="372.28" height="1.88" transform="translate(367.64 916.75) rotate(-46.47)"/><rect class="cls-19" x="1064.54" y="28.36" width="372.28" height="1.88" transform="translate(368.04 915.87) rotate(-46.47)"/><rect class="cls-19" x="1063.63" y="27.5" width="372.28" height="1.88" transform="translate(368.58 915.14) rotate(-46.48)"/><rect class="cls-19" x="1062.72" y="26.63" width="372.28" height="1.88" transform="translate(368.87 914.16) rotate(-46.48)"/><rect class="cls-19" x="1061.81" y="25.77" width="372.28" height="1.88" transform="translate(369.02 913.03) rotate(-46.47)"/><rect class="cls-18" x="1060.9" y="24.9" width="372.28" height="1.88" transform="translate(369.36 912.1) rotate(-46.47)"/><rect class="cls-18" x="1059.99" y="24.04" width="372.28" height="1.88" transform="translate(369.85 911.32) rotate(-46.48)"/><rect class="cls-18" x="1059.08" y="23.17" width="372.28" height="1.88" transform="translate(370.19 910.39) rotate(-46.48)"/><rect class="cls-18" x="1058.17" y="22.31" width="372.28" height="1.88" transform="translate(370.39 909.32) rotate(-46.47)"/><rect class="cls-17" x="1057.26" y="21.44" width="372.28" height="1.88" transform="translate(370.94 908.59) rotate(-46.48)"/><rect class="cls-17" x="1056.35" y="20.58" width="372.28" height="1.88" transform="translate(371.22 907.6) rotate(-46.48)"/><rect class="cls-17" x="1055.44" y="19.71" width="372.28" height="1.88" transform="translate(371.62 906.72) rotate(-46.48)"/><rect class="cls-17" x="1054.53" y="18.85" width="372.28" height="1.88" transform="translate(371.91 905.74) rotate(-46.48)"/><rect class="cls-16" x="1053.62" y="17.98" width="372.28" height="1.88" transform="translate(372.11 904.67) rotate(-46.47)"/><rect class="cls-16" x="1052.71" y="17.12" width="372.28" height="1.88" transform="translate(372.65 903.93) rotate(-46.48)"/><rect class="cls-16" x="1051.8" y="16.26" width="372.28" height="1.88" transform="translate(372.99 903) rotate(-46.48)"/><rect class="cls-16" x="1050.89" y="15.39" width="372.28" height="1.88" transform="translate(373.43 902.17) rotate(-46.48)"/><rect class="cls-16" x="1049.98" y="14.53" width="372.28" height="1.88" transform="translate(373.53 901) rotate(-46.47)"/><rect class="cls-16" x="1049.07" y="13.66" width="372.28" height="1.88" transform="translate(373.97 900.17) rotate(-46.48)"/><rect class="cls-16" x="1048.16" y="12.8" width="372.28" height="1.88" transform="translate(374.31 899.24) rotate(-46.48)"/><rect class="cls-16" x="1047.25" y="11.93" width="372.28" height="1.88" transform="translate(374.71 898.36) rotate(-46.48)"/><rect class="cls-16" x="1046.34" y="11.07" width="372.28" height="1.88" transform="translate(374.85 897.24) rotate(-46.47)"/><rect class="cls-16" x="1045.43" y="10.2" width="372.28" height="1.88" transform="translate(375.39 896.5) rotate(-46.48)"/><rect class="cls-16" x="1044.52" y="9.34" width="372.28" height="1.88" transform="translate(375.79 895.62) rotate(-46.48)"/><rect class="cls-15" x="1043.61" y="8.47" width="372.28" height="1.88" transform="translate(376.03 894.59) rotate(-46.48)"/><rect class="cls-15" x="1042.7" y="7.61" width="372.28" height="1.88" transform="translate(376.23 893.52) rotate(-46.47)"/><rect class="cls-15" x="1041.79" y="6.74" width="372.28" height="1.88" transform="translate(376.72 892.73) rotate(-46.48)"/><rect class="cls-15" x="1040.88" y="5.88" width="372.28" height="1.88" transform="translate(377.01 891.76) rotate(-46.47)"/><rect class="cls-15" x="1039.96" y="5.01" width="372.28" height="1.88" transform="translate(377.46 890.92) rotate(-46.48)"/><rect class="cls-15" x="1039.05" y="4.15" width="372.28" height="1.88" transform="translate(377.6 889.81) rotate(-46.47)"/><rect class="cls-15" x="1038.14" y="3.29" width="372.28" height="1.88" transform="translate(378.1 889.02) rotate(-46.48)"/><rect class="cls-14" x="1037.23" y="2.42" width="372.28" height="1.88" transform="translate(378.59 888.23) rotate(-46.48)"/><rect class="cls-14" x="1036.32" y="1.56" width="372.28" height="1.88" transform="translate(378.78 887.16) rotate(-46.48)"/><rect class="cls-14" x="1035.41" y="0.69" width="372.28" height="1.88" transform="translate(379.03 886.14) rotate(-46.47)"/><rect class="cls-14" x="1034.5" y="-0.17" width="372.28" height="1.88" transform="translate(379.32 885.16) rotate(-46.47)"/><rect class="cls-14" x="1033.59" y="-1.04" width="372.28" height="1.88" transform="translate(379.81 884.37) rotate(-46.48)"/><rect class="cls-14" x="1032.68" y="-1.9" width="372.28" height="1.88" transform="translate(380.2 883.49) rotate(-46.48)"/><rect class="cls-14" x="1031.77" y="-2.77" width="372.28" height="1.88" transform="translate(380.5 882.52) rotate(-46.48)"/><rect class="cls-14" x="1030.86" y="-3.63" width="372.28" height="1.88" transform="translate(380.85 881.59) rotate(-46.48)"/><rect class="cls-13" x="1029.95" y="-4.5" width="372.28" height="1.88" transform="translate(381.23 880.7) rotate(-46.48)"/><rect class="cls-13" x="1029.04" y="-5.36" width="372.28" height="1.88" transform="translate(381.48 879.68) rotate(-46.47)"/><rect class="cls-13" x="1028.13" y="-6.23" width="372.28" height="1.88" transform="translate(381.78 878.7) rotate(-46.47)"/><rect class="cls-13" x="1027.22" y="-7.09" width="372.28" height="1.88" transform="translate(382.07 877.73) rotate(-46.47)"/><rect class="cls-13" x="1026.31" y="-7.95" width="372.28" height="1.88" transform="translate(382.56 876.93) rotate(-46.48)"/><rect class="cls-13" x="1025.4" y="-8.82" width="372.28" height="1.88" transform="translate(383.06 876.15) rotate(-46.49)"/><rect class="cls-12" x="1024.49" y="-9.68" width="372.28" height="1.88" transform="translate(383.4 875.22) rotate(-46.48)"/><rect class="cls-12" x="1023.58" y="-10.55" width="372.28" height="1.88" transform="translate(383.49 874.06) rotate(-46.47)"/><rect class="cls-12" x="1022.67" y="-11.41" width="372.28" height="1.88" transform="translate(383.98 873.26) rotate(-46.48)"/><rect class="cls-12" x="1021.76" y="-12.28" width="372.28" height="1.88" transform="translate(384.27 872.29) rotate(-46.48)"/><rect class="cls-12" x="1020.85" y="-13.14" width="372.28" height="1.88" transform="translate(384.67 871.41) rotate(-46.48)"/><rect class="cls-11" x="1019.94" y="-14.01" width="372.28" height="1.88" transform="translate(384.87 870.34) rotate(-46.47)"/><rect class="cls-11" x="1019.03" y="-14.87" width="372.28" height="1.88" transform="translate(385.46 869.64) rotate(-46.48)"/><rect class="cls-10" x="1018.12" y="-15.74" width="372.28" height="1.88" transform="translate(385.85 868.76) rotate(-46.49)"/><rect class="cls-9" x="1017.21" y="-16.6" width="372.28" height="1.88" transform="translate(385.99 867.64) rotate(-46.48)"/><rect class="cls-9" x="1016.3" y="-17.47" width="372.28" height="1.88" transform="translate(386.19 866.58) rotate(-46.47)"/><rect class="cls-9" x="1015.39" y="-18.33" width="372.28" height="1.88" transform="translate(386.68 865.79) rotate(-46.48)"/><rect class="cls-9" x="1014.48" y="-19.2" width="372.28" height="1.88" transform="translate(387.02 864.85) rotate(-46.48)"/><rect class="cls-9" x="1013.56" y="-20.06" width="372.28" height="1.88" transform="translate(387.32 863.88) rotate(-46.47)"/><rect class="cls-8" x="1012.65" y="-20.92" width="372.28" height="1.88" transform="translate(387.62 862.91) rotate(-46.47)"/><rect class="cls-8" x="1011.74" y="-21.79" width="372.28" height="1.88" transform="translate(388.01 862.03) rotate(-46.47)"/><rect class="cls-7" x="1010.83" y="-22.65" width="372.28" height="1.88" transform="translate(388.45 861.18) rotate(-46.48)"/><rect class="cls-7" x="1009.92" y="-23.52" width="372.28" height="1.88" transform="translate(388.69 860.16) rotate(-46.47)"/><rect class="cls-20" x="1009.01" y="-24.38" width="372.28" height="1.88" transform="translate(388.94 859.15) rotate(-46.47)"/><rect class="cls-20" x="1008.1" y="-25.25" width="372.28" height="1.88" transform="translate(389.33 858.26) rotate(-46.47)"/><rect class="cls-20" x="1007.19" y="-26.11" width="372.28" height="1.88" transform="translate(389.77 857.42) rotate(-46.48)"/><rect class="cls-21" x="1006.28" y="-26.98" width="372.28" height="1.88" transform="translate(390.11 856.49) rotate(-46.48)"/><rect class="cls-21" x="1005.37" y="-27.84" width="372.28" height="1.88" transform="translate(390.52 855.61) rotate(-46.48)"/><rect class="cls-22" x="1004.46" y="-28.71" width="372.28" height="1.88" transform="translate(390.66 854.5) rotate(-46.47)"/><rect class="cls-23" x="1003.55" y="-29.57" width="372.28" height="1.88" transform="translate(391.2 853.75) rotate(-46.48)"/><rect class="cls-23" x="1002.64" y="-30.44" width="372.28" height="1.88" transform="translate(391.54 852.82) rotate(-46.48)"/><rect class="cls-24" x="1001.73" y="-31.3" width="372.28" height="1.88" transform="translate(391.69 851.71) rotate(-46.47)"/><rect class="cls-24" x="1000.82" y="-32.17" width="372.28" height="1.88" transform="translate(392.08 850.83) rotate(-46.47)"/><rect class="cls-25" x="999.91" y="-33.03" width="372.28" height="1.88" transform="translate(392.47 849.94) rotate(-46.47)"/><rect class="cls-26" x="999" y="-33.89" width="372.28" height="1.88" transform="matrix(0.69, -0.73, 0.73, 0.69, 393.02, 849.19)"/><rect class="cls-26" x="998.09" y="-34.76" width="372.28" height="1.88" transform="translate(393.26 848.17) rotate(-46.48)"/><rect class="cls-26" x="997.18" y="-35.62" width="372.28" height="1.88" transform="translate(393.41 847.07) rotate(-46.47)"/><rect class="cls-26" x="996.27" y="-36.49" width="372.28" height="1.88" transform="translate(393.9 846.27) rotate(-46.48)"/><rect class="cls-27" x="995.36" y="-37.35" width="372.28" height="1.88" transform="translate(394.29 845.38) rotate(-46.48)"/><rect class="cls-28" x="994.45" y="-38.22" width="372.28" height="1.88" transform="translate(394.53 844.37) rotate(-46.47)"/><rect class="cls-28" x="993.54" y="-39.08" width="372.28" height="1.88" transform="translate(394.83 843.4) rotate(-46.47)"/><rect class="cls-28" x="992.63" y="-39.95" width="372.28" height="1.88" transform="translate(395.37 842.64) rotate(-46.48)"/><rect class="cls-28" x="991.72" y="-40.81" width="372.28" height="1.88" transform="translate(395.76 841.76) rotate(-46.48)"/><rect class="cls-29" x="990.81" y="-41.68" width="372.28" height="1.88" transform="translate(395.96 840.7) rotate(-46.48)"/><rect class="cls-29" x="989.9" y="-42.54" width="372.28" height="1.88" transform="translate(396.15 839.64) rotate(-46.47)"/><rect class="cls-29" x="988.99" y="-43.41" width="372.28" height="1.88" transform="translate(396.69 838.88) rotate(-46.48)"/><rect class="cls-29" x="988.08" y="-44.27" width="372.28" height="1.88" transform="translate(397.04 837.95) rotate(-46.48)"/><rect class="cls-29" x="988.21" y="-43.7" width="372.28" height="1" transform="translate(396.76 837.89) rotate(-46.46)"/></g><polygon class="cls-30" points="1420.36 89.06 1397.96 89.06 1437.84 24.93 1460.25 24.93 1420.36 89.06"/><polygon class="cls-31" points="1122.3 89.06 1099.89 89.06 1139.55 24.93 1161.95 24.93 1122.3 89.06"/><path class="cls-32" d="M1226.46,48.16c0,1.12-1.48,2-3.31,2s-3.31-.9-3.31-2,1.48-2,3.31-2S1226.46,47,1226.46,48.16Z"/><path class="cls-32" d="M1200.55,55.34a30.3,30.3,0,0,0,6.29-8.58s19.84-14.44,16.78-18.55c0,0-1.49-2-7.33,2.3s-11.85,10.69-17.76,19.07c0,0-9.38,8.59-21.48,8.59s-10.32-11.12-7.82-14.92,10.25-14.42,22.59-14.42,11.4,7.65,4,15.87-16.08,8-17.65,4.38a6.39,6.39,0,0,0,2.46-.42c1.09-.48,2.66-1.57,2.3-3s-2.4-1.89-4.32-1.44-3.57,1.71-2.93,4.53,4.14,4.33,6.92,4.33,9.43-1.78,15.18-7.45,5.28-10.8,5.28-10.8c0-4.92-5-7.61-11-7.61s-20,3.75-26.64,13.85.24,18.55,12.79,18.55a26.8,26.8,0,0,0,16.1-5s-1,4.43-9.82,8a170.63,170.63,0,0,0-20.74-1.48c-7.2,0-9.33,2-9.33,3.09,0,1.42,3.55,3.27,9.33,3.09a82.84,82.84,0,0,0,15.44-1.69s16.37,2.53,21,2.53c5,0,10.28-.76,10.33-2.26,0-1.07-2.64-.09-6.29-.35,0,0-2.47.35-15.74-2.07l.35-.95s5.13-.9,11.69-7.18Zm14-21.11h0c1.62-1.69,6.37-5.34,7.41-4.28.86.88-2.73,4.51-4.74,6.34s-7.31,4.8-7.62,4.43,3.33-4.81,5-6.49Zm-49.37,31.58h0c-2.33.26-8.32,0-8.44-1.45-.09-1.23,5-1.72,7.71-1.85s8.68,1,8.68,1.48S1167.51,65.55,1165.19,65.81Z"/><path class="cls-32" d="M1281.7,57c-1,0-3.46,2.25-6.73,5-2.53,2.13-5.9,3.65-8.28,3.65-4.85,0,.17-6.42.17-6.42,13.14.69,19-8.49,10-8.49a17.82,17.82,0,0,0-14.68,7.33c-2.5,3.33-8.5,7.89-10.46,7.89s1-3.37,1-3.37l18.14-24.22a6.19,6.19,0,0,1-6,0h0L1250.1,58.14c-2.51,3.33-8.48,7.86-10.43,7.86s1-3.37,1-3.37l7.6-10.14h3l1.32-1.76h-3l4.62-6.17a5.1,5.1,0,0,1-3,.79,5.17,5.17,0,0,1-3-.8h0l-4.63,6.18h-6l4.63-6.18h0a6.11,6.11,0,0,1-6,0h0l-4.63,6.17h-3l-1.32,1.76h3l-4.29,5.72c-2.54,3.33-8.43,7.79-10.37,7.79s1-3.37,1-3.37l8.9-11.88a5.21,5.21,0,0,1-3,.77,5.11,5.11,0,0,1-3-.79h0s-6.33,8.44-7.37,9.84-3.43,6.74,2.65,6.74c0,0,3.2.49,8.06-3.71l.11-.09c-.35,1.85.24,3.8,3.93,3.8,0,0,3.2.49,8-3.71l.12-.09c-.35,1.85.23,3.8,3.92,3.8,0,0,3.2.49,8.06-3.71l.11-.09c-.35,1.85.24,3.8,3.93,3.8,0,0,3.19.49,8-3.71l1.53-1.22c-.24,2.05.51,4.84,6.1,4.84,8.77,0,14.31-7.62,15.15-9s-.07-1.24-.07-1.24Zm-9.34-2.68h0c1.21-.81,4.61-2.4,5.1-1.61s-2.28,2.38-3.75,3.23-5.11,1.95-5.25,1.68,2.68-2.49,3.9-3.3ZM1238,58.2h0c-2.54,3.33-8.45,7.8-10.39,7.8s1-3.37,1-3.37l7.59-10.14h6Z"/><path class="cls-32" d="M1350.81,25.54c-.83-2.3-8.72,2.54-11,3.87,0,0-24.46,3.63-26.17,12.85-1.25,6.77,5.73,8.47,5.73,8.47s-9.28,15.66-22.55,15.66c0,0-8.7,0-9.15-2.62a6.17,6.17,0,0,0,3.31-.87c1.31-.94,1.47-1.56,1.47-2.34s-1.2-2.28-4.15-1.71-3.26,2.51-3.26,3.59.64,5.7,10.67,5.7,20.57-3.63,29.71-17.41a15.13,15.13,0,0,0,8-2.58c4.08-2.7,5.75-4.8,5.75-6.84a1.19,1.19,0,1,0-2.35-.08c0,1.52-3,6.37-9.77,7.35,0,0,.54-5.45,14.11-17.88,0,0,10.46-2.86,9.64-5.16Zm-29.83,23h0s-3.94.36-3.94-4c0,0,0-8,18.5-12.25C1335.54,32.3,1325.22,41,1321,48.58Z"/><path class="cls-32" d="M1404.74,57.62c-1-.69-1.8.49-1.8.49-2.5,3.33-8.5,7.89-10.46,7.89s1-3.37,1-3.37l8.92-11.9h0a5.12,5.12,0,0,1-3,.8,5.24,5.24,0,0,1-3-.78l-5.54,7.39,0,0c-2.5,3.33-8.51,7.89-10.47,7.89s1-3.37,1-3.37l8.84-11.81a5.35,5.35,0,0,1-2.91.71,5.06,5.06,0,0,1-3-.8h0l-5.7,7.62c-2.6,3.31-8.36,7.65-10.27,7.65s1-3.37,1-3.37l18.11-24.16a5.42,5.42,0,0,1-2.93.71,5.08,5.08,0,0,1-3-.8h0L1366.43,58.3c-2.58,3.32-8.37,7.68-10.29,7.68s1-3.36,1-3.36l8.89-11.87a5.29,5.29,0,0,1-3,.76,5.17,5.17,0,0,1-3-.79h0l-.55.73c-.37-.89-3.64-.73-3.64-.73-8,0-13.7,6.87-15.47,8.85s-2.92,3.33-3,3.39c-2.21,1.73-4.41,3-5.46,3-2,0,1-3.37,1-3.37l7.57-10.14h2.71l1.32-1.76h-2.72l4.6-6.16h0a6.14,6.14,0,0,1-6,0h0l-4.61,6.16h-2.7l-1.32,1.76h2.7c-2.76,3.68-5.54,7.41-6,8.08-1.08,1.45-3.42,6.74,2.66,6.74,0,0,3.2.49,8.06-3.71l1.25-1c0,1.85.73,4.73,5.11,4.73a10.27,10.27,0,0,0,5.88-2.12c.32,1.17,1.38,2.09,3.9,2.09,0,0,3.2.49,8.06-3.72l.1-.07c-.35,1.85.23,3.8,3.92,3.8,0,0,3.2.49,8.06-3.71l.1-.09c-.34,1.86.25,3.8,3.93,3.8,0,0,3,.58,7.89-3.63L1385,67.19a77,77,0,0,0-12.27,5.06c-5.68,3-8.38,5.49-8.09,8.88s6.93,2.67,11.12.57,12-8.45,15.07-14.42l0,0a7.71,7.71,0,0,0,.87,0s3.19.49,8-3.71l5-4a1.18,1.18,0,0,0,0-2Zm-60,7.52h0c-.93-.6-.79-2.94,4.26-7.81s8.52-4.88,8.81-4.4c1,1.72-10.14,14.1-13.07,12.21Zm22.64,15.54h0c0-5.19,16.32-11,16.32-11C1377.05,81.35,1367.39,84,1367.39,80.68Z"/><path class="cls-32" d="M1210.87,88.72l-1.44,0h-.36l-1.45,0v0c.51-.07.81-.45.9-1.16v-.07a1.56,1.56,0,0,0,0-.25l0-7.57h0v0a1.93,1.93,0,0,0-.24-1,.93.93,0,0,0-.67-.43v0l4.15,0a4.22,4.22,0,0,1,2.15.56,2.06,2.06,0,0,1,1,1.87c0,1.1-.68,2-2.05,2.82a.81.81,0,0,1-.18.12l-.22.09-.22.07-.15,0a1.1,1.1,0,0,1-.3.07l-.73.07a5.74,5.74,0,0,0-1.12.06l0,3.33a1.91,1.91,0,0,0,.24,1,.91.91,0,0,0,.67.44v0Zm2.37-8.09v0a2.5,2.5,0,0,0-.15-.9,1,1,0,0,0-.38-.53v0a2.5,2.5,0,0,0-1.71-.48c-.63,0-1,.09-1,.28a.86.86,0,0,0,0,.17l0,4h.66a4.44,4.44,0,0,0,1-.11h.05a1.91,1.91,0,0,0,1-.58,2.6,2.6,0,0,0,.65-1.77Z"/><path class="cls-32" d="M1221.3,78a1.33,1.33,0,0,0-.74.28,2.62,2.62,0,0,0-.54.6v8.34a1.26,1.26,0,0,0,.25.78,1.4,1.4,0,0,0,.42.42,1.37,1.37,0,0,0,.58.24s0,0,0,.05-.18,0-.41,0a29.59,29.59,0,0,0-3.3,0c-.17,0-.28,0-.33-.07a1.55,1.55,0,0,0,1-.41,1.23,1.23,0,0,0,.43-.83v-8a1.16,1.16,0,0,0-.14-.58,1.76,1.76,0,0,0-.35-.58.68.68,0,0,0-.49-.24c.09,0,.71,0,1.87,0A15,15,0,0,1,1221.3,78Z"/><path class="cls-32" d="M1233.11,88.68v0h-2.92l-1.48,0-2.63,0H1224l0,0a.52.52,0,0,1,.12-.5q3.65-5.06,6.12-9a.58.58,0,0,0,.1-.2c0-.08-.26-.13-.73-.13h-2a3.93,3.93,0,0,0-2.22.47,6,6,0,0,0-1.26,1.47H1224c0-.73,0-1.61,0-2.63h8.48l0,0c0,.1,0,.24-.14.43q-3.37,4.62-6,8.79a.69.69,0,0,0-.13.31c0,.14.16.21.46.23q1.08.09,2.79.09a4.83,4.83,0,0,0,2.32-.38,2.32,2.32,0,0,0,1.05-1,5.75,5.75,0,0,1,.33-.65Z"/><path class="cls-32" d="M1244.43,88.68v0h-2.92l-1.47,0-2.64,0h-2.07l0,0c-.07-.13,0-.3.11-.5q3.66-5.06,6.12-9a.44.44,0,0,0,.1-.2c0-.08-.25-.13-.73-.13h-2a3.93,3.93,0,0,0-2.22.47,5.56,5.56,0,0,0-1.26,1.47h-.07c0-.73,0-1.61,0-2.63h8.47l0,0c0,.1,0,.24-.13.43q-3.39,4.62-6,8.79a.75.75,0,0,0-.14.31c0,.14.17.21.47.23.72.06,1.64.09,2.78.09a4.81,4.81,0,0,0,2.32-.38,2.4,2.4,0,0,0,1.06-1,7.15,7.15,0,0,1,.32-.65Z"/><path class="cls-32" d="M1246.27,88.7h-2v0a.88.88,0,0,0,.6-.37c.14-.2.29-.41.46-.62a16.78,16.78,0,0,0,1.13-2.23c.6-1.29,1-2.29,1.36-3,.8-2,1.5-3.75,2.08-5.31q2.23,5.3,4.4,10.08a2.51,2.51,0,0,0,.63,1,1.43,1.43,0,0,0,.83.43v0l-2.57,0c-.48-1.25-.85-2.22-1.13-2.9h-4.72l-1,2.88Zm5.44-3.66-2-5-2.11,5.09h4.22Z"/><path class="cls-32" d="M1261.72,84.31a2.57,2.57,0,0,1,.78,1.69,2.11,2.11,0,0,1,0,.69,1.9,1.9,0,0,1-.31.75,4.37,4.37,0,0,1-.54.7,1.46,1.46,0,0,1-.55.41,4.71,4.71,0,0,1-2.62.42,4.22,4.22,0,0,1-2.55-.78V86.06a.7.7,0,0,1,.06.09,4.9,4.9,0,0,0,1.28,1.56,3,3,0,0,0,1.58.56c1.11.1,1.84-.16,2.17-.78a1.6,1.6,0,0,1,.08-.2,1.89,1.89,0,0,0,.12-.61,1.77,1.77,0,0,0-.43-1.25,11.31,11.31,0,0,0-1.91-1.45,15.3,15.3,0,0,1-2.42-1.83,2.48,2.48,0,0,1-.62-1.86,2.36,2.36,0,0,1,1.06-1.83,3.66,3.66,0,0,1,2.46-.59,6.69,6.69,0,0,1,1.86.43c.5.21.74.4.71.57s0,.72,0,1.87l-.32-.48a4.65,4.65,0,0,0-1-1.13,2.7,2.7,0,0,0-1.52-.51,2.15,2.15,0,0,0-1.37.28,1.3,1.3,0,0,0-.57,1.08,1.74,1.74,0,0,0,.43,1.23,7.67,7.67,0,0,0,1.64,1.24A12.13,12.13,0,0,1,1261.72,84.31Z"/><path class="cls-32" d="M1292.31,88.72l-1.44,0h-.37l-1.44,0v0c.51-.07.81-.45.9-1.16v-.07a1.56,1.56,0,0,0,0-.25l0-7.57h0v0a1.93,1.93,0,0,0-.24-1,.93.93,0,0,0-.67-.43v0l4.15,0a4.22,4.22,0,0,1,2.15.56,2.08,2.08,0,0,1,1,1.87c0,1.1-.68,2-2.06,2.82a.57.57,0,0,1-.17.12l-.22.09-.22.07-.15,0a1.1,1.1,0,0,1-.3.07l-.73.07a5.74,5.74,0,0,0-1.12.06l.05,3.33a1.91,1.91,0,0,0,.24,1,.91.91,0,0,0,.67.44v0Zm2.37-8.09v0a2.5,2.5,0,0,0-.15-.9,1,1,0,0,0-.38-.53v0a2.5,2.5,0,0,0-1.71-.48c-.63,0-1,.09-1,.28a.86.86,0,0,0,0,.17l-.05,4h.66a4.28,4.28,0,0,0,1-.11h0s0,0,0,0a1.9,1.9,0,0,0,1-.58,2.6,2.6,0,0,0,.65-1.77Z"/><path class="cls-32" d="M1298.58,88.7h-2v0a.84.84,0,0,0,.59-.37c.15-.2.3-.41.47-.62a16.78,16.78,0,0,0,1.13-2.23c.59-1.29,1-2.29,1.35-3q1.22-3,2.09-5.31,2.22,5.3,4.4,10.08a2.51,2.51,0,0,0,.63,1,1.43,1.43,0,0,0,.83.43v0l-2.57,0c-.48-1.25-.85-2.22-1.13-2.9h-4.73l-1,2.88ZM1304,85q-.06-.12-2-5l-2.11,5.09h4.21Z"/><path class="cls-32" d="M1314,84.31a2.57,2.57,0,0,1,.78,1.69,2.43,2.43,0,0,1,0,.69,1.9,1.9,0,0,1-.31.75,4.37,4.37,0,0,1-.54.7,1.54,1.54,0,0,1-.55.41,4.73,4.73,0,0,1-2.62.42,4.17,4.17,0,0,1-2.55-.78V86.06a.7.7,0,0,1,.06.09,4.9,4.9,0,0,0,1.28,1.56,3,3,0,0,0,1.57.56c1.12.1,1.84-.16,2.18-.78a.8.8,0,0,1,.08-.2,2.2,2.2,0,0,0,.12-.61,1.73,1.73,0,0,0-.44-1.25,11.11,11.11,0,0,0-1.9-1.45,14.82,14.82,0,0,1-2.42-1.83,2.48,2.48,0,0,1-.62-1.86,2.36,2.36,0,0,1,1.06-1.83,3.63,3.63,0,0,1,2.46-.59,6.86,6.86,0,0,1,1.86.43c.5.21.74.4.71.57s0,.72,0,1.87l-.32-.48a4.65,4.65,0,0,0-1-1.13,2.7,2.7,0,0,0-1.52-.51,2.15,2.15,0,0,0-1.37.28,1.3,1.3,0,0,0-.57,1.08,1.69,1.69,0,0,0,.43,1.23,7.41,7.41,0,0,0,1.64,1.24A12.13,12.13,0,0,1,1314,84.31Z"/><path class="cls-32" d="M1327.86,78.07q0,1.55,0,2.64h-.07a6.25,6.25,0,0,0-1.26-1.48,4,4,0,0,0-2.22-.46h-.63c-.2,0-.31.07-.33.13a.18.18,0,0,0,0,.13v8.16a1.2,1.2,0,0,0,.25.78,1.37,1.37,0,0,0,.41.42,1.43,1.43,0,0,0,.58.24s0,0,0,.05a.82.82,0,0,1-.42,0,29.63,29.63,0,0,0-3.3,0,.43.43,0,0,1-.33-.07,1.51,1.51,0,0,0,1-.41,1.19,1.19,0,0,0,.43-.83l0-8.38a.25.25,0,0,0-.16-.24h-.88a4,4,0,0,0-2.23.46,5.86,5.86,0,0,0-1.26,1.48h-.06q0-1.1,0-2.64l4.55,0Z"/><path class="cls-32" d="M1329.53,88.7h-2l0,0a.86.86,0,0,0,.6-.37c.14-.2.3-.41.46-.62a15.07,15.07,0,0,0,1.14-2.23c.59-1.29,1-2.29,1.35-3,.81-2,1.5-3.75,2.09-5.31q2.22,5.3,4.39,10.08a2.75,2.75,0,0,0,.63,1,1.46,1.46,0,0,0,.83.43v0l-2.57,0c-.47-1.25-.85-2.22-1.13-2.9h-4.72l-1,2.88ZM1335,85l-2-5-2.1,5.09H1335Z"/><path class="cls-32" d="M1345,84.31a2.67,2.67,0,0,1,.78,1.69,2.48,2.48,0,0,1,0,.69,1.88,1.88,0,0,1-.3.75,5.12,5.12,0,0,1-.55.7,1.46,1.46,0,0,1-.55.41,4.7,4.7,0,0,1-2.62.42,4.22,4.22,0,0,1-2.55-.78V86.06l.07.09a4.89,4.89,0,0,0,1.27,1.56,3,3,0,0,0,1.58.56c1.12.1,1.84-.16,2.17-.78a1.6,1.6,0,0,1,.08-.2,1.89,1.89,0,0,0,.12-.61,1.72,1.72,0,0,0-.43-1.25A11.31,11.31,0,0,0,1342.1,84a15.81,15.81,0,0,1-2.42-1.83,2.48,2.48,0,0,1-.61-1.86,2.32,2.32,0,0,1,1-1.83,3.66,3.66,0,0,1,2.46-.59,6.69,6.69,0,0,1,1.86.43c.51.21.75.4.71.57s0,.72,0,1.87q.09.17-.33-.48a4.61,4.61,0,0,0-1-1.13,2.76,2.76,0,0,0-1.53-.51,2.17,2.17,0,0,0-1.37.28,1.3,1.3,0,0,0-.57,1.08,1.74,1.74,0,0,0,.43,1.23,7.94,7.94,0,0,0,1.64,1.24A12.54,12.54,0,0,1,1345,84.31Z"/><path class="cls-32" d="M1277.92,81.62h3.4v.32a1.94,1.94,0,0,0-1,.31,6,6,0,0,0-1,1.53,16.59,16.59,0,0,1-1.6,2.39,5.46,5.46,0,0,0,1.28,1.18,2.19,2.19,0,0,0,1.15.34,1.49,1.49,0,0,0,.94-.3,1.61,1.61,0,0,0,.55-.9l.3.22a3.19,3.19,0,0,1-1,1.69,2.34,2.34,0,0,1-1.55.55,2.84,2.84,0,0,1-1.34-.36,6.35,6.35,0,0,1-1.5-1.23,6.89,6.89,0,0,1-1.81,1.24A4.3,4.3,0,0,1,1273,89a3.05,3.05,0,0,1-2.12-.71,2.26,2.26,0,0,1-.79-1.71,3.37,3.37,0,0,1,.71-2,7.94,7.94,0,0,1,2.66-2,9.25,9.25,0,0,1-.53-1.38,4.21,4.21,0,0,1-.13-1,2.43,2.43,0,0,1,1-2.11,3,3,0,0,1,1.8-.57,2.22,2.22,0,0,1,1.58.57,1.86,1.86,0,0,1,.6,1.4,2.16,2.16,0,0,1-.59,1.51,7.47,7.47,0,0,1-2.08,1.41,35.38,35.38,0,0,0,2.15,3.36,4.93,4.93,0,0,0,1.42-2.86,1,1,0,0,0-.24-.66.74.74,0,0,0-.51-.25v-.32Zm-3.09.21a4.33,4.33,0,0,0,1.5-1.08,2.11,2.11,0,0,0,.5-1.35,1.37,1.37,0,0,0-.36-1,1.19,1.19,0,0,0-.89-.37,1.24,1.24,0,0,0-1.06.48,1.64,1.64,0,0,0-.36,1,3.36,3.36,0,0,0,.13.89c.1.32.28.81.54,1.44Zm1.25,5.06q-1.07-1.45-1.47-2.13c-.28-.45-.58-1-.91-1.67a4.77,4.77,0,0,0-1.47,1.24,2.4,2.4,0,0,0-.49,1.46,2.22,2.22,0,0,0,.56,1.52,1.86,1.86,0,0,0,1.5.66,2.61,2.61,0,0,0,1-.2A6,6,0,0,0,1276.08,86.89Z"/></g></svg>