<svg xmlns="http://www.w3.org/2000/svg" xmlns:xlink="http://www.w3.org/1999/xlink" viewBox="0 0 1079.86 154.98"><defs><style>.cls-1{fill:none;clip-rule:evenodd;}.cls-2{fill:#e0b875;}.cls-3{fill:#bf181a;}.cls-4{fill:#479b41;}.cls-19,.cls-5{fill:#fff;}.cls-30,.cls-31,.cls-32,.cls-5{fill-rule:evenodd;}.cls-6{clip-path:url(#clip-path);}.cls-7{fill:#ececec;}.cls-8{fill:#eeefef;}.cls-9{fill:#f0f0f1;}.cls-10{fill:#f0f2f2;}.cls-11{fill:#f2f3f4;}.cls-12{fill:#f5f4f4;}.cls-13{fill:#f7f6f7;}.cls-14{fill:#f7f8fa;}.cls-15{fill:#f9f9fa;}.cls-16{fill:#fbfcfc;}.cls-17{fill:#fdfdfe;}.cls-18{fill:#fdfeff;}.cls-20{fill:#ecebec;}.cls-21{fill:#eaeaeb;}.cls-22{fill:#eaeaea;}.cls-23{fill:#e8e9e9;}.cls-24{fill:#e8e7e7;}.cls-25{fill:#e7e5e6;}.cls-26{fill:#e5e4e6;}.cls-27{fill:#e3e3e4;}.cls-28{fill:#e3e2e1;}.cls-29{fill:#e1dfe0;}.cls-30{fill:#e30517;}.cls-31{fill:#009e3e;}</style><clipPath id="clip-path"><polygon class="cls-1" points="746.2 150 244.39 150 333.67 4.98 835.48 4.98 746.2 150"/></clipPath></defs><title>logo svg</title><g id="Capa_2" data-name="Capa 2"><rect class="cls-2" y="62.93" width="1079.86" height="29.11"/><rect class="cls-3" x="539.93" y="66.99" width="539.93" height="20.99"/><rect class="cls-4" y="66.99" width="539.93" height="20.99"/></g><g id="Capa_4" data-name="Capa 4"><polygon class="cls-5" points="748.84 154.73 235.92 154.73 331.02 0.25 843.95 0.25 748.84 154.73"/><g class="cls-6"><rect class="cls-7" x="427.68" y="213.04" width="512.22" height="2.17" transform="translate(57.64 562.49) rotate(-46.48)"/><rect class="cls-7" x="426.58" y="211.79" width="512.22" height="2.59" transform="translate(58 561.27) rotate(-46.47)"/><rect class="cls-7" x="425.33" y="210.6" width="512.22" height="2.59" transform="translate(58.46 559.96) rotate(-46.47)"/><rect class="cls-7" x="424.08" y="209.41" width="512.22" height="2.59" transform="translate(59.01 558.82) rotate(-46.48)"/><rect class="cls-8" x="422.82" y="208.22" width="512.22" height="2.59" transform="translate(59.48 557.54) rotate(-46.48)"/><rect class="cls-8" x="421.57" y="207.03" width="512.22" height="2.59" transform="translate(59.93 556.23) rotate(-46.48)"/><rect class="cls-8" x="420.32" y="205.84" width="512.22" height="2.59" transform="translate(60.37 554.88) rotate(-46.47)"/><rect class="cls-8" x="419.07" y="204.65" width="512.22" height="2.59" transform="translate(60.88 553.67) rotate(-46.48)"/><rect class="cls-8" x="417.81" y="203.46" width="512.22" height="2.59" transform="translate(61.33 552.36) rotate(-46.47)"/><rect class="cls-8" x="416.56" y="202.27" width="512.22" height="2.59" transform="translate(61.84 551.15) rotate(-46.48)"/><rect class="cls-8" x="415.31" y="201.08" width="512.22" height="2.59" transform="translate(62.22 549.7) rotate(-46.46)"/><rect class="cls-8" x="414.06" y="199.89" width="512.22" height="2.59" transform="translate(62.79 548.59) rotate(-46.48)"/><rect class="cls-8" x="412.8" y="198.7" width="512.22" height="2.59" transform="translate(63.28 547.35) rotate(-46.48)"/><rect class="cls-8" x="411.55" y="197.51" width="512.22" height="2.59" transform="translate(63.77 546.1) rotate(-46.48)"/><rect class="cls-8" x="410.3" y="196.32" width="512.22" height="2.59" transform="translate(64.15 544.66) rotate(-46.47)"/><rect class="cls-8" x="409.05" y="195.13" width="512.22" height="2.59" transform="translate(64.66 543.44) rotate(-46.48)"/><rect class="cls-8" x="407.79" y="193.94" width="512.22" height="2.59" transform="translate(65.13 542.16) rotate(-46.48)"/><rect class="cls-8" x="406.54" y="192.75" width="512.22" height="2.59" transform="translate(65.62 540.92) rotate(-46.48)"/><rect class="cls-8" x="405.29" y="191.56" width="512.22" height="2.59" transform="translate(66.02 539.51) rotate(-46.47)"/><rect class="cls-9" x="404.04" y="190.37" width="512.22" height="2.59" transform="translate(66.61 538.43) rotate(-46.48)"/><rect class="cls-9" x="402.78" y="189.18" width="512.22" height="2.59" transform="translate(67.1 537.18) rotate(-46.49)"/><rect class="cls-9" x="401.53" y="187.99" width="512.22" height="2.59" transform="translate(67.49 535.77) rotate(-46.48)"/><rect class="cls-9" x="400.28" y="186.8" width="512.22" height="2.59" transform="matrix(0.69, -0.73, 0.73, 0.69, 67.93, 534.43)"/><rect class="cls-9" x="399.03" y="185.61" width="512.22" height="2.59" transform="translate(68.38 533.12) rotate(-46.47)"/><rect class="cls-9" x="397.77" y="184.43" width="512.22" height="2.59" transform="translate(68.91 531.93) rotate(-46.48)"/><rect class="cls-9" x="396.52" y="183.24" width="512.22" height="2.59" transform="translate(69.39 530.66) rotate(-46.48)"/><rect class="cls-9" x="395.27" y="182.05" width="512.22" height="2.59" transform="translate(69.86 529.38) rotate(-46.48)"/><rect class="cls-9" x="394.02" y="180.86" width="512.22" height="2.59" transform="translate(70.31 528.07) rotate(-46.47)"/><rect class="cls-9" x="392.76" y="179.67" width="512.22" height="2.59" transform="translate(70.82 526.85) rotate(-46.48)"/><rect class="cls-9" x="391.51" y="178.48" width="512.22" height="2.59" transform="translate(71.26 525.51) rotate(-46.47)"/><rect class="cls-10" x="390.26" y="177.29" width="512.22" height="2.59" transform="translate(71.71 524.2) rotate(-46.47)"/><rect class="cls-11" x="389.01" y="176.1" width="512.22" height="2.59" transform="translate(72.18 522.92) rotate(-46.47)"/><rect class="cls-11" x="387.75" y="174.91" width="512.22" height="2.59" transform="translate(72.69 521.71) rotate(-46.48)"/><rect class="cls-12" x="386.5" y="173.72" width="512.22" height="2.59" transform="translate(73.23 520.53) rotate(-46.49)"/><rect class="cls-12" x="385.25" y="172.53" width="512.22" height="2.59" transform="translate(73.64 519.15) rotate(-46.48)"/><rect class="cls-12" x="383.99" y="171.34" width="512.22" height="2.59" transform="translate(74.05 517.78) rotate(-46.47)"/><rect class="cls-13" x="382.74" y="170.15" width="512.22" height="2.59" transform="translate(74.6 516.62) rotate(-46.48)"/><rect class="cls-13" x="381.49" y="168.96" width="512.22" height="2.59" transform="translate(75.06 515.31) rotate(-46.48)"/><rect class="cls-13" x="380.24" y="167.77" width="512.22" height="2.59" transform="translate(75.55 514.07) rotate(-46.48)"/><rect class="cls-14" x="378.98" y="166.58" width="512.22" height="2.59" transform="translate(75.96 512.7) rotate(-46.47)"/><rect class="cls-14" x="377.73" y="165.39" width="512.22" height="2.59" transform="translate(76.46 511.45) rotate(-46.47)"/><rect class="cls-15" x="376.48" y="164.2" width="512.22" height="2.59" transform="translate(77.03 510.33) rotate(-46.49)"/><rect class="cls-15" x="375.23" y="163.01" width="512.22" height="2.59" transform="translate(77.42 508.92) rotate(-46.48)"/><rect class="cls-16" x="373.97" y="161.82" width="512.22" height="2.59" transform="translate(77.84 507.55) rotate(-46.47)"/><rect class="cls-16" x="372.72" y="160.63" width="512.22" height="2.59" transform="translate(78.37 506.36) rotate(-46.48)"/><rect class="cls-16" x="371.47" y="159.44" width="512.22" height="2.59" transform="translate(78.84 505.08) rotate(-46.48)"/><rect class="cls-16" x="370.22" y="158.25" width="512.22" height="2.59" transform="translate(79.29 503.78) rotate(-46.47)"/><rect class="cls-17" x="368.96" y="157.06" width="512.22" height="2.59" transform="matrix(0.69, -0.73, 0.73, 0.69, 79.75, 502.47)"/><rect class="cls-18" x="367.71" y="155.87" width="512.22" height="2.59" transform="translate(80.3 501.31) rotate(-46.48)"/><rect class="cls-19" x="366.46" y="154.68" width="512.22" height="2.59" transform="translate(80.75 500) rotate(-46.48)"/><rect class="cls-19" x="365.21" y="153.49" width="512.22" height="2.59" transform="translate(81.18 498.66) rotate(-46.47)"/><rect class="cls-19" x="363.95" y="152.3" width="512.22" height="2.59" transform="translate(81.62 497.32) rotate(-46.47)"/><rect class="cls-18" x="362.7" y="151.11" width="512.22" height="2.59" transform="translate(82.17 496.16) rotate(-46.48)"/><rect class="cls-18" x="361.45" y="149.92" width="512.22" height="2.59" transform="translate(82.62 494.86) rotate(-46.48)"/><rect class="cls-18" x="360.2" y="148.73" width="512.22" height="2.59" transform="translate(83.09 493.58) rotate(-46.48)"/><rect class="cls-18" x="358.94" y="147.55" width="512.22" height="2.59" transform="translate(83.59 492.33) rotate(-46.48)"/><rect class="cls-17" x="357.69" y="146.36" width="512.22" height="2.59" transform="translate(83.98 490.93) rotate(-46.47)"/><rect class="cls-17" x="356.44" y="145.17" width="512.22" height="2.59" transform="translate(84.53 489.77) rotate(-46.48)"/><rect class="cls-17" x="355.19" y="143.98" width="512.22" height="2.59" transform="translate(85 488.49) rotate(-46.48)"/><rect class="cls-16" x="353.93" y="142.79" width="512.22" height="2.59" transform="translate(85.4 487.1) rotate(-46.47)"/><rect class="cls-16" x="352.68" y="141.6" width="512.22" height="2.59" transform="matrix(0.69, -0.73, 0.73, 0.69, 85.89, 485.85)"/><rect class="cls-16" x="351.43" y="140.41" width="512.22" height="2.59" transform="translate(86.38 484.6) rotate(-46.47)"/><rect class="cls-16" x="350.18" y="139.22" width="512.22" height="2.59" transform="translate(86.93 483.44) rotate(-46.48)"/><rect class="cls-16" x="348.92" y="138.03" width="512.22" height="2.59" transform="translate(87.29 481.99) rotate(-46.47)"/><rect class="cls-16" x="347.67" y="136.84" width="512.22" height="2.59" transform="translate(87.76 480.71) rotate(-46.47)"/><rect class="cls-16" x="346.42" y="135.65" width="512.22" height="2.59" transform="translate(88.29 479.51) rotate(-46.48)"/><rect class="cls-16" x="345.17" y="134.46" width="512.22" height="2.59" transform="translate(88.78 478.26) rotate(-46.48)"/><rect class="cls-16" x="343.91" y="133.27" width="512.22" height="2.59" transform="translate(89.22 476.93) rotate(-46.47)"/><rect class="cls-16" x="342.66" y="132.08" width="512.22" height="2.59" transform="translate(89.67 475.62) rotate(-46.47)"/><rect class="cls-16" x="341.41" y="130.89" width="512.22" height="2.59" transform="translate(90.24 474.49) rotate(-46.48)"/><rect class="cls-16" x="340.16" y="129.7" width="512.22" height="2.59" transform="translate(90.71 473.21) rotate(-46.48)"/><rect class="cls-15" x="338.9" y="128.51" width="512.22" height="2.59" transform="translate(91.15 471.87) rotate(-46.48)"/><rect class="cls-15" x="337.65" y="127.32" width="512.22" height="2.59" transform="translate(91.54 470.48) rotate(-46.47)"/><rect class="cls-15" x="336.4" y="126.13" width="512.22" height="2.59" transform="translate(92.07 469.28) rotate(-46.48)"/><rect class="cls-15" x="335.15" y="124.94" width="512.22" height="2.59" transform="translate(92.56 468.03) rotate(-46.48)"/><rect class="cls-15" x="333.89" y="123.75" width="512.22" height="2.59" transform="translate(93.02 466.73) rotate(-46.48)"/><rect class="cls-15" x="332.64" y="122.56" width="512.22" height="2.59" transform="translate(93.51 465.48) rotate(-46.48)"/><rect class="cls-15" x="331.39" y="121.37" width="512.22" height="2.59" transform="translate(94.02 464.26) rotate(-46.48)"/><rect class="cls-14" x="330.14" y="120.18" width="512.22" height="2.59" transform="translate(94.42 462.86) rotate(-46.47)"/><rect class="cls-14" x="328.88" y="118.99" width="512.22" height="2.59" transform="translate(94.93 461.64) rotate(-46.48)"/><rect class="cls-14" x="327.63" y="117.8" width="512.22" height="2.59" transform="translate(95.31 460.23) rotate(-46.46)"/><rect class="cls-14" x="326.38" y="116.61" width="512.22" height="2.59" transform="translate(95.85 459.06) rotate(-46.48)"/><rect class="cls-14" x="325.13" y="115.42" width="512.22" height="2.59" transform="translate(96.33 457.78) rotate(-46.48)"/><rect class="cls-14" x="323.87" y="114.23" width="512.22" height="2.59" transform="translate(96.86 456.58) rotate(-46.48)"/><rect class="cls-14" x="322.62" y="113.05" width="512.22" height="2.59" transform="translate(97.27 455.22) rotate(-46.48)"/><rect class="cls-14" x="321.37" y="111.86" width="512.22" height="2.59" transform="translate(97.71 453.89) rotate(-46.47)"/><rect class="cls-13" x="320.12" y="110.67" width="512.22" height="2.59" transform="translate(98.22 452.66) rotate(-46.48)"/><rect class="cls-13" x="318.86" y="109.48" width="512.22" height="2.59" transform="translate(98.71 451.41) rotate(-46.48)"/><rect class="cls-13" x="317.61" y="108.29" width="512.22" height="2.59" transform="translate(99.11 450.03) rotate(-46.47)"/><rect class="cls-13" x="316.36" y="107.1" width="512.22" height="2.59" transform="translate(99.58 448.75) rotate(-46.47)"/><rect class="cls-13" x="315.11" y="105.91" width="512.22" height="2.59" transform="translate(100.13 447.58) rotate(-46.48)"/><rect class="cls-13" x="313.85" y="104.72" width="512.22" height="2.59" transform="translate(100.64 446.35) rotate(-46.48)"/><rect class="cls-13" x="312.6" y="103.53" width="512.22" height="2.59" transform="translate(101.02 444.94) rotate(-46.47)"/><rect class="cls-12" x="311.35" y="102.34" width="512.22" height="2.59" transform="translate(101.49 443.66) rotate(-46.47)"/><rect class="cls-12" x="310.1" y="101.15" width="512.22" height="2.59" transform="translate(102 442.43) rotate(-46.48)"/><rect class="cls-12" x="308.84" y="99.96" width="512.22" height="2.59" transform="translate(102.47 441.16) rotate(-46.48)"/><rect class="cls-12" x="307.59" y="98.77" width="512.22" height="2.59" transform="translate(102.91 439.83) rotate(-46.47)"/><rect class="cls-12" x="306.34" y="97.58" width="512.22" height="2.59" transform="translate(103.36 438.52) rotate(-46.47)"/><rect class="cls-12" x="305.09" y="96.39" width="512.22" height="2.59" transform="translate(103.97 437.43) rotate(-46.49)"/><rect class="cls-12" x="303.83" y="95.2" width="512.22" height="2.59" transform="translate(104.34 436.02) rotate(-46.47)"/><rect class="cls-12" x="302.58" y="94.01" width="512.22" height="2.59" transform="translate(104.83 434.76) rotate(-46.48)"/><rect class="cls-12" x="301.33" y="92.82" width="512.22" height="2.59" transform="translate(105.27 433.44) rotate(-46.47)"/><rect class="cls-12" x="300.08" y="91.63" width="512.22" height="2.59" transform="translate(105.78 432.21) rotate(-46.48)"/><rect class="cls-12" x="298.82" y="90.44" width="512.22" height="2.59" transform="translate(106.25 430.93) rotate(-46.48)"/><rect class="cls-11" x="297.57" y="89.25" width="512.22" height="2.59" transform="translate(106.74 429.67) rotate(-46.48)"/><rect class="cls-11" x="296.32" y="88.06" width="512.22" height="2.59" transform="translate(107.2 428.37) rotate(-46.48)"/><rect class="cls-11" x="295.07" y="86.87" width="512.22" height="2.59" transform="translate(107.69 427.12) rotate(-46.48)"/><rect class="cls-11" x="293.81" y="85.68" width="512.22" height="2.59" transform="translate(108.14 425.81) rotate(-46.48)"/><rect class="cls-10" x="292.56" y="84.49" width="512.22" height="2.59" transform="translate(108.61 424.53) rotate(-46.48)"/><rect class="cls-10" x="291.31" y="83.3" width="512.22" height="2.59" transform="translate(109.05 423.21) rotate(-46.47)"/><rect class="cls-10" x="290.06" y="82.11" width="512.22" height="2.59" transform="translate(109.56 421.98) rotate(-46.48)"/><rect class="cls-10" x="288.8" y="80.92" width="512.22" height="2.59" transform="translate(110.03 420.7) rotate(-46.48)"/><rect class="cls-9" x="287.55" y="79.73" width="512.22" height="2.59" transform="translate(110.58 419.52) rotate(-46.49)"/><rect class="cls-9" x="286.3" y="78.54" width="512.22" height="2.59" transform="translate(110.92 418.07) rotate(-46.47)"/><rect class="cls-10" x="285.04" y="77.36" width="512.22" height="2.59" transform="translate(111.41 416.82) rotate(-46.47)"/><rect class="cls-11" x="283.79" y="76.17" width="512.22" height="2.59" transform="translate(111.92 415.58) rotate(-46.48)"/><rect class="cls-12" x="282.54" y="74.98" width="512.22" height="2.59" transform="translate(112.38 414.28) rotate(-46.47)"/><rect class="cls-12" x="281.29" y="73.79" width="512.22" height="2.59" transform="translate(112.83 412.98) rotate(-46.47)"/><rect class="cls-12" x="280.03" y="72.6" width="512.22" height="2.59" transform="translate(113.27 411.66) rotate(-46.46)"/><rect class="cls-13" x="278.78" y="71.41" width="512.22" height="2.59" transform="translate(113.87 410.54) rotate(-46.48)"/><rect class="cls-13" x="277.53" y="70.22" width="512.22" height="2.59" transform="translate(114.34 409.27) rotate(-46.49)"/><rect class="cls-14" x="276.28" y="69.03" width="512.22" height="2.59" transform="translate(114.7 407.84) rotate(-46.47)"/><rect class="cls-14" x="275.02" y="67.84" width="512.22" height="2.59" transform="translate(115.19 406.59) rotate(-46.47)"/><rect class="cls-15" x="273.77" y="66.65" width="512.22" height="2.59" transform="translate(115.72 405.38) rotate(-46.48)"/><rect class="cls-15" x="272.52" y="65.46" width="512.22" height="2.59" transform="translate(116.18 404.08) rotate(-46.48)"/><rect class="cls-16" x="271.27" y="64.27" width="512.22" height="2.59" transform="translate(116.61 402.76) rotate(-46.47)"/><rect class="cls-16" x="270.01" y="63.08" width="512.22" height="2.59" transform="translate(117.12 401.52) rotate(-46.48)"/><rect class="cls-16" x="268.76" y="61.89" width="512.22" height="2.59" transform="translate(117.65 400.31) rotate(-46.48)"/><rect class="cls-17" x="267.51" y="60.7" width="512.22" height="2.59" transform="translate(118.09 398.99) rotate(-46.48)"/><rect class="cls-18" x="266.26" y="59.51" width="512.22" height="2.59" transform="translate(118.54 397.68) rotate(-46.48)"/><rect class="cls-19" x="265" y="58.32" width="512.22" height="2.59" transform="translate(118.98 396.36) rotate(-46.47)"/><rect class="cls-19" x="263.75" y="57.13" width="512.22" height="2.59" transform="translate(119.49 395.13) rotate(-46.48)"/><rect class="cls-19" x="262.5" y="55.94" width="512.22" height="2.59" transform="translate(119.96 393.85) rotate(-46.48)"/><rect class="cls-19" x="261.25" y="54.75" width="512.22" height="2.59" transform="translate(120.49 392.64) rotate(-46.49)"/><rect class="cls-19" x="259.99" y="53.56" width="512.22" height="2.59" transform="translate(120.91 391.3) rotate(-46.48)"/><rect class="cls-19" x="258.74" y="52.37" width="512.22" height="2.59" transform="translate(121.36 389.99) rotate(-46.47)"/><rect class="cls-19" x="257.49" y="51.18" width="512.22" height="2.59" transform="translate(121.87 388.76) rotate(-46.48)"/><rect class="cls-19" x="256.24" y="49.99" width="512.22" height="2.59" transform="translate(122.3 387.44) rotate(-46.47)"/><rect class="cls-19" x="254.98" y="48.8" width="512.22" height="2.59" transform="translate(122.74 386.11) rotate(-46.47)"/><rect class="cls-19" x="253.73" y="47.61" width="512.22" height="2.59" transform="translate(123.29 384.92) rotate(-46.48)"/><rect class="cls-19" x="252.48" y="46.42" width="512.22" height="2.59" transform="translate(123.8 383.69) rotate(-46.48)"/><rect class="cls-19" x="251.23" y="45.23" width="512.22" height="2.59" transform="translate(124.29 382.43) rotate(-46.49)"/><rect class="cls-19" x="249.97" y="44.04" width="512.22" height="2.59" transform="translate(124.63 381) rotate(-46.47)"/><rect class="cls-19" x="248.72" y="42.85" width="512.22" height="2.59" transform="translate(125.16 379.79) rotate(-46.48)"/><rect class="cls-19" x="247.47" y="41.67" width="512.22" height="2.59" transform="translate(125.65 378.53) rotate(-46.48)"/><rect class="cls-19" x="246.22" y="40.48" width="512.22" height="2.59" transform="translate(126.1 377.23) rotate(-46.48)"/><rect class="cls-19" x="244.96" y="39.29" width="512.22" height="2.59" transform="translate(126.52 375.89) rotate(-46.47)"/><rect class="cls-19" x="243.71" y="38.1" width="512.22" height="2.59" transform="translate(127.01 374.63) rotate(-46.47)"/><rect class="cls-19" x="242.46" y="36.91" width="512.22" height="2.59" transform="translate(127.56 373.44) rotate(-46.48)"/><rect class="cls-19" x="241.21" y="35.72" width="512.22" height="2.59" transform="translate(128.01 372.13) rotate(-46.48)"/><rect class="cls-19" x="239.95" y="34.53" width="512.22" height="2.59" transform="translate(128.41 370.78) rotate(-46.47)"/><rect class="cls-18" x="238.7" y="33.34" width="512.22" height="2.59" transform="translate(128.88 369.5) rotate(-46.47)"/><rect class="cls-18" x="237.45" y="32.15" width="512.22" height="2.59" transform="translate(129.41 368.28) rotate(-46.48)"/><rect class="cls-18" x="236.2" y="30.96" width="512.22" height="2.59" transform="translate(129.88 367) rotate(-46.48)"/><rect class="cls-18" x="234.94" y="29.77" width="512.22" height="2.59" transform="translate(130.3 365.66) rotate(-46.47)"/><rect class="cls-17" x="233.69" y="28.58" width="512.22" height="2.59" transform="translate(130.85 364.47) rotate(-46.48)"/><rect class="cls-17" x="232.44" y="27.39" width="512.22" height="2.59" transform="translate(131.3 363.16) rotate(-46.48)"/><rect class="cls-17" x="231.19" y="26.2" width="512.22" height="2.59" transform="translate(131.79 361.91) rotate(-46.48)"/><rect class="cls-17" x="229.93" y="25.01" width="512.22" height="2.59" transform="translate(132.25 360.61) rotate(-46.48)"/><rect class="cls-16" x="228.68" y="23.82" width="512.22" height="2.59" transform="translate(132.66 359.27) rotate(-46.47)"/><rect class="cls-16" x="227.43" y="22.63" width="512.22" height="2.59" transform="translate(133.21 358.07) rotate(-46.48)"/><rect class="cls-16" x="226.18" y="21.44" width="512.22" height="2.59" transform="translate(133.68 356.79) rotate(-46.48)"/><rect class="cls-16" x="224.92" y="20.25" width="512.22" height="2.59" transform="translate(134.19 355.55) rotate(-46.48)"/><rect class="cls-16" x="223.67" y="19.06" width="512.22" height="2.59" transform="translate(134.57 354.18) rotate(-46.47)"/><rect class="cls-16" x="222.42" y="17.87" width="512.22" height="2.59" transform="translate(135.08 352.94) rotate(-46.48)"/><rect class="cls-16" x="221.17" y="16.68" width="512.22" height="2.59" transform="translate(135.55 351.66) rotate(-46.48)"/><rect class="cls-16" x="219.91" y="15.49" width="512.22" height="2.59" transform="translate(136.05 350.4) rotate(-46.48)"/><rect class="cls-16" x="218.66" y="14.3" width="512.22" height="2.59" transform="translate(136.45 349.04) rotate(-46.47)"/><rect class="cls-16" x="217.41" y="13.11" width="512.22" height="2.59" transform="translate(136.99 347.84) rotate(-46.48)"/><rect class="cls-16" x="216.16" y="11.92" width="512.22" height="2.59" transform="translate(137.48 346.58) rotate(-46.48)"/><rect class="cls-15" x="214.9" y="10.73" width="512.22" height="2.59" transform="translate(137.92 345.26) rotate(-46.48)"/><rect class="cls-15" x="213.65" y="9.54" width="512.22" height="2.59" transform="translate(138.34 343.93) rotate(-46.47)"/><rect class="cls-15" x="212.4" y="8.35" width="512.22" height="2.59" transform="translate(138.86 342.71) rotate(-46.48)"/><rect class="cls-15" x="211.15" y="7.16" width="512.22" height="2.59" transform="translate(139.32 341.41) rotate(-46.47)"/><rect class="cls-15" x="209.89" y="5.97" width="512.22" height="2.59" transform="translate(139.83 340.17) rotate(-46.48)"/><rect class="cls-15" x="208.64" y="4.79" width="512.22" height="2.59" transform="translate(140.23 338.82) rotate(-46.47)"/><rect class="cls-15" x="207.39" y="3.6" width="512.22" height="2.59" transform="translate(140.76 337.6) rotate(-46.48)"/><rect class="cls-14" x="206.14" y="2.41" width="512.22" height="2.59" transform="translate(141.28 336.37) rotate(-46.48)"/><rect class="cls-14" x="204.88" y="1.22" width="512.22" height="2.59" transform="translate(141.7 335.04) rotate(-46.48)"/><rect class="cls-14" x="203.63" y="0.03" width="512.22" height="2.59" transform="translate(142.14 333.72) rotate(-46.47)"/><rect class="cls-14" x="202.38" y="-1.16" width="512.22" height="2.59" transform="translate(142.59 332.43) rotate(-46.47)"/><rect class="cls-14" x="201.13" y="-2.35" width="512.22" height="2.59" transform="translate(143.12 331.2) rotate(-46.48)"/><rect class="cls-14" x="199.87" y="-3.54" width="512.22" height="2.59" transform="translate(143.61 329.94) rotate(-46.48)"/><rect class="cls-14" x="198.62" y="-4.73" width="512.22" height="2.59" transform="translate(144.07 328.65) rotate(-46.48)"/><rect class="cls-14" x="197.37" y="-5.92" width="512.22" height="2.59" transform="translate(144.54 327.37) rotate(-46.48)"/><rect class="cls-13" x="196.11" y="-7.11" width="512.22" height="2.59" transform="translate(145.03 326.1) rotate(-46.48)"/><rect class="cls-13" x="194.86" y="-8.3" width="512.22" height="2.59" transform="translate(145.46 324.79) rotate(-46.47)"/><rect class="cls-13" x="193.61" y="-9.49" width="512.22" height="2.59" transform="translate(145.92 323.5) rotate(-46.47)"/><rect class="cls-13" x="192.36" y="-10.68" width="512.22" height="2.59" transform="translate(146.37 322.2) rotate(-46.47)"/><rect class="cls-13" x="191.1" y="-11.87" width="512.22" height="2.59" transform="translate(146.9 320.97) rotate(-46.48)"/><rect class="cls-13" x="189.85" y="-13.06" width="512.22" height="2.59" transform="translate(147.43 319.75) rotate(-46.49)"/><rect class="cls-12" x="188.6" y="-14.25" width="512.22" height="2.59" transform="translate(147.9 318.47) rotate(-46.48)"/><rect class="cls-12" x="187.35" y="-15.44" width="512.22" height="2.59" transform="matrix(0.69, -0.73, 0.73, 0.69, 148.28, 317.1)"/><rect class="cls-12" x="186.09" y="-16.63" width="512.22" height="2.59" transform="translate(148.81 315.87) rotate(-46.48)"/><rect class="cls-12" x="184.84" y="-17.82" width="512.22" height="2.59" transform="translate(149.26 314.58) rotate(-46.48)"/><rect class="cls-12" x="183.59" y="-19.01" width="512.22" height="2.59" transform="translate(149.75 313.32) rotate(-46.48)"/><rect class="cls-11" x="182.34" y="-20.2" width="512.22" height="2.59" transform="translate(150.17 311.99) rotate(-46.47)"/><rect class="cls-11" x="181.08" y="-21.39" width="512.22" height="2.59" transform="translate(150.74 310.79) rotate(-46.48)"/><rect class="cls-10" x="179.83" y="-22.58" width="512.22" height="2.59" transform="translate(151.23 309.53) rotate(-46.49)"/><rect class="cls-9" x="178.58" y="-23.77" width="512.22" height="2.59" transform="translate(151.62 308.19) rotate(-46.48)"/><rect class="cls-9" x="177.33" y="-24.96" width="512.22" height="2.59" transform="translate(152.04 306.86) rotate(-46.47)"/><rect class="cls-9" x="176.07" y="-26.15" width="512.22" height="2.59" transform="translate(152.57 305.63) rotate(-46.48)"/><rect class="cls-9" x="174.82" y="-27.34" width="512.22" height="2.59" transform="translate(153.04 304.35) rotate(-46.48)"/><rect class="cls-9" x="173.57" y="-28.53" width="512.22" height="2.59" transform="translate(153.5 303.06) rotate(-46.47)"/><rect class="cls-8" x="172.32" y="-29.72" width="512.22" height="2.59" transform="translate(153.95 301.76) rotate(-46.47)"/><rect class="cls-8" x="171.06" y="-30.9" width="512.22" height="2.59" transform="translate(154.45 300.5) rotate(-46.47)"/><rect class="cls-7" x="169.81" y="-32.09" width="512.22" height="2.59" transform="translate(154.95 299.25) rotate(-46.48)"/><rect class="cls-7" x="168.56" y="-33.28" width="512.22" height="2.59" transform="translate(155.39 297.94) rotate(-46.47)"/><rect class="cls-20" x="167.31" y="-34.47" width="512.22" height="2.59" transform="translate(155.82 296.63) rotate(-46.47)"/><rect class="cls-20" x="166.05" y="-35.66" width="512.22" height="2.59" transform="translate(156.32 295.37) rotate(-46.47)"/><rect class="cls-20" x="164.8" y="-36.85" width="512.22" height="2.59" transform="translate(156.82 294.12) rotate(-46.48)"/><rect class="cls-21" x="163.55" y="-38.04" width="512.22" height="2.59" transform="translate(157.3 292.84) rotate(-46.48)"/><rect class="cls-21" x="162.3" y="-39.23" width="512.22" height="2.59" transform="translate(157.79 291.58) rotate(-46.48)"/><rect class="cls-22" x="161.04" y="-40.42" width="512.22" height="2.59" transform="translate(158.19 290.24) rotate(-46.47)"/><rect class="cls-23" x="159.79" y="-41.61" width="512.22" height="2.59" transform="translate(158.73 289.02) rotate(-46.48)"/><rect class="cls-23" x="158.54" y="-42.8" width="512.22" height="2.59" transform="translate(159.21 287.74) rotate(-46.48)"/><rect class="cls-24" x="157.29" y="-43.99" width="512.22" height="2.59" transform="translate(159.61 286.41) rotate(-46.47)"/><rect class="cls-24" x="156.03" y="-45.18" width="512.22" height="2.59" transform="translate(160.1 285.14) rotate(-46.47)"/><rect class="cls-25" x="154.78" y="-46.37" width="512.22" height="2.59" transform="translate(160.59 283.88) rotate(-46.47)"/><rect class="cls-26" x="153.53" y="-47.56" width="512.22" height="2.59" transform="translate(161.13 282.66) rotate(-46.48)"/><rect class="cls-26" x="152.28" y="-48.75" width="512.22" height="2.59" transform="translate(161.57 281.35) rotate(-46.48)"/><rect class="cls-26" x="151.02" y="-49.94" width="512.22" height="2.59" transform="translate(161.97 280.02) rotate(-46.47)"/><rect class="cls-26" x="149.77" y="-51.13" width="512.22" height="2.59" transform="translate(162.5 278.78) rotate(-46.48)"/><rect class="cls-27" x="148.52" y="-52.32" width="512.22" height="2.59" transform="translate(162.99 277.51) rotate(-46.48)"/><rect class="cls-28" x="147.27" y="-53.51" width="512.22" height="2.59" transform="translate(163.42 276.21) rotate(-46.47)"/><rect class="cls-28" x="146.01" y="-54.7" width="512.22" height="2.59" transform="translate(163.88 274.92) rotate(-46.47)"/><rect class="cls-28" x="144.76" y="-55.89" width="512.22" height="2.59" transform="translate(164.42 273.69) rotate(-46.48)"/><rect class="cls-28" x="143.51" y="-57.08" width="512.22" height="2.59" transform="translate(164.92 272.43) rotate(-46.48)"/><rect class="cls-29" x="142.26" y="-58.27" width="512.22" height="2.59" transform="translate(165.33 271.11) rotate(-46.48)"/><rect class="cls-29" x="141" y="-59.46" width="512.22" height="2.59" transform="translate(165.75 269.79) rotate(-46.47)"/><rect class="cls-29" x="139.75" y="-60.65" width="512.22" height="2.59" transform="translate(166.3 268.56) rotate(-46.48)"/><rect class="cls-29" x="138.5" y="-61.84" width="512.22" height="2.59" transform="translate(166.77 267.28) rotate(-46.48)"/><rect class="cls-29" x="138.68" y="-61.05" width="512.22" height="1.37" transform="translate(166.62 267.41) rotate(-46.46)"/></g><polygon class="cls-30" points="733.27 121.6 702.45 121.6 757.33 33.38 788.15 33.38 733.27 121.6"/><polygon class="cls-31" points="323.17 121.6 292.35 121.6 346.91 33.38 377.73 33.38 323.17 121.6"/><path class="cls-32" d="M466.48,65.34c0,1.53-2,2.78-4.55,2.78s-4.54-1.25-4.54-2.78,2-2.79,4.54-2.79S466.48,63.8,466.48,65.34Z"/><path class="cls-32" d="M430.84,75.21a41.59,41.59,0,0,0,8.65-11.8s27.3-19.86,23.09-25.52c0,0-2.05-2.78-10.09,3.16S436.2,55.76,428.06,67.29c0,0-12.91,11.82-29.55,11.82S384.3,63.82,387.74,58.59s14.11-19.85,31.08-19.85,15.69,10.53,5.52,21.83-22.14,11.05-24.3,6a8.84,8.84,0,0,0,3.39-.58c1.51-.66,3.66-2.17,3.17-4.15s-3.31-2.59-6-2-4.91,2.35-4,6.22,5.69,6,9.53,6,13-2.44,20.87-10.25S434.29,47,434.29,47c0-6.77-6.89-10.46-15.12-10.46s-27.51,5.15-36.66,19,.34,25.52,17.6,25.52c13.79,0,22.15-6.91,22.15-6.91s-1.44,6.09-13.5,11a235.73,235.73,0,0,0-28.54-2c-9.9,0-12.84,2.75-12.84,4.25,0,2,4.89,4.49,12.84,4.25a114.09,114.09,0,0,0,21.25-2.34s22.52,3.49,28.9,3.49c6.82,0,14.15-1,14.21-3.1.05-1.48-3.63-.14-8.65-.49,0,0-3.4.49-21.66-2.85l.48-1.31s7.06-1.23,16.09-9.88Zm19.27-29h0c2.23-2.32,8.77-7.35,10.2-5.88,1.18,1.2-3.75,6.19-6.52,8.72s-10.06,6.6-10.49,6.09,4.58-6.61,6.81-8.93ZM382.18,89.62h0c-3.19.36-11.44,0-11.6-2-.13-1.68,6.85-2.36,10.6-2.53s11.94,1.35,11.95,2S385.38,89.27,382.18,89.62Z"/><path class="cls-32" d="M542.49,77.53c-1.45,0-4.76,3.1-9.26,6.9-3.47,2.94-8.12,5-11.38,5-6.69,0,.22-8.83.22-8.83,18.08.94,26.08-11.69,13.81-11.69A24.52,24.52,0,0,0,515.69,79c-3.44,4.6-11.69,10.86-14.39,10.86s1.41-4.63,1.41-4.63l25-33.32A7.21,7.21,0,0,1,523.55,53a7.1,7.1,0,0,1-4.12-1.07h0S505,71.07,499,79.07c-3.46,4.58-11.67,10.81-14.36,10.81s1.41-4.63,1.41-4.63l10.45-14h4.17l1.82-2.42h-4.18l6.36-8.48a7.14,7.14,0,0,1-4.14,1.08,7.05,7.05,0,0,1-4.15-1.1h0L490,68.87H481.7l6.36-8.5h0a8.41,8.41,0,0,1-8.28,0h0l-6.36,8.48h-4.16l-1.81,2.42h4.16l-5.91,7.88c-3.5,4.58-11.6,10.71-14.27,10.71s1.41-4.63,1.41-4.63L465,68.89a8.41,8.41,0,0,1-8.28,0h0L446.59,82.41c-1.5,2-4.71,9.28,3.65,9.28,0,0,4.4.68,11.09-5.11l.15-.12c-.48,2.55.33,5.23,5.41,5.23,0,0,4.39.68,11.08-5.11l.15-.12c-.48,2.55.33,5.23,5.41,5.23,0,0,4.39.68,11.08-5.11l.15-.12c-.48,2.55.33,5.23,5.41,5.23,0,0,4.39.68,11.08-5.11l2.1-1.68c-.33,2.83.7,6.66,8.4,6.66,12,0,19.68-10.49,20.83-12.32s-.09-1.71-.09-1.71Zm-12.85-3.69h0c1.67-1.11,6.34-3.3,7-2.21.56.89-3.12,3.28-5.15,4.44s-7,2.68-7.22,2.31S528,75,529.64,73.84Zm-47.33,5.31h0c-3.5,4.58-11.62,10.73-14.29,10.73s1.41-4.63,1.41-4.63l10.45-14h8.32Z"/><path class="cls-32" d="M637.58,34.22c-1.14-3.17-12,3.49-15.09,5.32,0,0-33.65,5-36,17.68-1.73,9.31,7.89,11.65,7.89,11.65s-12.77,21.55-31,21.55c0,0-12,0-12.59-3.61a8.52,8.52,0,0,0,4.56-1.19c1.81-1.29,2-2.15,2-3.22s-1.66-3.14-5.71-2.36-4.49,3.45-4.49,4.95.88,7.84,14.68,7.84,28.29-5,40.88-24a20.74,20.74,0,0,0,11-3.55c5.61-3.71,7.9-6.59,7.9-9.4s-3.22-2.23-3.22-.12-4.11,8.77-13.44,10.12c0,0,.74-7.5,19.4-24.6,0,0,14.4-3.94,13.27-7.1Zm-41,31.7h0s-5.42.48-5.42-5.55c0,0-.06-11,25.46-16.85C616.58,43.52,602.38,55.54,596.54,65.92Z"/><path class="cls-32" d="M711.78,78.35c-1.42-.94-2.48.67-2.48.67-3.44,4.6-11.69,10.86-14.39,10.86s1.41-4.63,1.41-4.63l12.26-16.38h0a8.4,8.4,0,0,1-8.31,0l-7.62,10.18-.07,0c-3.44,4.6-11.69,10.86-14.39,10.86s1.41-4.63,1.41-4.63L691.74,69a7.43,7.43,0,0,1-4,1,7,7,0,0,1-4.16-1.11h0l-7.85,10.48c-3.57,4.56-11.5,10.53-14.13,10.53s1.41-4.63,1.41-4.63L687.85,52a7.42,7.42,0,0,1-4,1,7,7,0,0,1-4.18-1.11h0L659.07,79.29c-3.56,4.56-11.52,10.57-14.16,10.57s1.41-4.63,1.41-4.63L658.54,68.9a7.13,7.13,0,0,1-4.09,1,7,7,0,0,1-4.15-1.1h0l-.76,1c-.51-1.22-5-1-5-1-11,0-18.85,9.46-21.28,12.19s-4,4.58-4.09,4.66c-3,2.38-6.08,4.18-7.52,4.18-2.7,0,1.41-4.63,1.41-4.63l10.42-14h3.73L629,68.87h-3.74l6.33-8.47h0a8.47,8.47,0,0,1-8.24,0h0s-2.93,3.93-6.34,8.47h-3.71l-1.81,2.42h3.71l-8.32,11.12c-1.5,2-4.71,9.28,3.66,9.28,0,0,4.4.68,11.08-5.11l1.72-1.38c0,2.55,1,6.51,7,6.51a14.16,14.16,0,0,0,8.1-2.91c.43,1.61,1.89,2.87,5.37,2.87,0,0,4.39.68,11.08-5.11l.13-.11c-.48,2.56.33,5.24,5.41,5.24,0,0,4.39.68,11.08-5.11l.14-.12c-.47,2.55.34,5.23,5.41,5.23,0,0,4.17.79,10.85-5l-3.29,4.83a106.8,106.8,0,0,0-16.88,7c-7.82,4.2-11.53,7.55-11.13,12.21s9.54,3.68,15.3.79,16.49-11.62,20.73-19.83l0,0a11.08,11.08,0,0,0,1.2.07s4.4.68,11.08-5.11L711.78,81a1.62,1.62,0,0,0,0-2.68ZM629.24,88.69h0c-1.27-.82-1.08-4,5.86-10.73s11.72-6.72,12.12-6.06c1.43,2.36-13.94,19.4-18,16.79Zm31.15,21.39h0c0-7.14,22.45-15.07,22.45-15.07C673.68,111,660.39,114.66,660.39,110.08Z"/><path class="cls-32" d="M445,121.14l-2,0h-.51l-2,0v0c.7-.1,1.11-.63,1.23-1.6v-.09a1.57,1.57,0,0,0,0-.34l0-10.43h0v0a2.63,2.63,0,0,0-.33-1.43,1.27,1.27,0,0,0-.92-.6v0l5.7,0a5.79,5.79,0,0,1,3,.77,2.86,2.86,0,0,1,1.34,2.58q0,2.27-2.82,3.88a1.43,1.43,0,0,1-.24.16l-.31.13-.3.1-.2.07-.41.09c-.19,0-.52.06-1,.09a6.74,6.74,0,0,0-1.55.09l.07,4.59a2.62,2.62,0,0,0,.33,1.42,1.3,1.3,0,0,0,.92.61v0ZM448.3,110v0a3.62,3.62,0,0,0-.2-1.24,1.31,1.31,0,0,0-.53-.72v0a3.38,3.38,0,0,0-2.35-.67c-.86,0-1.33.13-1.39.39a1.4,1.4,0,0,0,0,.23l-.07,5.57h.91a5.79,5.79,0,0,0,1.37-.16h0s0,0,0,0a2.69,2.69,0,0,0,1.35-.79,3.59,3.59,0,0,0,.89-2.45Z"/><path class="cls-32" d="M459.39,106.36a1.83,1.83,0,0,0-1,.37,3.56,3.56,0,0,0-.73.84V119a1.66,1.66,0,0,0,.35,1.07,2.1,2.1,0,0,0,.57.58,2,2,0,0,0,.79.33s0,.06,0,.07a1.2,1.2,0,0,1-.57,0,42,42,0,0,0-4.54,0,.67.67,0,0,1-.46-.09,2.15,2.15,0,0,0,1.31-.56,1.67,1.67,0,0,0,.58-1.15V108.27a1.71,1.71,0,0,0-.18-.8,2.4,2.4,0,0,0-.49-.78.9.9,0,0,0-.67-.33q.18,0,2.58-.06A16.18,16.18,0,0,1,459.39,106.36Z"/><path class="cls-32" d="M475.63,121.09v0h-4c-.66,0-1.33,0-2,0q-2.19,0-3.63,0h-2.85a.16.16,0,0,1-.07-.07c-.09-.18,0-.41.16-.69q5-6.94,8.42-12.41a.61.61,0,0,0,.13-.27c0-.12-.35-.18-1-.18H468a5.4,5.4,0,0,0-3.06.64,8.21,8.21,0,0,0-1.74,2h-.09c0-1,0-2.22,0-3.63h3.72l2.55,0,2.74,0h2.65a.15.15,0,0,1,.06,0q.09.21-.18.6-4.65,6.36-8.26,12.09a1,1,0,0,0-.18.43c0,.18.23.29.64.32,1,.08,2.27.12,3.83.12a6.6,6.6,0,0,0,3.2-.53,3.17,3.17,0,0,0,1.44-1.41,9,9,0,0,1,.45-.89Z"/><path class="cls-32" d="M491.21,121.09v0h-4c-.66,0-1.33,0-2,0q-2.19,0-3.63,0h-2.85a.23.23,0,0,1-.07-.07c-.09-.18,0-.41.16-.69q5-6.94,8.42-12.41a.67.67,0,0,0,.14-.27c0-.12-.36-.18-1-.18h-2.71a5.4,5.4,0,0,0-3.06.64,8,8,0,0,0-1.73,2h-.1c0-1,0-2.22,0-3.63h3.72l2.55,0,2.74,0h2.65l.06,0c.07.14,0,.34-.18.6q-4.65,6.36-8.26,12.09a1,1,0,0,0-.18.43c0,.18.23.29.64.32,1,.08,2.27.12,3.83.12a6.6,6.6,0,0,0,3.2-.53,3.17,3.17,0,0,0,1.44-1.41,9,9,0,0,1,.45-.89Z"/><path class="cls-32" d="M493.75,121.12H491l0,0a1.2,1.2,0,0,0,.82-.51c.2-.28.41-.57.64-.85a22.06,22.06,0,0,0,1.56-3.07q1.23-2.67,1.86-4.14,1.67-4.09,2.88-7.3,3.06,7.27,6,13.87a3.78,3.78,0,0,0,.87,1.41,2.1,2.1,0,0,0,1.14.59v0l-3.53,0q-1-2.58-1.56-4h-6.5l-1.43,4Zm7.48-5.05c-.05-.1-1-2.38-2.81-6.82l-2.9,7h5.8Z"/><path class="cls-32" d="M515,115.07a3.61,3.61,0,0,1,1.07,2.33,3.18,3.18,0,0,1-.06.94,2.78,2.78,0,0,1-.42,1,5.66,5.66,0,0,1-.75,1,2.1,2.1,0,0,1-.76.57,6.47,6.47,0,0,1-3.6.57c-1.79-.15-3-.51-3.51-1.07v-2.92l.09.11a6.77,6.77,0,0,0,1.75,2.15,4.18,4.18,0,0,0,2.17.77c1.54.14,2.53-.22,3-1.07a1.9,1.9,0,0,1,.11-.27,2.47,2.47,0,0,0,.16-.85,2.33,2.33,0,0,0-.59-1.71,15.07,15.07,0,0,0-2.62-2,20.53,20.53,0,0,1-3.33-2.5,3.42,3.42,0,0,1-.85-2.56,3.24,3.24,0,0,1,1.45-2.52,5,5,0,0,1,3.39-.81,9,9,0,0,1,2.55.59c.7.29,1,.55,1,.78s0,1,0,2.58c.09.15-.06-.07-.44-.67a6.58,6.58,0,0,0-1.43-1.55,3.73,3.73,0,0,0-2.1-.7,2.91,2.91,0,0,0-1.88.38,1.84,1.84,0,0,0-.79,1.49,2.33,2.33,0,0,0,.6,1.68,10.18,10.18,0,0,0,2.25,1.72A17,17,0,0,1,515,115.07Z"/><path class="cls-32" d="M557.09,121.14l-2,0h-.5l-2,0v0c.7-.1,1.11-.63,1.23-1.6v-.09a1.46,1.46,0,0,0,0-.34l0-10.43h0v0a2.54,2.54,0,0,0-.34-1.43,1.27,1.27,0,0,0-.92-.6v0l5.7,0a5.79,5.79,0,0,1,3,.77,2.87,2.87,0,0,1,1.35,2.58c0,1.51-.95,2.8-2.83,3.88a.91.91,0,0,1-.24.16l-.31.13-.3.1-.2.07a3,3,0,0,1-.41.09c-.19,0-.52.06-1,.09a6.74,6.74,0,0,0-1.55.09l.07,4.59a2.62,2.62,0,0,0,.33,1.42,1.3,1.3,0,0,0,.92.61v0ZM560.35,110v0a3.4,3.4,0,0,0-.2-1.24,1.31,1.31,0,0,0-.53-.72v0a3.38,3.38,0,0,0-2.35-.67c-.86,0-1.33.13-1.39.39a1.4,1.4,0,0,0,0,.23l-.07,5.57h.91a5.72,5.72,0,0,0,1.37-.16h0s0,0,0,0a2.69,2.69,0,0,0,1.35-.79,3.59,3.59,0,0,0,.89-2.45Z"/><path class="cls-32" d="M565.72,121.12H563l0,0a1.2,1.2,0,0,0,.82-.51c.2-.28.41-.57.64-.85a22.06,22.06,0,0,0,1.56-3.07q1.23-2.67,1.86-4.14,1.66-4.09,2.88-7.3,3.06,7.27,6,13.87a3.78,3.78,0,0,0,.87,1.41,2.1,2.1,0,0,0,1.14.59v0l-3.53,0q-1-2.58-1.56-4h-6.5l-1.43,4Zm7.48-5.05c-.05-.1-1-2.38-2.81-6.82l-2.9,7h5.8Z"/><path class="cls-32" d="M587,115.07a3.61,3.61,0,0,1,1.07,2.33,3.18,3.18,0,0,1-.06.94,2.78,2.78,0,0,1-.42,1,5.66,5.66,0,0,1-.75,1,2.1,2.1,0,0,1-.76.57,6.47,6.47,0,0,1-3.6.57c-1.79-.15-3-.51-3.51-1.07v-2.92l.09.11a6.77,6.77,0,0,0,1.75,2.15,4.18,4.18,0,0,0,2.17.77c1.54.14,2.53-.22,3-1.07a1.9,1.9,0,0,1,.11-.27,2.47,2.47,0,0,0,.16-.85,2.33,2.33,0,0,0-.59-1.71,15.07,15.07,0,0,0-2.62-2,20.53,20.53,0,0,1-3.33-2.5,3.42,3.42,0,0,1-.85-2.56,3.24,3.24,0,0,1,1.45-2.52,5,5,0,0,1,3.39-.81,9,9,0,0,1,2.55.59c.7.29,1,.55,1,.78s0,1,0,2.58c.09.15-.06-.07-.44-.67a6.58,6.58,0,0,0-1.43-1.55,3.73,3.73,0,0,0-2.1-.7,2.91,2.91,0,0,0-1.88.38,1.84,1.84,0,0,0-.79,1.49,2.33,2.33,0,0,0,.6,1.68,10.18,10.18,0,0,0,2.25,1.72A17,17,0,0,1,587,115.07Z"/><path class="cls-32" d="M606,106.49c0,1.42,0,2.63,0,3.63h-.09a8.21,8.21,0,0,0-1.74-2,5.4,5.4,0,0,0-3.06-.64h-.86c-.28,0-.43.09-.46.18a.36.36,0,0,0,0,.19l0,11.22a1.66,1.66,0,0,0,.35,1.07,2.1,2.1,0,0,0,.57.58,2,2,0,0,0,.79.33s0,.06,0,.07a1.2,1.2,0,0,1-.57,0,42,42,0,0,0-4.54,0,.67.67,0,0,1-.46-.09,2.17,2.17,0,0,0,1.31-.56,1.67,1.67,0,0,0,.58-1.15l0-11.52a.36.36,0,0,0-.23-.35h-1.21a5.47,5.47,0,0,0-3,.64,8.41,8.41,0,0,0-1.74,2h-.09c0-1,0-2.21,0-3.62l6.27,0Z"/><path class="cls-32" d="M608.31,121.12h-2.76l0,0a1.2,1.2,0,0,0,.82-.51c.2-.28.41-.57.64-.85a22.06,22.06,0,0,0,1.56-3.07q1.23-2.67,1.86-4.14,1.67-4.09,2.88-7.3,3.06,7.27,6,13.87a3.78,3.78,0,0,0,.87,1.41,2.1,2.1,0,0,0,1.14.59v0l-3.53,0q-1-2.58-1.56-4h-6.5l-1.43,4Zm7.48-5.05c0-.1-1-2.38-2.81-6.82l-2.9,7h5.8Z"/><path class="cls-32" d="M629.57,115.07a3.61,3.61,0,0,1,1.07,2.33,3.18,3.18,0,0,1-.06.94,2.78,2.78,0,0,1-.42,1,5.66,5.66,0,0,1-.75,1,2.1,2.1,0,0,1-.76.57,6.47,6.47,0,0,1-3.6.57c-1.79-.15-3-.51-3.51-1.07v-2.92l.09.11a6.77,6.77,0,0,0,1.75,2.15,4.18,4.18,0,0,0,2.17.77c1.54.14,2.53-.22,3-1.07a1.9,1.9,0,0,1,.11-.27,2.47,2.47,0,0,0,.16-.85,2.33,2.33,0,0,0-.59-1.71,15.07,15.07,0,0,0-2.62-2,20.53,20.53,0,0,1-3.33-2.5,3.42,3.42,0,0,1-.85-2.56,3.24,3.24,0,0,1,1.45-2.52,5,5,0,0,1,3.39-.81,9,9,0,0,1,2.55.59q1.05.43,1,.78c0,.14,0,1,0,2.58.09.15-.06-.07-.44-.67A6.58,6.58,0,0,0,628,108a3.73,3.73,0,0,0-2.1-.7,2.91,2.91,0,0,0-1.88.38,1.84,1.84,0,0,0-.79,1.49,2.33,2.33,0,0,0,.6,1.68,10.18,10.18,0,0,0,2.25,1.72A17,17,0,0,1,629.57,115.07Z"/><path class="cls-32" d="M537.29,111.38H542v.43a2.76,2.76,0,0,0-1.43.42,8.21,8.21,0,0,0-1.44,2.12,25.19,25.19,0,0,1-2.21,3.29,7.76,7.76,0,0,0,1.77,1.62,3,3,0,0,0,1.57.47,2.09,2.09,0,0,0,1.3-.42,2.25,2.25,0,0,0,.76-1.24l.41.31a4.31,4.31,0,0,1-1.33,2.33,3.21,3.21,0,0,1-2.12.75,3.93,3.93,0,0,1-1.85-.5,8.42,8.42,0,0,1-2.06-1.69,9.75,9.75,0,0,1-2.49,1.71,5.91,5.91,0,0,1-2.37.48,4.21,4.21,0,0,1-2.92-1,3.08,3.08,0,0,1-1.08-2.35,4.56,4.56,0,0,1,1-2.69,10.71,10.71,0,0,1,3.66-2.78,12.74,12.74,0,0,1-.72-1.9,5.61,5.61,0,0,1-.19-1.42,3.37,3.37,0,0,1,1.4-2.91,4.19,4.19,0,0,1,2.49-.78,3,3,0,0,1,2.16.78,2.55,2.55,0,0,1,.84,1.93,3,3,0,0,1-.81,2.07,10.18,10.18,0,0,1-2.86,1.95,44.22,44.22,0,0,0,3,4.62c1.3-1.56,2-2.87,2-3.93a1.4,1.4,0,0,0-.33-.91,1.05,1.05,0,0,0-.71-.35v-.43Zm-4.25.28a5.69,5.69,0,0,0,2.06-1.49,2.82,2.82,0,0,0,.69-1.85,1.82,1.82,0,0,0-.5-1.33,1.62,1.62,0,0,0-1.22-.52,1.68,1.68,0,0,0-1.46.67,2.23,2.23,0,0,0-.49,1.32,4.8,4.8,0,0,0,.18,1.22,18.61,18.61,0,0,0,.74,2Zm1.72,7c-1-1.33-1.65-2.31-2-2.93s-.79-1.38-1.24-2.29a6.25,6.25,0,0,0-2,1.7,3.3,3.3,0,0,0-.68,2,3.16,3.16,0,0,0,.76,2.1,2.61,2.61,0,0,0,2.08.9,3.3,3.3,0,0,0,1.35-.28A8.29,8.29,0,0,0,534.76,118.62Z"/></g></svg>