<svg version="1.1" id="Capa_1" xmlns="http://www.w3.org/2000/svg" x="0" y="0" viewBox="0 0 657.1 236.7" xml:space="preserve"><style>.st0{fill:#fff}</style><path class="st0" d="M41.2 107.2c.3.1.3-.5.4-.6-.5 0-.4.8-.4.6zM35.9 105.7l.2-.1c-.4 0-.7-.1-1-.2.2.1.5.2.8.3zM32.8 101c-.4.4-.1.9.3 1.4.4.5.9.9 1 1.4l-.1.3c.3 0 .6-.1.9-.1-.9-.8-2.1-2.1-2.1-3zM34.1 97.7c-.2.1-.3 0-.3 0s.1.1.3.6c0-.1 0-.1.1-.1 0-.1-.1-.2-.1-.5zM34.2 98.2c.1.5.2-.4 0 0zM33.7 95.9l.4.6c.2-.2.3-.7.5-.5-.3-.6-.5-.5-.9-.1zM33 95.2c0 .1.1.2.1.4.1-.1.1-.1-.1-.4zM33.4 96.4l-.3-.8c-.2.1-.5.1.1.4-.3-.1 0 .1.2.4zM33.3 96.8c-.2.4-.2 1-.7.3.3 1.4 1 1 .7-.3zM31.7 101.1v.7l.5.4c-.3-.2-.3-1.2-.5-1.1zM35 92.2c-.2-.1-.6 0-.9-.1l.1.5c.1-.1.2-.2.4-.3.1-.1.2-.1.4-.1zM34.1 92.1v-.8c-.4.6-.3.8 0 .8zM31.9 95c.2.5.5.9.8 1.4-.3-.5-.6-1.1-.7-1.6l-.1.2zM36.4 90l.2.6c-.1-.3-.1-.7-.2-1v.4zM37.5 88.6c.1.5.8.3.7.6.2-.2.2-.4.3-.7.1-.2.1-.5.2-.7-.1.2-.3.3-.5.5-.1.1-.3.2-.7.3zM39.1 87.1c-.1.2-.2.5-.3.8.1-.2.2-.5.3-.8zM34.8 90.2c.2 0 .5.1.8-.1-.2 0-.5-.1-.7-.1 0 0 0 .1-.1.2zM34.9 89.9c.2-.3.4-.4.5-.5-.1.1-.2.3-.5.5z"/><path class="st0" d="M34.8 90.3c0-.1 0-.1 0 0-.1-.1-.1-.1 0 0zM32.7 93c-.2-.5-.2-1.7-1-.8.3.4.8 0 1 .8zM33.9 90.2c-.2.2-.4.5-.5.7.2.1.4 0 .5.3-.1-.3-.1-.7 0-1zM34 89.7l-.1.5.2-.2zM37.6 87.5c.1-.4.5-.7.8-1-.5.2-1 .4-1.3.8 0 .1.1.5.5.2zM36.2 88.5c-.1 0-.1 0 0 0zM42.5 84.5zM36.9 87.2c-.4.2-.4.4-.5.7.2-.2.4-.4.5-.7.1-.1.1-.1 0 0zM40 86.2h-.7c.2.1.7.2.7 0zM36.4 88.5c.2.1.1 0 0 0zM36.4 88.5c.1-.2 0-.4.1-.6l-.3.6h.2zM43.1 80.4c0 .3-.2.6-.6.8-.4.2-.9.4-1.5.2-.8.8.5 2.2 1.5 3 0-.2-.1-.5.7-1-.4-.2-2.2-.1-1.6-.8 1.2-.6 1.1-.1 1.8 0-.7-.6 1.4-1.3 1-2.3l-1.2.6c-.1-.1.3-.5-.1-.5zM40.8 84.9c-.1.1-.2.1-.3.2.4-.1.8 0 1.4.3.4-.5.5-.7.5-.9-.6.1-1.1.4-1.6.4z"/><path class="st0" d="M39.1 85.9c-.1-.7.6-1.3-.2-1.7-1 .6-.4.9-.9 1.4 1.5-1-.2.6 1.1.3-.3.2-.5.4-.7.6.3-.1.6-.2.9-.2h-.1c-.1 0-.1-.1-.1-.1v-.3c.5-.1.1.1.1.2v.1c.4-.4.9-.7 1.3-1.1-.3.2-.7.3-1.4.8zM30.8 90.7h.2c0-.1 0-.2-.2 0z"/><path class="st0" d="M31.5 90.1c0 .2.2.4-.1.8-.3.3-.3-.1-.5-.2 0 .3.1 1.1.6.4v-.2c.3-.3.7-.6 1-.8.3-.2.6-.2.6-.2-.4 0-.9 0-1.6.2zM35 87.2c.3-.5.6-.8.9-1.3l-1 .1.2.2c-.6.6-.2.7-.1 1zM42.8 84.8v.7c.2-.4.3-.7.5-1.1-.2.1-.3.2-.5.4zM44.5 84.3v.6c.1-.2.3-.3.4-.4-.1-.1-.2-.2-.4-.2zM4.8 97.5l-.2-.5c.1.2.2.3.2.5zM5.2 101.4l.3.1c-.2-.2-.3-.2-.3-.1zM56.9 117.3c-.8.1-1.9 0-1.4.4l.6.3c.2-.4.5-.6.8-.7zM25 124.8c0 .1.1.2.1.3.3-.1.5-.2.7-.3H25zM23.3 126.8l-.7-.9c.2.2.4.5.7.9zM8.7 76.2l-.3-.9c-.4.9.1.7.3.9zM60.4 92c.1.6.2 1 .3 1.4.1-.8.2-1.5-.3-1.4zM11.5 98.5c-.2-.3-.3-.4-.4-.4.1.3.2.4.4.4zM61.4 94.8v-.3c-.2-.3-.5-.6-.7-1.1 0 .5.1 1.1.7 1.4zM15.9 35.9h-.1c0 .1 0 0 .1 0zM19.4 49.6c-.3.1-.7.2-1.1.3.2 0 .5 0 1.1-.3zM51.5 85.2c-.4-.1-.1 0 0 0zM50.3 82.3c.1 0 .2-.1.2-.3 0 .2-.1.2-.2.3zM66.4 97.8c.1-.2.1-.1 0 0zM51 84.7c.1.1.2.2.4.3 0 0-.1-.1-.4-.3zM51 85c-.1-.1-.2-.1-.3-.2 0 .1 0 .2.3.2zM52 85.3l-.6-.3c.1.1.1.1 0 .1.2.1.3.1.6.2zM31.8 51c0-.5 0-.3 0 0zM50.5 129.4c.1-.1.1-.1 0 0 .1-.1 0-.1 0 0zM48.9 130.5c.5-1 1-1.1 1.6-1.1-.4-.5-.8-1-1.2-1.4-.1.7-.2 1.6-.4 2.5z"/><path class="st0" d="M5.3 87.9l-.8 1.2c-.6-1.7-.1-2.8-1.1-1.7 1 .3.7 1.5.6 2.8-.1.6-.1 1.3 0 1.8s.3.9.8.9l-.4.8c0-.2-.1-.3 0-.5-1 1.7 1.3 1.3 1.1 3.4-.1.7-.4 1.3-.6.8.1.6.3 1.2.5 1.7 0 .5-.3.4-.3-.1.1.8.2 1.7.5 2.5h-.1c.4.3 1 1 1.2 1.4-.2.7-.3-.3-.5-.1.2.4.5.8.8 1.3-.3.7-1.1-.3-1.2-1.3-.9.8-.6 1.1-.3 1.5.4.4.7 1 .7 2.5l-.6-1.2c-.9 1.2-.1 2.1-.3 3.8.2-.5.7-3.5 1.6-2.2 0 .5.1 1 .8 1.7-.6.3-.2 1 .3 1.9l-1 .3c.7 1 1.1.6 1.8 1 .5 1.1 0 1.7-.4 2.3.9 1.8.2-1.7 1.6.2.3.8.7 1.4 1.2 1.9s1.2 1 2 1.6c.5 1.1-.6.2-.5.7l1.2.3c.1.2-.1.3-.2.3.8.5.7-.5 1.8.3.5-.2.7.5 1 1.3.2.4.4.9.7 1.2s.7.6 1.2.6c.1.5-.5.3-.6.6 1.1.4 1.6.6 2 .8.4.1.9.2 1.9.3.3.5.6.9 1 1.3-.6-1.2 1.1-1.1 2.4-1.1-.2-.5-.3-.9-.4-1.1l.9.3.9.2c.1.2-.2.4-.6.6h.4c.4.6-.1.9-.8 1.1-.1-.3-.2-.5-.4-.8-.7.3-1.4.5-1.6 1 .2 0 .4 0 .7.1-.2.1-.3.1-.3.2s.3.1.7 0l-.1 1.1.3-.3c.7.6 1.4 1.2 2.2 1.7 1.1-.1 2.1-.3 3.3-.6.6-.1 1.1-.2 1.8-.2.6-.1 1.3-.1 2-.1-.8.6-.4 1.2-.6 2-.3-.5-.9-.6-1.6-.5-.7 0-1.5 0-2.3-.3.8.3.5.7.2.8 1 0 2 0 3-.1-.2.7.5.7 1.1 1.1-.3-1.5 2.3-.6 3.4-.9 0 .5-.3 1-1.7.7.7.6 1.3.3 1.8-.1s1-.9 1.8-.4c-.3 0-.5-.1-.7.2.4-.2 1.1-.2 1.6-.1s.9.2.7.4h-.3c.6 0 1.3 0 2.1-.1s1.6-.3 2.3-.5c1.4-.5 2.5-1.2 2.5-1.8.1.1.1 1.5.1 1.7.5-.8.9-1.7 1.3-2.6.4-.9.7-1.7 1-2.6.1.5.6 1.2 1 2 .4.7.6 1.5-.2 2.1.6 0 1.3-.2 2.2-1.1-.4 0-1.5-.9-1.1-1.2.9.2 1.2.3 1.5.2.3 0 .6-.1 1.6-.1-.6.1-.9-1.6-.2-2 0 .3.9 1.3.8 1.6.4-.8.6-1.7.9-2.5-.3.5.7 1.2 1.4 1.2-.2-.1.2-.3.7-.7s1-.8 1.2-1l-1.1.8c2.1-1.5.3-3.3 1.9-4.8.1.4 1.1 1.9 2 1.1-.1-.5-.5-1.6-.8-2.8s-.6-2.5-.3-3.4l.6-.1.2-1.5c.3.7.8 1.9 1 3.2s.4 2.8.2 3.7c.9-.5.6.2 1.4-1 .6-.2.1 1.1-.1 1.4.8-.8 1.4-1.8 2.2-2.6-.9-.4.4-2.7-.4-3-.3 1.2-.5 2.4-.9 3.6-.4-.2-.7-1-.7-1.9-.1-1 .1-2.1.6-3 .6-.4 1.4 1.1 1.7 1.2-.2-.4.3-2.3.6-2.4l.1 1.1c.4-.5.4-1.1.3-1.8-.1-.6-.1-1.2.6-1.8.2-.5 1.6-1.3 1-1.5-1.2.7-4.5 0-5.3-.7.1-.1.4-.6.9-1.2s.8-1.3 1.2-1.5c.5-.4.9 0 1.4.4s.9.8 1.3.5c-.3-.1-.5-.6-.6-.8.3-.5.8.3.8-.9-.9-.2 0-2.5-.8-.6-.3-1.2.2-1.2.1-2.6-.3.2-.8 0-1.4-.4-.5-.4-1.1-1-1.3-1.5.3 0 .5-.3.6-.4-.4-2.2-.4-3.5-1.3-5.4.1-.3-.1-1.3.5-1.1-.3-.2-.7-.3-1.1-.9 0-.8.2-.5.5-.1.3.3.5.7.7 0-.5.2-1.6-1.2-2.4-1.7-.5.7 1.1 1.9 1.8 2.6-1.1.5-2.9-.3-4.5-1.5-1.2-1 .2-1-.1-1.1-.9-1.2-1.8-1.3-2.5-1.4s-1.3-.1-2-1.1c-.4-1.2.8-1.3 1-1.8 1.3.6 1.4 1.7 2.1 2.3l-.6-1c.5.1 1.3.6 1.5 1.1-.1-.6-1-1.5-2.3-2.5-1.3-.9-2.8-1.8-3.9-2.6-.5.1-1.3.1-1.1.5.3.1.5.1.8.2.2.4-.2.5-.6.5-.4.1-.7.1-.3.4-1.1.1-2.2.4-3.4-.1l-.1-.9c0 .3.8.6 1.2.5-.3.1-.8-.2-1.3-.5s-1.1-.4-1.4.2l.9.7c-1 .4-2.1 1.3-3.2 1.1.6.8.3-.2 1.1.8-.4-.6.3-.6 1-.6.6 0 1.2.1.7-.6.4.6.7.8 1 .9.2.1.3.1.5.3.2.1.4.3.5.6 0-.3-.2-.6.6-.3.1-.1.2-.1.3-.2h.1s.1 0 0 0c-.2-.2-.3-.4-.3-.5.6-.6 2.1 0 2.7-.1.5.4-.4.2-.2.6.3 0 .6-.1.9-.1-.2.6.8 1.6-.5 1.4.3.2.7.4 1 .6.2.3.4.7.7.9.3.3.6.5.9.5.3.4 1.5.4.8.4.5.3 1 .7 1.6 1l-.1.1c.3.4.6.7 1 1 .3.3.7.7 1 1.1.6.8 1.2 1.7 1.1 2.9.2.2.4.5.6.8.2.3.3.7.4 1.2l-.5.4c.2.3.2.9.2 1.5 0 .5.1 1 .4 1.1-.7.5-.6 1.4-.6 2.3.2.9.2 2 .1 2.6l.7.1c0 .5-.1.9-.1 1.4v1.7l.6.1c.1.6-.2 1.2-.6 1.9-.5.6-.9 1.4-1.3 2.1-.2-.2.1-.5.3-.8-.5.3-.9.7-1.1 1.2-.2.5-.3 1-.5 1.5s-.3 1-.5 1.5-.6.8-1.1 1c-.1.5-.4.7-.7.9 0 0 0-.1.1-.1l-.1.1c-.2.1-.5.1-.7.2.2 0 .5-.1.6-.2-.2.3-.5.7-.8 1.2l-.6-.3s0 .1-.1.1c-.5.2-.1.5.5.7-.1.3-.2.5-.2.8-1.1-.6-.8 1.3-2 .7.1.7-1.9 1.9-1.5 3.1-.1-.1-.3-.1 0-.3-.6.2-1.2.4-1.5 1l-.6-.7c-.2.5-.4 1.1-.7 1.6-1-.1-1.4-.3-.9-1.2-.7.8-1 1-1.3 1.3-.3.2-.5.5-1.2 1.1l-.1-.6c-.5.2-1.3 1.2-1.8.8-.8-.4-2.3-.1-4.2-.1-.9 0-1.9-.1-2.9-.2-1-.2-1.9-.4-2.6-.9.3 1.8-1.3-1.1-1.8.2-.1-.4-.5-.8.1-.9-.8-.1-1.4-.4-1.9-.6-.5-.2-1-.4-1.7-.2 0-.4.6-.4.5-.7-.2 0-.6.1-.7-.2s.4-.2.7-.3c-.8-.3-1.3-.2-1.8.1-.4.3-.8.8-1.1 1.2-.6-.9-1-1-1.9-.7-.1-.5-.3-1.1.7-.6-.2-.2-1-.8-1.7-1.3s-1.4-.9-1.7-.6c0-.3-.7-.6-.8-.6-1-1-1.1-1.1-2.2-2l.2.4c-1.1.4-1-.6-1.9-1.4l.1-.1c-1.1-2.5-1.1-.6-1.9-3.2l-.5.5c-.7.3-.9-.2-1-1.1-.1-.8-.2-1.7-.8-2.3 0 .2-.1.4-.1.7-.4-.2-.2-1 0-1.8.3-.8.6-1.5.6-1.9.1-.2.3.2.5.3 0-2.2-.9.1-1.7-1.2.3-.4 1.3-.1 1-1.1.1-.3-.5-.8-1.1-1.6-.6-.7-1-1.6-.7-2.4-.3.4-.6.8-1 .1-.2-.5.1-1.3.2-2.1.1-.7.2-1.5-.5-1.9-.8-.3-.7-.4-.6-.4-.2-.4-.4-1.1-.5-1.7-.2-.6-.4-1.3-.7-1.5 1.2-.4.9-1.7.8-2.9-.1-.6-.2-1.2-.1-1.7.1-.4.3-.7.9-.6.1-.9.2-1.7.4-2.6l.2.1c.5-1.6.2-2.3-.1-3 .3-.3.4 0 .5.1.6-1.1.9-1.7 1-2.3s.1-1.3 0-2.4l.7.1c-.1-.3.5-1 1.3-1.9.7-.9 1.6-1.9 1.9-3.1.1.1.1.2.1.4.4-1.3 1.8-2.4 2.9-3.2 1.1-.9 2-1.7 1.4-3l.8-1.8c-1.8 1.6-.5-1-1.5-.6.6-.8 2.3-1.2 1.6-.3l-.5-.1c.6 1.3 2.5-1.8 3.1-1.1 3.4-3.4 7.4-6.3 10.2-10.7l-1.2-.1.9-1.4c.4-.3 1-.1.4.9.4-.1.6-.7.6-1.2s-.1-1-.2-1c.4-.5.6-.7.7-.7.1 0 .2.2.2.5 0 .5-.1 1.2.1.9.1-.3.3-.7.4-1l-.2.2c-.1-1-.5-1.2.1-2.6.4-.9.7-.3.9-.7.1 0 .1-.1.2-.6.2-.8.3-1.6.4-2.4l-.9.9c-.1-.5-.1-1.1-.1-1.3-.1-.3-.2-.3-.7.2.4-.3.6-1.1.7-1.9.1-.4 0-.9 0-1.5 0-.5-.1-1.1-.3-1.6-.3-1-.7-2-1.1-2.7-.4-.7-.7-1.3-.7-1.5-1.3-.8-2.1-1.9-3.4-3 .2.4-.2 1.2-1.2.3.8-.6.4-1.2-.3-1.8-.3-.3-.7-.6-1.1-1-.4-.3-.6-.7-.8-1.2.3.6-.7.2-1.7-.1-1-.2-1.9-.3-1.3.5-1.1-.5.2-.7-.7-1.4-1.6 0-3.2-.3-5-.4-1.8 0-3.9.2-5.6 1.3.1.2.8.3.3 1-.8-.1-1.6 0-2.4.1-.6.6.4 1.5-1.2 1.9.3 0 .7 0 .4.4-1.7 1.3-3 3.2-3.6 5.4-.3 1.1-.4 2.3-.3 3.5s.5 2.4 1 3.5c.8 1.7 2.4 3.1 4 3.9 1.6.9 3.3 1.4 5.3 1.7-.6-.2-.7-.3-.6-.4.2-.1.6-.1 1-.2-.6 0-.1-.6-.2-.9 1.1.2 2.3.1 3.6-.2 0-.3.3-.6.6-.9l1-1c.3-.4.6-.8.7-1.1.1-.4.1-.7 0-.9-.1.4-.2.8-.4 1.1 0-.9-.8-.7-1.6-.7-.4 0-.8 0-1.2-.1-.4-.1-.6-.3-.8-.6.1.4-.2.5-.5.6-.3 0-.7 0-1.1-.1-.8-.2-1.4-.4-2.2.4-.3-.3.3-.4.2-.7-.4.5-1 .6-1.7.1l.1-.1c-1.2-.4-1.7-1.1-1.8-1.9-.1-.7-.1-1.4.1-2.4-.2 0-.4.1-.7.1.1-.5.4-.6.6-.8-.4-.4-.5 0-.6.4s-.1.8-.7.5c.7-.4.8-1.3 1.2-2.3s1.1-1.8 1.9-1.5c.6-.7-.8-.3-.2-1l.5.1-.2-.5c.5-.4 1.1-.2 1.3.1-.1.1-.2.3-.3.4.4-.1.8-.4 1.1-.7.3-.3.6-.6.7-.6-.3.1-.6.1-.8.2.2-.2.5-.4.7-.5.1-.1.4-.3.7-.4.3-.1.6-.2 1-.3.3 0 .7-.1 1-.2 1.4-.1 2.8 0 4.2 0l-.1-.4c1.1 0 1.5.3 1.8.6.4.3.7.7 1.7 1.1H28c.5 0 1.2.2 1.6.7-.7-.1.3 1.2-.5 1.1 1 .5 1.2.7 1.5.6.3 0 .5-.1 1.5.2l-.2.6c.7.2.9.1 1.6 1.1-.4-.4-.5-.1-.6.2s-.3.5-.8.2c0 1.3.4 1.9.8 2.5.2.3.3.6.3.9s-.2.6-.6.9c.7.5.9 0 1-.6 0-.6-.2-1.2 0-.9.2-.3.5-.1.8.3s.4 1 .3 1.4c0 .4-.4.8-1 1.2-.5.4-1 1-1.2 1.9.1-.2-.1-.2 0-.4-.3.3-.2.6-.2 1s-.1.8-.5 1.1c.7.8-.5 1 .4 1.6l.3-.9.2-.9c0 .5.2 1.2.1 1.8 0 .3-.1.7-.2 1.1-.1.4-.4.7-.8 1-.1-.2-.1-.9 0-1.3-.6.3-.3 1-.9 1.3-.4-.4-.2-.9.1-1.5.3-.6.6-1.3.5-2-.6.3-.2 2.2-1 1.1.5.7.2 1.1-.2 1.6-.4.4-.9.9-.8 1.8l-.5-.5c0 .2 0 .8-.3 1.1-.1-.4-.1-.7-.2-1.1-.1 1.4-1.8 1.3-2.3 2.4 1.5-1.8 1 .1 2-.3-1.2 2.8-2.4.1-4.4 2.7.3-.4 1.5-.9 1.2-.2-.5.4-1.3.8-1.8.8-1.5 1.7.7.2.4 1.2-1.1 0-.6 1-1.1 1.9l-.5-.5c-2.2 1.5.5 1.5-1.5 2.8v-1.4l-.7 1.1-.4-.7c-.5 1.4-.9 1.6-2 2.4.6.1.8 1 0 1.9-.9.3-.2-.8-1.2.6-.1-.6-.2-1.3.8-1.4-.1-.2-.1-.6-.2-.8-1 .3-1.6 1.6-2 2.1.2-.2.4-.4.6-.4-.3.9-.6 1.7-.9 2.6-.4.2-.4-.2-.4-.6-.3.5-.2.9-.6 1.6-.3-.5-.8-.8-.4-1.8L12 71.1c-.3 0-1.2.7-1.2.3-1.1 1-.8 3.5-2 4.9.1.1.1.4 0 .7-.8 1.5-2.1 2.7-2 4.8l-1.3.8c-.3 1.6 1.6-1.1 1.2 1.5-.1 1.9-1 .4-1.4 1 .2 1 .9 2.8-.1 4.3-.1-.5.1-.9.1-1.5zm1.6 19.3c-.3-.3-.9-.9-.6-1.3.8.2.6.6.6 1.3zm20 20c-.3.1-.7-.2-1-.7.3.2.6.4 1 .7zm28.6-40.6c.4.6.3.4 0 0zm-1-1c-.2 0-.2.1-.2.2.2-.1.4 0 .7.3 0-.2-.1-.4-.5-.5zM37.9 47.8l-.2.3c0-.8.1-.5.2-.3z"/><path class="st0" d="M23.5 126.5c0-.2 0-.3.1-.4-.2.1-.3.2-.1.4zM8.7 76.3c0-.1 0-.1-.1-.2l.1.2zM69.5 104.4c-.1.4-.3.6-.4.7.1 0 .3-.2.4-.7zM47.8 84.7c.3 0 .5-.1.8-.1-.4 0-.5-.2-.7-.3 0 .2.1.4-.1.4zM39.3 82c-.1.1-.3.1-.4.3l.2.3c.5-.3.9-.7.2-.6zM47.1 82.4c-.1-.6-.7-.4-1.3-.2h.1c-.2.8.5.5 1.2.2zM45.6 82.2c-.2.1-.4.1-.6.1-.1.3.2 0 .6-.1zM52.8 85.2c-.2-.3-.5.6-.5.3-.3.3.2.3.6.1.4-.1.7-.3-.1-.4zM46.5 80.5l.2.7.4-.6zM51.9 81.8c-.3-.2-.7-.3-1-.5 0 .1-.2.2-.3.2.6.1 1.3.4 1.3.3zM50.6 81.4c-.3-.1-.7-.1-.9 0h.9zM48.1 80.3l.3.2c.3 0 .5.1.8.1-.4-.1-.7-.2-1.1-.3zM61.5 88.8l.9.9c.3 0 .2-.4-.1-.7-.4-.2-.8-.5-.8-.2zM60.3 84.6c.2.4.1.5.1.8l.6-.6-.7-.2zM63.1 87.3c.3-.1 1.7 1.2.7-.2-.3.1-1.3-.8-.7.2zM66.8 106.1l.1-.3-1.5-.2zM61.4 123.3c1.4-1-.4-.9 1-1.7 0-.5-1.1.6-1 .2-.5.9-1 1.1 0 1.5zM61.3 121.7c.1-.2.1-.3.2-.5-.1.3-.1.4-.2.5zM24.3 47.4c.4-.4.8-.7 1.1-1.2l-.9.6-.2.6zM24.7 44.4h1c-.2-.4-.4-.7-.6-1.1 0 .3-.1 1-.4 1.1zM6.2 110.6h.2c.2-.3.1-.5-.1-1l-.1 1zM3.9 96.2v.2l.8-.5zM4.4 83.9c-.2.5-.1 1.1-.3 1.6.1-1.1 1.3-1.4.3-1.6z"/><g><path class="st0" d="M27.9 148c-.1-.1-.1.5-.2.6.2-.1.2-.7.2-.6zM29.5 146.9l-.1.2.3-.6zM30.7 147c0-1-.5.1-.7-.3v-.2l-.2.8c.4-.1.8-.6.9-.3zM31.2 149.3c0-.4.2-.3-.2-.1v.1h.2zM31.1 149.3c-.1 0 .1.3 0 0zM31.8 149.1l-.2.3c0 .2.2.3.1.5.2-.2.2-.4.1-.8zM32 148.4l-.1.1c0 .1 0 .1.1-.1zM31.7 148.8l.2-.3c0-.2 0-.5-.1.1 0-.3 0 0-.1.2zM31.6 148.7c-.1-.2-.2-.4 0-.7-.4 0-.4.8 0 .7zM30.9 146l-.1-.3-.1.3c0-.2.2.3.2 0zM32.9 149.7v-.9l-.1.2c0 .2.1.3.1.7zM32.9 148.8l.2-.4c-.2 0-.2.2-.2.4zM32.1 147.2l-.4.8.5-.8zM33.7 149.7l-.1.5.2-.7zM34.3 149.6c-.1.4.1.7 0 1 .1-.1.3-.4.4-.7-.2.1-.3.1-.4-.3z"/><path class="st0" d="M34.8 149.4c-.1.1-.1.3-.2.5.1-.1.2-.3.2-.5zM33.4 148.6c0 .1 0 .5.1.6l-.1-.6c.1 0 .1 0 0 0zM33.5 148.6c.1 0 .1.1.2.1 0-.1-.1-.1-.2-.1zM33.4 148.6c0-.1 0-.1 0 0zM32.6 147.8c.1-.3.4-.7.2-1.2-.1.4 0 .7-.2 1.2zM33.4 147.8l-.2-.1v.6l.2-.5zM33.5 147.6l-.1.2zM34.5 148.8c.1-.3.2-.3.3-.3-.1-.1-.3-.2-.4-.2 0 .2-.1.5.1.5zM34 148.6s0-.1 0 0zM35.9 148.5zM34.4 148.2c-.1-.1-.1 0-.2.2l.2-.2zM35.2 149.1c-.1-.1-.1-.2-.2-.3 0 .2.1.5.2.3zM34.1 148.8s-.1 0 0 0c0 .1 0 .1 0 0zM34.1 148.8c0-.1.1-.2.1-.4-.1 0-.1.1-.2.2 0 0 .1.1.1.2zM36.1 144.6c0 .6-.2 1.1-.4.5-.2.4 0 2.3.2 3.3 0-.2 0-.5.2-.8-.1-.3-.5-.7-.3-1.2.3-.3.2.2.4.5-.1-.7.3-1 .2-2.1l-.2.4c-.1-.2 0-.5-.1-.6zM35.5 148.3c0 .2.1.4.2.8.1-.3.2-.5.2-.7l-.4-.1z"/><path class="st0" d="M35 148.4c.1-.6.3-.9.1-1.5-.2 0-.2.5-.3.8.4-.2-.1.3.2.7-.1 0-.2.1-.2.1.1.1.1.2.2.3v-.1-.3c.1.1 0 .2 0 .2v.1c.1-.1.3-.2.4-.4-.1 0-.2 0-.4.1zM33.1 145.3c0 .1 0 .1 0 0zM33.2 145.7c0 .1-.1.3-.2.3-.1-.2 0-.3 0-.5-.1.2-.2.4-.1.7v-.1c.1.2.3 1 .3 1.1.1-.6.1-1 0-1.5zM34.1 146.9l.3-.3-.2-.5v.3c-.1-.2-.1.2-.1.5zM36 148.8l-.1.6.2-.9zM36.4 148.7v.5l.1-.3zM55.9 134.7v-.2c-.1.1 0 .2 0 .2zM55.4 135.1l.1.2c-.1-.2-.1-.3-.1-.2zM47.2 146.7c.3.5.7 1.2.5.6l-.2-.6c-.1.1-.2.1-.3 0zM52.5 140.6l-.1-.1c.1.2.1.4.2.6-.1-.3-.1-.4-.1-.5zM51.4 138.2l.3.3-.3-.3zM58.1 132.1l-.3-.5c-.1.1.1.3.3.5zM41 148c.2.2.3.3.4.3-.3-.3-.5-.8-.4-.3zM59.5 140.2c0-.1-.1-.2-.1-.4-.1.2 0 .3.1.4z"/><path class="st0" d="M41.7 148.2c0-.1-.1-.1 0 0-.2 0-.3.1-.4.1.2.2.3.4.4-.1zM66.1 123.2c0 .1.1.1 0 0zM73.4 122.6v0zM38.2 148.8c-.1.1 0 .1 0 0zM37.6 146.4v-.3.3zM41.9 144.3c0-.1 0-.1 0 0zM38.1 148.6c0 .1.1.1.1.2 0-.1-.1-.2-.1-.2zM38.1 148.9c0-.1 0-.1 0 0-.1 0-.1.1 0 0z"/><path class="st0" d="M38.4 148.8c-.1 0-.1 0-.2-.1v.1h.2zM63.7 129.6c-.1-.2-.1-.1 0 0zM47.3 139.9zM47.4 139.4c.2.8.1.7-.1.6l.7 1.6-.6-2.2z"/><path class="st0" d="M57 133.7l-.5-.3c-.4-.9 0-.7-.7-1.2 1.2 1.5-.5.6.6 2.2l-.3-.2v-.1c-.8-.6.7 1.2.2 1.2-.2-.1-.4-.2-.5-.5l.1.5c-.1 0-.3-.3-.2-.3l-.2.4c.1.3.3.7.3 1-.2-.2-.1-.2-.2-.4l.1.5c-.4-.4-.5-.9-.3-.9-1.2-1.5.1.5-.9-.2v-.3c-.7-.8-.6-.4-1.2-.9.2.3 1.3 1.2 1.4 1.7-.1-.1-.2-.1-.1.3-.4-.6-.4-.4-.5-.3l-.5-.8c0 .3.3.7.4 1.1-.2 0-.6-.6-1-1-.3 0 .8.9.6 1.2-.4-.2-.3.2-.3.9-.3-.2-.3-.5-.4-.7l.2.7s-.1-.2-.2-.3c0 .3.4.8.4 1.1.4.9-1.1-1.1-.8 0-.2-.2-.2-.5-.4-.8 0 .8 0 .6.2 1.6l-.5-.4c.5.5.6 1.3.7 2 .2.3.4.5.5.6l-.1.6c-.1-.1-.2-.4-.3-.8v.2c-.3-.2-.4-.7-.6-1.2.1.1.2.3.4.4-.2-.5-.4-1.1-.6-1.6v.3c0-.1-.1-.3-.1-.3-.1-.1 0 .1.1.3l-.5-.9.2.4-.7-.4c.2 1.1.6 2.5.3 3.1-.2-.7-.5-1.1-.8-1.9.5.8.2-.5.5-.5-.2 0-.3-.4-.3-.6v1c-.3-.7-.3-.5-.5-.7.7 1.3.1 1 .1 1.5-.2-.4-.4-.9-.1-.9-.7-.9.4 1.7-.2.9 0 0 .1 0 0-.2 0 .4-.4.3-.5-.2-.4 0-1 .4-.6 1.6-.1-.1-.5-1.4-.6-1.6.3 1.3.6 2.7.8 4.1-.3-1-1.4-3.2-1.3-3.9-.1-.1-.3-.2-.3.2.1.1.7 1.4.6 1.5-.6-1-.4-.5-1-1.4.2.2.6 1.7.5 1.7-.1-.2-.5-1.5-.6-1.7l.2 1.6c0-.3-.4-1.3-.6-1.7.1.3-.3.1-.3.2l.3.3c-.4-.1.3 2.3-.1 2.3 0-.3-.5-2-.7-2.1.2.8.8 3.9.5 4.6l-.2-.4-.1.6c-.1-1.2-.4-3.9-.5-4.9-.2-.3-.2-.5-.4-.4-.2-.4-.1-.7 0-.7l-.5-.1c.3.9-.1 1 .1 1.8.1-.4.2-.7.3-1.1.3.9.4 2.7 0 2.6-.2-.3-.4-1.7-.5-2 0 .3-.2.7-.3.5v-.5c-.3-.3 0 1.3-.5.5-.1 0-.5-1.1-.4-.6.4 1 1.2 4.3 1.3 5.1-.1-.1-.7-.9-.9-1.4-.3-.8-.2-2-.5-2.7.1.3.1.6 0 .7-.1-.2-.1-.8-.3-.6.2 1-.4 0 .1.8-.1.3-.2-.1-.4-.1.2.6.2 2.1.1 2.5 0-.2-.1-.5-.2-.7-.4 0-.7-.4-1.1-.4-.1-.2-.3-.5-.3-.9 0 .2 0 .5-.1.5-.3-.8.2-.2-.1-1.1.1.6-.2.8-.3 1.2.2.9.4.1.5-.3.2 1.2.1 2.5-.2 3.1-.3.3-.3-.7-.3-.6-.6-.1-.3 2.2-.9 1.4-.3-.7-.2-1.5-.3-2.1.2-.3.5.4.6.4l-.3-.3c.1-.3.2-.5.3-.3-.3-.7-1 0-1.5-.6-.1.3-.2.5-.1.8l.1-.1c.2.6-.2.9 0 1.1-.2.4-.3 1.1-.7.8l-.1-.9c0 .3.2.5.3.2-.1.4-.5-1.2-.6 0l.2.6c-.2.4-.4 1.4-.7 1.1.2.9.1-.1.3.9-.2-1.2.7 0 .3-1.3.3 1.2.4.5.7 1.5 0-.3-.1-.5.1-.4v-.3s0-.1 0 0c-.1-.1-.1-.3-.1-.4.1-.7.4-.7.5-1 .1.1 0 .3.1.6l.1-.5c.1.6.5 1 .2 1.4h.3c.2.3.5.4.6.2.2.1.2-.7.2-.2l.2-.2v.2c.4 0 .7-1.2 1.4-.1.1-.2.2-.4.5-.3l.1.5c.1-.2.7.4.6-.2.5 1.4 1 .1 1.4.3l-.2-.7c.2 0 .4-.3.6-.6l-.2-.6c.1-.6.7.3 1.1.1 0 .2-.1.2-.2.1.8 1.3.6-1.3 1.3-.4 0-.3.1-.2.2-.1s.2.2.2.3c-.1-.1-.2-.2-.2-.3.1 0 .2-.1.2-.3l.3.6c.2.2 0-.3-.2-.8v-.4c.4 1 .2-.4.7.6-.1-.6.4-.6.1-1.8.1.1.1.2.1.2.2.1.3.2.3-.2l.3.8-.1-1.2c.3.4.5.7.6 1.4 0-1.1.2-.5.1-1.6l.2.5c.1-.1 0-.8.2-.4.7.9 1.3-.4 2.4.3-.8-1.4.6.5.1-.6.2.3.4.5.4.9.2-.5.8.3.5-.8.2.3.2.6.3.7 0-.1 0-.4.1-.2s.1.3.1.5c.3-.2-.2-1.3-.7-2.4.4.4.5.3.2-.4.2.3.5.6.4.8.1 0 1 .1.5-.7.1.2.2 0 .2-.1.3-.1.3 0 .6-.2l-.1-.1c-.4-1 .1-.3.2-.6l.1.1c.8.4 0-.4.9.1l-.4-.6c-.7-1.3.8.5.8-.1l-.3-.3c-.1-.5 1.4 1.5 1.7 1.5.1.1.1.2.1.3.8.5-.4-.8-.3-1.1.3.4.6 1.1.8 1 .3.3-.3-1.6.5-1-.3-.3-.5-.5-.6-.9.1-.2 1.3.8.8-.3l.2.2c0-.4.2-.7-.1-1.3 1.5 1.8.2-1.6 1.5.2l.4-.4.1.2c.4-.1.1-.6-.1-1.1.2.1.2.3.3.4.7 0 .7-.1.3-1.2l.5.5c-.2-.4 1.3.4 1.1-.6 0 .1.1.2.2.3-.1-.5.5-.3.9-.4.4 0 .6-.2-.2-1.2l-.2-.7c-.5.2-.7-.8-1.2-1 0-.2.9.2.8.5l-.1-.1c.9 1 .7-.1 1.4.6.6-.7 1.8-.9 2.4-1.5l-.9-.6.2-.2c.2.1.7.4.5.6.5.3-.1-.6-.3-.8.6-.1.8.9.9.8l.1-.2h-.1c-.2-.4-.6-.7-.4-.9.3 0 .6.3.6.3.1 0 .1.1.1-.1l.3-.2-.7-.4c-.2-.4.3-.3-.6-.7.6.3 1 .1 1.2-.1.2-.3.3-.6.5-.6-.3-.6-.2-.7 0-.9-.2 0-1-.5-.7-.7 1.5 1.2.9.1 2.2.7-.9-.4.2-.7-1-1.2.2-.1.6.4 1.1.5-.3-.8 1-.7 1.1-1.4-.2-.1-.6-.2-.8-.5l1.2.3c0-.2-1.2-.8-.3-.6-.2-.1-.5-.2-.5-.3.8-.2.9-.9 1.1-1.5s.4-1.2 1.7-1.3c-.5 0-.5-.2-.5-.3-.1 0-.6-.2-.9-.4l1.1-.1c-.8-.4.2-.5-.6-.9l.1.2c-.9-.6-2.3-.6-3.6-1.2 1 .7-1.9-.2-.4.8-.3 0-.4-.2-.7-.3.5.3.6.5.2.5l-.1-.1c-.1.6-.7.6-1.3.9l.6.3c-.1.1-.3 0-.5 0 .8.6.2-.3 1.2.3-1.3-.5-.5.8-1.9.2-.1.2.7.3.6.5l-.4-.2.4.3c-.1.1-.6-.1-1-.3.1 0 0-.1-.1-.2-.5-.1-.1.5-.3.5h.3c.1.7-.7 1-.3 1.9l.3.1c.2.7-.5.1-.5.6l-.1-.1c.2.3.3.5.2.5-.2-.3-.7-.2-1-.6.3.7.3.5 1.1 1.4l-.5-.3c.3.4.5.5.5.8-.3-.4-.7-.4-1.1-.9-1.2-.3.5 1.3-1 .4 1 1.1.9.2 1.1.5.4.2.7.8.5.8-.1.1-1.6-.9-1.9-.6 0 0-.1-.1 0-.1-.4-.1.2.5-.4.3.6.6-.2.1.7.9v-.4c.1.3 1 1.3.3 1.2-.2-.2-.3-.4-.4-.6-.3-.1 0 .3-.3.1-.8-.8.1-.5-.4-1.2-.4-.2.4.8-.5 0 1.1 1.1-.4.2.3 1.1l-.5-.5c.1.1.2.4.2.4l-.6-.7c.4.7-.7-.1-.6.3.3-.3.7.5 1.2.7.3 1-1.5-1-1.7-.3 0-.1.5.1.6.4-.2 0-.5-.1-.8-.3-.2.4.5.4.7.8-.7-.5.1.4.2.7l-.5-.5c-.6 0 .9 1.1.3 1l-.6-.8v.3l-.5-.6c.3.6.1.5-.2.5.4.3.8.9.7 1.1-.4-.2-.4-.5-.5-.3-.3-.4-.6-.8-.1-.4-.1-.2-.3-.4-.4-.5-.4-.2-.3.2-.4.3h.2c.1.3.2.6.4 1-.2-.1-.3-.3-.4-.5 0 .1.2.4.1.5-.4-.4-.7-.9-.8-1.2l.1.7c-.2-.2-.6-.4-.7-.6-.4-.1.3 1.1-.2 1 .1.1.1.2.1.3-.3.1-.9-.3-.6.5l-.8-.7c0 .3 1 .8.9 1.4 0 .4-.6-.6-.9-.8.2.5.6 1.4-.1.9.6.4.7.5.8.4zm-2.2 2.1c0-.2-.2-.6.1-.3.3.7.1.5-.1.3zm-3.3 3.8c-.1-.2.1-.2.2 0 0 .1-.1.1-.2 0zm-12.3 8.6s0-.1 0 0c.2.2.1.1 0 0zm-.3-.3v.3c0-.2.1-.2.2-.2-.1-.1-.1-.2-.2-.1zm28.9-16.1l-.2-.1c0-.2.1 0 .2.1z"/><path class="st0" d="M51.5 138.5c.1.1.1.2.2.3 0-.1-.1-.2-.2-.3zM58.2 132.2zM42.4 141.4c.1.1.1.2.2.3 0-.1-.1-.3-.2-.3zM37.3 149.2l.2-.2c-.1 0-.1-.1-.2-.2v.4zM35.4 145.1c-.1 0-.1 0 0 0l-.1.4c.1-.1.2-.3.1-.4zM36.9 146.9c-.1-.6-.2-.4-.3-.3.1.9.2.6.3.3zM36.6 146.7c-.1.3-.1.1 0 0zM38.5 148.3c-.1-.1 0 .7 0 .5 0 .8.4-.9 0-.5zM36.7 145l.1.8v-.6zM37.8 145.5l-.2-.2v.2c.1.1.2.2.2 0zM37.5 145.6c-.1 0-.1 0-.2.1.1 0 .2 0 .2-.1zM37 144.8l.1.2h.1zM40.1 145.4l.2-.2c0-.2-.1-.4-.2-.3 0 .1-.1.2 0 .5zM39.2 143.5c.1.1.1.3.2.5l-.1-.9-.1.4zM39.8 143.2c0-.2.2-.7-.1-.6 0 .2-.2.5.1.6zM43.3 143.7l.3 1.4zM45.2 139.6c-.3-.3.2.9-.1.5 0 .3.3.3.3.6 0-.4.1-.2-.2-1.1zM45.4 140.7v0zM74.4 122.2h.4l-.5-.1zM73.5 121.5l.9.3-.7-.4s.1.1-.2.1zM53.4 134.5l.1.2c.1.2.2.2.3.2l-.4-.4zM55.5 133.9l.5.6zM56.3 132c-.1 0 0 .2-.1.2 0-.2.8.6.1-.2z"/></g><g><path class="st0" d="M77 180.5c0 .2.5-.1.6-.2-.2-.1-.8.3-.6.2zM75.1 177.8l.2.1c-.2-.2-.4-.3-.6-.5.1.1.2.3.4.4zM75.8 174.6c-.5 0-.6.3-.6.6 0 .4.1.8-.1 1l-.3.1c.2.1.5.3.8.4-.1-.6-.3-1.7.2-2.1zM78.5 174.2c-.4-.1-.1-.5-.3.2h.1c0-.1.1-.1.2-.2zM78.3 174.4c-.1.3.4 0 0 0zM78.9 173.1l.1.5c.2.1.5-.2.5 0 0-.3-.2-.4-.6-.5zM78.6 172.3v.3s.1 0 0-.3zM78.5 173.2v-.6c-.2-.1-.4-.2 0 .2-.2-.2 0 .1 0 .4zM78.2 173.3c-.3.1-.6.2-.7-.3-.2.4-.1.7.1.7.2.1.5-.1.6-.4zM74.9 174l-.4.3.2.4c-.1-.2.5-.6.2-.7zM81 171.7c-.1-.2-.5-.4-.7-.6l-.1.4c.3.1.6 0 .8.2z"/><path class="st0" d="M80.3 171.2c0-.2.1-.4.1-.6-.3.2-.2.4-.1.6zM77.8 171.6c0 .4 0 .8.1 1.1v-1.3l-.1.2zM82.3 170.9v-.4.4zM83.2 170.4c0 .4.5.6.4.9.2-.2.3-.6.4-.9-.2.1-.4.2-.8 0zM84.2 169.8c-.1.1-.2.3-.2.5.1-.1.2-.2.2-.5zM81.2 170.2c.1.1.3.3.6.4l-.6-.4c.1 0 .1 0 0 0zM81.3 170.1c.2-.1.3-.1.4-.1 0 0-.1 0-.4.1zM81.2 170.3c0-.1-.1-.1 0 0zM79.1 171c0-.4.3-1.2-.6-1.1.1.4.6.4.6 1.1zM80.6 169.8l-.5.2c.1.1.3.3.3.5l.2-.7zM80.7 169.4l-.1.4.1-.1zM83.3 169.5c.1-.3.3-.4.6-.5-.3 0-.6-.1-.8.1 0 .1 0 .5.2.4zM82.3 169.7c0-.1 0-.1 0 0zM86.3 168.8v-.1.1zM83 168.9c-.2 0-.3.2-.3.4 0-.1.2-.2.3-.4zM84.8 169.4c-.1-.1-.2-.2-.4-.3.1.2.4.5.4.3zM82.5 169.7c0 .1 0 .1 0 0 .1.2.1.1 0 0zM82.5 169.7c.1-.1.1-.3.1-.4-.1.1-.2.2-.1.4-.1 0 0 0 0 0zM87.7 165c-.1.3-.3.5-.6.6-.3.1-.6.1-.9-.3-.7.4-.2 2.3.1 3.3 0-.2 0-.5.6-.8-.1-.3-1.1-.8-.6-1.3.8-.2.6.2.9.6-.2-.8 1.2-.8 1.2-1.8l-.8.2c-.1-.1.3-.3.1-.5zM85.4 168.6l-.2.1c.2.1.4.3.6.7.3-.3.4-.5.4-.6-.3 0-.6-.2-.8-.2z"/><path class="st0" d="M84.4 168.8c0-.6.5-.9.1-1.6-.7.1-.4.6-.7.9.9-.4-.2.4.6.7-.2.1-.3.2-.5.2.2 0 .3.1.5.2-.1-.1-.1-.1 0-.1-.1-.2-.1-.3 0-.3.3.1.1.1 0 .2v.1c.3-.2.5-.3.8-.4-.2-.1-.4-.1-.8.1zM78.2 168.4c.1 0 .1.1.1.1 0-.1 0-.2-.1-.1zM78.8 168.4c0 .1.1.4-.2.5-.3 0-.2-.2-.3-.4 0 .2-.2.7.4.6v-.1c.5-.1 1.4.2 1.4.3-.4-.4-.7-.7-1.3-.9zM81.7 168l.8-.6-.6-.3.1.3c-.6.1-.3.4-.3.6zM86.3 169.1l-.1.6c.1-.3.3-.6.5-.9-.2.1-.3.2-.4.3zM87.3 169.2l-.2.5.3-.3zM53.5 195c-.1 0-.2-.1-.4-.1.2.1.3.1.4.1zM55.3 196.8l.2-.2c-.2.1-.3.2-.2.2zM92.5 190.8c-.6 0-1.5-.3-1 .1l.5.3c.1-.3.2-.4.5-.4zM74.3 201.5c0 .1.1.1.1.2l.3-.6c0 .2-.2.3-.4.4zM73.8 204l-.6-.5c.1.2.3.4.6.5zM46.2 183l-.7-.3c.2.7.4.3.7.3zM95.1 176c-.1.4-.1.6 0 .9.2-.5.6-1 0-.9zM58.8 191.1c-.2 0-.3 0-.4.1.2.1.3 0 .4-.1z"/><path class="st0" d="M95.4 177.7c0-.1.1-.1.1-.2-.2-.2-.3-.4-.4-.7-.2.4-.2.7.3.9zM67.9 143.3c.1-.1 0-.1 0 0zM78.6 134v0zM90.7 171c-.2-.1 0 .1 0 0zM91.1 168.4zM99.7 179.5c.1-.1.1-.1 0 0zM90.6 170.6c0 .1.1.2.1.3 0 0 0-.1-.1-.3zM90.5 170.9c0-.1-.1-.1-.1-.1-.1 0-.1.1.1.1zM91 171.2c-.1-.1-.2-.2-.2-.3v.1c0 .1.1.1.2.2zM51.5 161c.1-.1.1-.1 0 0 .1-.5 0-.3 0 0zM90.8 200.4c0-.1 0-.1 0 0zM90 201.4c.1-.9.4-1 .8-1l-1.2-1.4c.1.8.2 1.6.4 2.4z"/><path class="st0" d="M49.7 190.2v1c-1.3-.4-1.5-1.3-1.7-.2.9-.4 1.3.3 1.8 1s1.1 1.3 1.9.8v.7c-.1-.1-.2-.1-.3-.2 0 1.4 1.6-.2 2.3 1 .2.5.2.9-.2.8l1.1.4c.2.2-.1.4-.3.2.4.4.8.7 1.3 1 .4-.1 1.1-.1 1.4-.1.1.5-.3 0-.4.3.3.1.6.1 1 .2 0 .6-.9.6-1.3.1-.6 2.1.9.1 1.6 2.1l-.8-.3c-.2 1.2.6 1.3 1.1 2.4 0-.2-.2-.9-.2-1.4 0-.6.1-1 .6-1 .1.3.4.5 1.1.5-.4.6.2.7.7 1l-.5.8c.8.1.9-.3 1.5-.5.6.4.4 1.2.4 1.8 1.1.7-.3-1.4 1.1-.9.4.4.8.6 1.3.6.5.1 1 0 1.7 0 .6.5-.3.5-.2.8.3-.2.6-.3.8-.5.1.1 0 .3 0 .4.6-.1.3-.8 1.2-.8.3-.4.5 0 .9.5s1 .9 1.6.5c.2.3-.2.5-.2.9 1.5-.4 1.3-.3 2.6-1.1.3.3.6.5.9.7-.6-.7.4-1.5 1.1-2.1-.2-.4-.4-.7-.5-.8.4-.1.8-.2 1.2-.4.1.2 0 .5-.2.8.1-.1.2-.1.2-.2.4.3.2.9-.2 1.4-.1-.2-.3-.4-.4-.6-.3.5-.7 1.1-.7 1.6.1-.1.3-.2.4-.2-.1.1-.2.3-.1.4 0 .1.2-.1.4-.3l.2 1 .1-.4 1.7.7c1.2-1.1 2.1-2.6 3.8-3.2-.3.8.1 1.2.2 2.1-.6-.9-1.4.6-2.4.5.5.1.4.5.3.6.6-.3 1.1-.7 1.7-1 .1.7.4.5 1 .7-.6-1.3 1.1-1.2 1.7-1.8.2.5.1 1-.8 1 1.2.9.8-1.9 1.9-1.3-.2.1-.3 0-.3.3.4-.5 1.6-.6 1.5-.1l-.2.1c1.4-.2 4-1.6 3.6-2.8.1.1.5 1.4.5 1.6.2-1.6.2-3.2.1-4.7.4 1 2.4 2.7 1.7 3.8.4 0 .8-.1 1.2-.8-.3 0-1.3-.9-1.1-1.2 1.3.5.8.2 2.3.4-.4 0-1.1-1.5-.6-1.8.1.2 1 1.2 1 1.5 0-.7.1-1.4 0-2.1-.1.4.8 1.1 1.4 1.2-.3-.1.9-.8 1.1-1.2l-.7.2c1.3-1-.5-2.6.4-3.6.2.3 1.3 1.6 1.9 1.2-.2-.4-.7-1.3-1.3-2.3-.5-.9-1-1.9-1-2.6l.5.1c0-.3 0-.7-.1-1 .4.5 1 1.4 1.5 2.4s.8 2.1.9 2.8c.7-.3.5.2 1-.6.6 0 .3.8.1 1 .5-.5 1-1.1 1.4-1.7-.4-.2-.4-.7-.4-1.1 0-.5 0-.9-.4-1.1 0 .8-.1 1.7-.3 2.5-.4-.2-.8-.9-1-1.6-.2-.7-.3-1.5.1-2 .5-.2 1.4 1 1.7 1.1-.2-.3 0-1.5.3-1.6l.2.8c.6-.7-.7-1.7.5-2.4.2-.3 1.5-.7.9-.9-1.2.3-4.5-.5-5.2-1 .1 0 1.3-1.2 1.9-1.5.4-.2.9 0 1.4.3s.9.6 1.3.4c-.3-.1-.5-.4-.6-.5.2-.3.8.2.7-.6-1-.2.2-1.6-.8-.4-.2-.7.2-.8.2-1.7-.6.3-2.1-.7-2.5-1.2.2 0 .6-.2.7-.3v-1.8c0-.5 0-1.1-.2-1.7.2-.2.3-.9.7-.8-.2-.1-.6-.2-.8-.6.5-1.1.5.8 1.2-.1-.6.2-1.1-.8-1.7-1.1-.7.5.4 1.3 1 1.7-.6.2-1.2.2-1.9 0s-1.3-.5-1.8-.9c-.7-.7.5-.8.2-.8-.8-1.7-2.5-.1-2.7-1.7.2-.9 1.1-1 1.5-1.5.8.5.5 1.3.8 1.7 0-.3-.1-.5-.1-.8.4 0 .9.4.8.8.1-.2 0-.5-.2-.8s-.5-.7-.8-1.1c-.6-.8-1.4-1.5-1.8-2.3-.4 0-.9-.1-.9.3l.4.2c-.1.7-1.2.1-.9.7h-1.2c-.4 0-.7-.2-1-.5l.3-.8c-.1.2.2.7.6.6-.2.1-.4-.3-.6-.6s-.5-.6-.9-.1c.1.3.2.5.3.8-.7.1-1.6.8-2.1.4 0 .9.2 0 .3 1.1 0-.7.4-.5.7-.4.3.1.6.3.6-.4-.1 1.3.5.8.5 2 .1-.3.1-.6.5-.2.1-.1.2-.1.2-.2 0 0 .1 0 0 0v-.5c.3-.2.6-.2.9-.1.3.1.6.2.8.2.2.3-.3.2-.4.5.2 0 .5-.1.7-.1-.4.5-.1 1.4-.9 1.1l.4.5c0 .5.2 1 .6 1.1.1.3 1 .2.5.3l.9.7-.1.1c.2.5.7.8 1.1 1.3s.6 1.1.2 1.8c.1.1.3.3.4.5s.1.4.1.8l-.5.2c.3.4-.4 1.4.3 1.5-.7.3-.8.8-.7 1.3 0 .5.3 1.1 0 1.4l.7.1c-.1.3-.1.5 0 .8 0 .3 0 .6.1 1l.6.1c.1.2.1.4 0 .6-.1.2-.2.4-.4.5-.2.2-.3.4-.5.6-.2.2-.3.4-.4.6-.2-.2 0-.4.2-.5-.9.2-.9.8-1 1.5 0 .7-.1 1.4-.9 1.5 0 .4-.2.5-.4.5v-.1s-.1 0-.1.1c-.2 0-.3 0-.5.1h.5c-.1.2-.3.5-.4.8l-.6-.4v.1c-.4 0 .1.4.6.6v.6c-1-.6-.3.9-1.4.2.1.3-.1.6-.3 1-.2.4-.4.8-.1 1.4-.1-.1-.2-.1-.1-.2-.4.1-.8.2-.8.7l-.6-.6v1.4c-.7-.2-1-.4-1-1.2-.5 1.5-.6.8-1 2.2l-.2-.5c-.3.2-.5 1.1-.9.8-.6-.3-1.5 0-2.6.3-.5.2-1.2.3-1.7.4-.6 0-1.2 0-1.7-.1.6 1.6-1-.6-.9.7-.2-.4-.5-.6-.2-.9-1 .5-1.5-.5-2.2.6-.1-.4.2-.6.1-.8-.1.1-.3.3-.4.1s.1-.3.3-.5c-1 0-1.2 1.2-1.3 2.4-.5-.5-.8-.5-1.3.2-.2-.4-.4-.8.2-.9-.2 0-.8-.2-1.3-.3s-1-.1-1.1.4c-.1-.2-.5-.2-.6-.1-.8-.3-.9-.4-1.7-.5l.2.2c-.6 1-.8 0-1.5 0l.1-.1c-1.2-1.2-.8.1-1.9-1.3l-.2.7c-.7 1.3-.9-1.4-2-1.2 0 .2.1.3.1.5-.7.2-.3-2.4-.6-2.8 0-.2.2-.1.4-.1-.6-1.3-.6.7-1.5.4.1-.5.8-.9.4-1.3 0-.3-.6-.1-1.2-.2-.6 0-1.2-.2-1.3-.8-.1.4-.2.8-.7.8-.6-.4-.4-2.2-1.6-1.8 0-.1.1-.2.1-.3-.6-.1-1.5-.9-2.2-.7.7-.9.1-1.3-.6-1.8-.7-.4-1.3-.9-.4-1.4-.3-.4-.6-.8-.8-1.3l.2-.1c-.3-.9-.9-1-1.5-1.2 0-.3.3-.2.4-.2-.2-1.5-.2-1.6-1.6-2.5l.6-.3c-.2-.1-.1-.7 0-1.4s.2-1.5-.4-2.1c.1 0 .2 0 .3.1-.5-.7-.1-1.8.2-2.6.1-.4.2-.8.1-1.1-.1-.3-.4-.6-1-.8-.2-.4-.4-.7-.6-1.1-.3 1.4-1.1-.3-1.6.2-.1-.6 1-1.4 1-.7l-.1.1c1.3.4.7-1.7 1.6-1.5.5-2.7 2.1-4.9 3.4-7l-1-.3.5-.7c.3-.1.8.2.5.7.6 0 .2-1.1 0-1.3 1-.7.7 1.1 1 .8l.2-.4h-.2c-.1-.6-.5-.9 0-1.4.5-.2.7.2.8.1.1 0 .1 0 .2-.2l.8-.8-.9-.2c0-.7.8-.8-.3-1 .8.2 1.6-.5 2.4-1.2.8-.7 1.5-1.5 1.8-1.4.2-.9.8-1.4 1.5-1.9-.3 0-1-.6-.3-1 .9 1.7 1.7-.2 3 .4-1-.3 1.7-1.6.2-2.1.6-.3.5.5 1.2.6.8-1.6 3.1-1.9 4.5-3.6-.2-.2-.7-.2-.6-.8.6 0 1.1.1 1.7.1.2-.4-.8-1.2.4-1.3-.2-.1-.6-.1-.5-.4 1.8-1.2 2.9-3.2 3.8-5.2.9-2.1 1.6-4.1 3-6.4-.5.6-.5.2-.5-.3-.1.3-.6-.1-1 0l.5-.9.4-1c-.5-.2-.5-.7-.6-1.2s-.2-1-.7-1l.3.6c-.6-.3-1.1.1-1.7.5s-1.2.9-1.9.9c.6.3.2.8-.2 1.2-.4.5-.7.9 0 1.6-.3.2-.4-.3-.7-.2.6.3.6.7.2 1.3l-.1-.1c-.3 1.7-1.2 2.2-2.5 3.7l.7.2c-.3.3-.5.3-.8.4.6 1 .7-1 1.4-.1-.7-.1-1.1.6-1.6 1.2-.4.6-1 1.1-1.7.8-.4.5.7.3.3.9l-.4-.1.3.5c-.4.3-.9.1-1.2-.1.1 0 .1-.3.2-.4-.7.1-1 1.3-1.2 1.3l.6-.3c-1 1.6-3.2 2.7-4.2 4.6l.3.2c-.8 1.4-1.2.5-2.3 1.7v-.1c-.1.5-.3.9-.7 1.1.1-.6-1.1-.1-.9-.7-.9 1.5-.3.9-.5 2.5l-.5-.2c0 .6.1.8-.4 1.5.2-.8-.9-.2-.7-1.2-2.2.3-1.2 2.7-3 2.1.4 1.6 1.7-.6 1.6 0 .6.1.3 1.3-.2 1.6-.4.4-2-.6-3 .6.1-.1 0-.2.1-.3-.7.2-.3 1.2-1.2 1.4.5.8-.6.7.3 1.5l.6-1.3c-.1.4 0 1 0 1.5s-.1 1-.7 1.4c-.1-.2-.2-.7-.2-1-.5.2-.2.7-.7.9-.5-.3-.3-.7 0-1.2.2-.5.6-1 .5-1.6-.6.1-.3 1.8-1.1.8.5.7.2 1-.1 1.3s-.7.7-.4 1.4l-.6-.4c0 .2.2.7 0 .9l-.5-.9c.3 1.1-1.4 1.3-1.3 2.2.6-1.7.9-.1 1.6-.5 0 1.1-.5 1.3-1.1 1.4-.6.1-1.3.3-1.5 1.6 0-.4.7-1.1.9-.5-.3.4-.7.9-1.1 1.1-.3 1.6.7-.1 1 .7-.9.3.2.8.3 1.5l-.7-.1c-.8 1.7 1.3.7.6 2.2l-.9-.8.1.9-.8-.3c.4 1 .3 1.2 0 2.1.5-.2 1.2.2 1.2 1-.4.5-.7-.3-.5.8-.4-.2-1-.5-.3-1-.2-.1-.4-.3-.6-.3-.5.6-.1 1.5-.1 1.9 0-.2.1-.4.2-.5.3.6.6 1.1 1 1.6-.2.3-.5.1-.7-.1.1.3.4.5.5 1-.6-.1-1.1 0-1.5-.7l.8 1.5c-.2.1-.5.9-.8.7-.1.5.3 1 .6 1.5.4.5.8 1.1.7 1.7.1 0 .2.1.4.3.2 1.1-.2 2.3 1 3.2l-.6 1.1c.6.9.8-1.4 1.8 0 .8.9-.6.8-.6 1.3.4.2.9.4 1.3.7.4.3.7.7.7 1.4-.4-.2-.4-.6-.6-.8zm8.7 8.8c-.3 0-.9 0-.8-.4.7-.5.6-.1.8.4zm17.5 3.9c-.2.2-.4.1-.7-.2.2 0 .5 0 .7.2zm17-30.6c.1.5.1.3 0 0zm-.3-.8c-.1 0-.2.1-.2.2.2-.1.3 0 .4.2 0-.2 0-.3-.2-.4zm-35.5-10.3h-.2c0-.4.1-.2.2 0z"/><path class="st0" d="M73.9 203.8c-.1-.1-.1-.3-.1-.4-.1.1-.1.2.1.4zM46.4 183c0-.1-.1-.1 0 0zM102.4 183.7c-.1.2-.3.3-.4.4.1.1.3 0 .4-.4zM88.7 170.2h.5c-.2-.1-.2-.2-.3-.4 0 .2 0 .5-.2.4zM85.1 165.3c-.1.1-.2 0-.3.1l.1.3c.3 0 .6-.3.2-.4zM89.2 168c.2-.6-.2-.5-.6-.5h.1c-.4.7 0 .6.5.5zM88.5 167.4c-.1 0-.2 0-.3-.1-.2.4 0 .1.3.1zM91.6 171.1c0-.2-.6.5-.5.3-.6.4 1.4 0 .5-.3zM89.5 166.1l-.1.7.5-.5zM92.4 168.1l-.5-.5c-.1.1-.2.1-.3.1.3.2.6.6.8.4zM91.6 167.7c-.2-.1-.4-.2-.5-.2.1 0 .3.1.5.2zM90.5 166.2l.2.3.4.2zM97 173.7l.5.6c.3 0 .3-.3.1-.5-.2-.1-.4-.3-.6-.1zM97.4 170.6c0 .3-.1.4-.2.6l.7-.5-.5-.1zM98.9 172.6c.3-.1 1.2.8.6-.2-.2 0-.8-.6-.6.2zM99.8 184.7v-.2l-1.4-.3zM97.5 196.2c1-.6-.5-.8.5-1.2-.1-.4-.8.4-.8 0-.2.7-.6.8.3 1.2zM97.1 194.9v-.4.4zM79.1 131.2c.1-.3.1-.6.2-.8-.1.2-.2.4-.4.6l.2.2zM77.8 130.1l.8-.4c-.3-.1-.6-.1-.9-.2.1.1.3.4.1.6zM59 201.5l.2-.2c0-.3-.1-.4-.3-.6l.1.8zM52.2 195l.1.1.5-.8zM46.9 188.8c.1.3.5.6.6.9-.4-.5.3-1.4-.6-.9z"/></g><g><path class="st0" d="M526.6 180.3c.8-.3.2-.9.2-1.1-1.2.7-.1 1.3-.2 1.1zM514.3 187l.1-.4c-.6.5-1.2.9-1.7 1.4l1.6-1zM501.6 190.5c.8.5 1.9.2 3.2-.3.6-.2 1.3-.5 1.9-.7.6-.3 1.3-.4 1.9-.5l.5.2.7-1.4c-2.7 1-6.2 2.6-8.2 2.7zM494.1 188.9c.5.5-1.4.8 1.6-.1-.2 0-.2-.1-.3-.1-.3.1-.7.2-1.3.2zM495.4 188.7c1.3-.3-1-.3 0 0zM489.2 190.2c.6-.2 1.1-.5 1.7-.8-.4-.2-2 0-1.5-.4-1.8.6-1.3.8-.2 1.2zM487.7 191.5l.9-.3c-.2-.2-.5-.2-.9.3zM490.5 190.4c-.6.3-1.3.5-1.9.8.3.2.4.6.9-.3-.2.4.2 0 1-.5zM491.6 190.4c1.1.1 2.4 0 .7.9 3.4-.9 2.7-1.8-.7-.9zM501.2 192.1l1.4.1 1.1-.7c-.5.3-2.7.2-2.5.6zM477.9 191.1c-.1.3.7.7.9 1.1l1.3-.5c-.7-.2-2.1-.2-2.2-.6zM478.8 192.2l-1.9.7c1.7-.1 2-.4 1.9-.7zM487.6 193.1c1-.5 2.1-1 3.1-1.6-1.2.6-2.5 1.1-3.7 1.7l.6-.1zM470.3 191.8l1-.8-1.9 1.2zM465.2 192.3c.8-.6-1.2-.9-.3-1.3-1.4.2-2.5.7-3.5 1.2 1-.3 2.2-.2 3.8.1zM459.6 192.9c.6-.2 1.1-.4 1.8-.7-.7.2-1.2.4-1.8.7zM473.4 193.2c-.2-.2-.5-.6-1.7-.7l.9.8c.3-.1.5-.1.8-.1zM472.6 193.3c-.9 0-1.5 0-1.7.1.2-.1.7-.1 1.7-.1zM473.6 193.1h-.2c.1.1.1.2.2 0zM482.2 193.2c-1.1.7-3.5 1.4-1 1.9.8-.8-.7-1 1-1.9zM474.7 194.1h2.2c-.1-.2-.5-.5.1-.8l-2.3.8zM473.7 194.5l1-.4h-.8zM463.3 193.6c-.9.4-1.9.5-3.1.6 1.2.1 2.5.2 3.7.1.2-.3.7-.8-.6-.7zM467.8 193.5c-.1 0-.1 0-.2.1.2 0 .3.1.2-.1zM448.9 194.4l.2.2v-.1l-.2-.1z"/><path class="st0" d="M464.1 194.4c.9.1 1.5-.2 2-.5-.7.1-1.4.2-2.2.3 0 .2-.1.3.2.2zM456.5 193.4c.5.2 1 .3 1.6.4-.5-.2-1.5-.6-1.6-.4zM467.3 193.4h.1c-.3-.2-.2-.2-.1 0zM467.3 193.4c-.5.2-.8.4-1.2.6.6-.1 1.1-.2 1.5-.4-.1-.1-.2-.2-.3-.2zM445.4 199.8c.2-.8 2.7-1.5 4.8-.7 2.1-.6.7-3.2-1.1-4.7-.1.3-.1.7-2.2 1.1.7.4 4.7 1 2.9 1.7-2.8.4-2.3-.3-3.7-.7 1.2 1-3.6 1.3-3.1 2.8l2.5-.4c.1.4-.8.7-.1.9zM453.2 194.6l.9-.1c-1-.1-1.7-.5-3-1.1-1.4.4-1.7.7-1.9.9l4.3.1-.3.2zM458 194.4c-.7.9-2.8 1.3-1.4 2.2 2.6-.2 1.8-.8 3.3-1.2-4.2.3 1.1-.5-1.9-1 .8-.1 1.6-.1 2.3-.2-.7-.1-1.5-.2-2.1-.3 0 0 .1 0 .1.1.2.1.2.2 0 .1h-.1c-.1.1-.2.2-.2.3-1.2-.1-.2-.2.2-.3v-.1c-1.4.2-2.7.4-4.1.6.8 0 1.9-.1 3.9-.2zM479.2 197.1l-.2-.2c-.2.2-.3.3.2.2z"/><path class="st0" d="M477.4 196.8c.3-.2.5-.5 1.5-.5.9.2 0 .4.1.7.6-.3 2-.8.1-1.1l-.3.1c-1.7-.1-4-.9-3.7-1.1.6.8 1.1 1.3 2.3 1.9zM467.5 196l-3.4.7 1.8.6-.1-.4c2 0 1.5-.5 1.7-.9zM448.6 193.9l.4-.9-2 1.3zM444.1 194l.2-.8-1.2.4zM191 209.4l-1.1.3c.6-.1.9-.2 1.1-.3zM198.8 208.4l.1-.4c-.3.2-.5.4-.1.4zM333.6 176.6c-1.5-.8-3.2-2-3-1.1l.4.9c1.1-.1 1.9 0 2.6.2zM257 187.6c.2.1.3.1.5.2.3-.4.6-.7.8-1-.4.2-.8.5-1.3.8zM256.7 191.3c-.7-.1-1.4-.1-2-.2.4.1 1.1.2 2 .2zM148.4 206.1c-.5.2-1 .3-1.5.4 1.9.7 1.2 0 1.5-.4zM399.2 187.5c-1.1-.7-2-1.1-2.8-1.4 1.2 1 2.2 2 2.8 1.4zM192.9 199.9c-.6.2-.8.5-.8.6.6-.2.9-.4.8-.6zM392.6 185c.2.2.4.3.6.4 1 .1 2 .3 3.1.7-1-.6-2.2-1.3-3.7-1.1zM91 94.9h-.3.3zM93.4 119.8c-.5.3-1.3.7-2.1 1 .4-.1 1.1-.3 2.1-1zM426.2 192.3c1 .1.2-.1 0 0zM430.5 196.2c-.2.1-.4.2-.4.4.1-.2.2-.4.4-.4zM381.7 187.7c.2.3.2.2 0 0zM427.6 192.9c-.3-.2-.7-.3-1.2-.4.2 0 .6.2 1.2.4zM427.5 192.4c.3.1.6.1.8.2.1-.1 0-.2-.8-.2zM424.9 192.2l1.5.3c-.2-.1-.2-.1-.2-.2-.2 0-.6-.1-1.3-.1zM108.1 150.2c0-.1 0-.1.1-.2-.4-1-.4-.5-.1.2zM308.4 185.6h.1-.1zM305 186.4c1.4-1.1 2.3-1 3.4-.8l-1.2-2.5-2.2 3.3z"/><path class="st0" d="M172.3 210l2.5.9c-3.2 1.1-5.5.5-3.1 1.8.3-1.4 2.8-1.2 5.3-1.3 2.5 0 5-.2 5.2-1.5l1.7.5c-.5 0-.6.1-1 .1 1.7.6 2.3 0 3-.6.7-.7 1.5-1.4 3.6-1.4 1.5.1 2.5.4 1.6.8 1.1-.3 2.1-.7 3.2-1.1.9-.1.8.4-.2.5 1.6-.3 3.3-.6 4.9-1v.1c.6-.5 2.1-1.5 2.8-1.9 1.3.1-.6.4-.2.7.9-.4 1.7-.8 2.5-1.2 1.2.4-.8 1.6-2.7 1.9 1.5 1.1 2.1.8 2.9.3.4-.3.9-.6 1.7-.8s1.8-.4 3.2-.4c-.8.3-1.6.7-2.4 1 2 1.1 3.9 0 7 .2-.8-.2-6.4-.8-3.6-2.2.9 0 2-.2 3.3-1.2.3.9 1.7.2 3.6-.4l.3 1.3c1.9-1 1.5-1.6 2.5-2.5 2.3-.7 3.1.1 3.9.7 3.4-.9-2.9-.7 1-2.3 3-.5 4.8-1.7 7.9-3.5 2.1-.2-.1.9.7 1l1.5-1.5c.4-.1.4.2.4.4 1.4-.8-.2-1.3 2-2.3.1-.8 1.5-.6 3.1-.6 1.6.1 3.5-.1 4.8-1.1.8.2-.2.8.2 1.3 3.8-2 3.3-1.5 6.3-3.7l3 .2c-2.3-.4.1-2.2 2.4-3.6-.9-.3-1.6-.6-2.1-.7l3.7-1.4c.5.1.2.6-.3 1.3.2-.2.5-.3.6-.4 1.5.2.9 1.1 0 2-.5-.2-1-.3-1.5-.5-.8.9-1.5 1.9-1.2 2.6.2-.2.7-.4 1.2-.6-.2.3-.3.5-.2.6.2.1.5-.2 1.1-.7l1.1 1.2.1-.6h5.1c.8-.5 1.6-1.1 2.4-1.6s1.7-1.1 2.6-1.6c1.8-1.1 3.9-2 6.8-2.7-1.3 1.2-.1 1.7 0 3-1.7-1.1-4.3 1.2-7.3 1.3 1.6-.1 1.3.5.9.8l5.1-1.9c0 1 1.2.6 2.6.8-.6-.9.3-1.4 1.6-1.7 1.4-.3 3.1-.5 4.2-.9.2.7-.2 1.4-2.9 1.5 3 1.2 3.5-2.7 6.4-1.8-.6.1-1 0-1.2.4 1.4-.8 5.1-.7 4.3 0l-.6.1c2.1-.1 5.4-.3 8.1-.7 2.8-.4 5.1-1.1 5.4-1.9.1.2-.5 2.1-.7 2.4 2.4-2 4.9-4 7.4-6-.6 1.5 2.1 4.9-1.5 5.8 1 .2 2.3.4 4.4-.2-.7-.2-1.8-2-.8-2.2 2.6 1.5 1.8.8 5 2.2-1-.3.1-2.6 1.7-2.5-.3.3.1 2.3-.4 2.5l4.1-2.3c-1 .4-.2 1.9.7 2.5-.2-.2.7-.2 1.7-.2 1.1 0 2.3.2 2.9.1l-1.7-.6c4.6.5 4.6-3 9.2-2.8-.6.4-1.5 2.8.8 3.2 1.1-1.1 5-5.2 9.2-5.9l.7.7c1.1-.2 2.1-.4 3.2-.5-2.1 1.5-7.9 4.9-10.9 6.1 1.7.6.4.8 3 .9.9.7-1.5.8-2.2.8l5.9.8c-.1-.7 1.1-.9 2.3-1.2 1.2-.2 2.3-.4 2.3-.9-2.2.2-4.4.6-6.6.9-.1-.7.9-1.6 2.5-2.2 1.6-.7 3.7-1 5.8-.7 1 .6-1 2.3-1 2.8.6-.4 4.1-.5 4.5-.1l-1.9.5c1.1.4 2.1 0 3.2-.2s2.2-.4 3.5.5c1 .2 2.7 2.1 2.9 1.4-1.4-1.7-1.1-6.5.2-7.5.3.2 5 2.2 6 3.1.7.7 0 1.3-.8 1.9-.7.6-1.5 1.2-.9 1.8.1-.4 1.1-.7 1.5-.7 1 .5-.6 1 1.6 1.3.6-1.3 4.5.9 1.2-.9 2.2 0 2.2.7 4.8 1.1-.3-.5.4-1.1 1.5-1.6s2.5-.8 3.7-.7c-.2.3.2.9.4 1.1 2.2.6 3.9 1.1 5.4 1.8 1.6.7 3.1 1.3 5.1 1.9.3.4 2.1 1.4 1.1 1.7.6-.1 1.3-.3 2.6 0 2.1 1.9-2.9-.7-1.5 1.2.4-.7 3.6-.1 5.6 0-.2-1.3-4.1-1.5-6.1-1.5.5-1.6 4.2-2.4 8.5-1.9 3.5.4 1.2 1.4 1.8 1.3 3.2.9 4.7.5 6 .2s2.5-.7 5.1.4c1.9 1.4-.3 2.1.1 3-1.4-.1-2.5-.4-3.4-.8-.9-.4-1.7-.8-2.7-1l1.1.5 1.1.5c-1 .2-2.9 0-3.8-.5.4.3 1.3.7 2.4 1 1.2.3 2.7.6 4.2.9 1.6.3 3.3.6 4.8.9 1.6.3 3.1.6 4.4 1 .9-.2 2.5-.4 1.9-.9l-1.6-.1c-1.4-1 3.1-.8 1.2-1.5 2.2-.3 4.7-1.1 7.6-.3l.5 1.3c0-.4-1.9-.9-2.8-.6 1.3-.4 4.5 2 6 .6l-2-1c2.2-.4 4.9-1.6 7.5-1.1-1.2-1.3-.6.1-2.4-1.4.8.9-.9.8-2.5.8-1.6-.1-3-.3-1.8.8-1.8-1.8-3.3-1-5.6-2.6 0 .4.8.8-1.4.5-.1.1-.4.2-.5.3h-.1s.1 0 .1.1c-.1 0-.1.1 0 0 .5.3.9.5 1.1.7-1.2.8-4.7.3-6 .7-1.3-.4.6-.4 0-.9l-1.9.5c-.1-.9-3.2-1.9-.1-2-.9-.1-1.8-.3-2.7-.5-1.5-.8-3.7-1.4-5.1-1.2-1.3-.4-3.4.3-2.2-.1l-4.3-.4v-.2c-1-.3-2.1-.4-3.2-.6l-3.3-.6c-1.1-.2-2.2-.5-3.3-.9-1.1-.4-2.3-1-3.4-1.7-1.5-.2-3.1-.4-5.5-1.4l-.3-.9c-2-.2-5.6-2.1-6.6-1.5-.8-1.3-3.1-1.9-5.7-2.2-2.5-.3-5.3-.6-6.9-1l-.3 1c-2.3-.4-4.6-.4-7.6-.4l.1.9c-2.6.4-6.3-1.3-10.3-1.7.3-.3 1.3-.1 2 .2-1.1-.6-2.3-.9-3.6-1-1.2-.1-2.5.1-3.7.2-2.5.3-4.9.6-7-.3-1.1.2-1.9.1-2.6-.1h.3-.4c-.5-.2-.9-.4-1.5-.5.4.2.9.4 1.2.5-.8 0-2.1.1-3.3.3l-.5-1h-.3c-1.2-.4-1 .4-.4 1.2-.6.1-1.2.3-1.6.5-.9-1.6-3.2.4-4.5-1.2-.8.8-6.2.6-6.8 2.3 0-.2-.4-.3.3-.3-1.4-.2-2.7-.4-3.9.1l-.6-1.2-2.9 1.8c-1.8-.7-2.6-1.1-.8-2.1-4.3 1.6-3.5.7-7.1 2.2l.1-.8c-1.3.1-3.3 1.3-4.2.7-1.5-.6-5.2-.5-9.4-.1-2.1.2-4.3.4-6.5.6-2.2.2-4.4.1-6.3.1 1.8 2.1-3.6-.5-3.7 1.3-.5-.5-1.6-.6-.5-1.3-3.8 1.1-5.9-.1-8.3 1.9-.5-.5.7-.9.2-1.2-.3.2-1.1.7-1.6.4-.4-.3.5-.6 1-.9-3.9.8-4 2.6-4 4.2-2.1-.4-3.1-.1-4.3 1.2-.8-.4-2-.7.3-1.3-.7.1-2.8.3-4.7.8-1.9.4-3.6 1-3.6 1.6-.5-.2-1.9.3-2.2.6-3 .6-3.3.6-6.2 1.6h.9c-.7 1.8-2.3 1-4.6 1.9v-.2c-5.7.5-2.2 1.1-7.8 1.7l.6.8c.2 2.1-5.1.4-7.8 2.2l1.3.1c-1.4 1.2-5.5-1-7.1-.8-.4-.1.5-.4.9-.7-4.6.2-.2 1.4-3.2 2.6-.8-.5.2-1.9-1.9-1.4-.6-.1-2 .8-3.7 1.7s-3.6 1.7-5.2 1.4c.8.4 1.5.7.1 1.5-1.1.3-2.8.1-4.4.1-1.6 0-3.1 0-4 1-.3-.1-.4-.2-.5-.3-1.7.6-5.7 1.3-6.8 2.2-.9-1.6-3.7-1.1-6.3-.6-1.3.2-2.5.4-3.5.4-.9-.1-1.5-.4-1.4-1.1-1.8 0-3.7-.2-5.5-.3l.2-.3c-3.4-.6-4.8-.1-6.1.4-.8-.3-.1-.5 0-.7-2.5-.8-3.8-1.2-5.1-1.4s-2.6-.1-4.9 0l-.1-1.1c-.3 0-.9-.2-1.7-.5-.7-.4-1.7-.9-2.7-1.4-2.1-1.1-4.5-2.4-7-3 .1-.1.3-.2.7-.2-2.7-.7-5.4-3-7.3-4.8-.9-1-1.9-1.9-2.8-2.4-.9-.6-1.8-.8-2.8-.5l-.8-.5-.8-.5-1.6-1c1.5 1.8 1.1 2 .4 1.9s-1.7-.5-1.2.5c-1.6-1.3-2.4-4.6-.8-2.8l.1.4c1-.3.2-1.6-.7-2.8-.9-1.3-1.8-2.7-1.2-3-2.6-3.8-4.4-8.2-5.5-12.5-1.2-4.4-1.7-8.7-2-13l-1.4 1.1c-.1-1-.1-2-.1-3.1.3-.8 1.1-1.1 1.1 1 .8-1.1-.8-3.6-1.1-3.7.4-2.1.8-1.7 1.1-.9.2.4.3.9.4 1.2s.2.4.2.1v-1.7l-.2.4c-.5-1.4-1.2-1.6-.9-4.2.5-1.6 1-.7 1.1-1.4.1 0 .2-.2.2-1 .2-1.3.5-2.5.8-3.8l-1.4 1.3c-.2-1.8.8-3.7-.9-2.1 1.2-1.1 2.2-4.8 3-8.4.8-3.6 1.2-7.3 1.6-8.1-.5-2.7-.2-5.3-.2-8.6-.2.8-1.5 1.3-1.4-1.4.7.2 1.1 0 1.3-.5.2-.5.2-1.3.2-2.2s-.2-1.9-.2-2.9-.1-1.9.1-2.7c-.1.6-.4.4-.7-.1-.2-.3-.4-.7-.6-1.1s-.5-.9-.8-1.3-.5-.9-.8-1.2c-.2-.4-.5-.6-.8-.8-.4-.3-.7-.2-.6.8-1.2-2.2.8-.7.2-2.6-2.3-2.2-4.9-4.6-8.2-6.4-3.2-1.8-7.1-2.9-11-2.6-.1.4 1.1.8-.4 1.4-.7-.2-1.3-.5-2-.7s-1.4-.4-2.2-.5c-.8.2-1 .9-1.4 1.3-.4.5-1 .7-2.5.7.5.1 1.2.3.3.8-2.9.8-5.8 2.4-8 4.8-1.1 1.2-2.1 2.5-2.8 4-.4.7-.7 1.5-1 2.3-.2.8-.5 1.5-.6 2.3-.7 3.2-.6 6.5.3 9.7.5 1.6 1.2 3.2 2.2 4.6 1 1.5 2.2 2.7 3.8 3.9 1.3 1 2.9 1.6 4.6 2s3.3.4 5 .2c-1.3 0-1.5-.2-1.2-.4s1.2-.4 2-.7c-1.2.2-.2-.8-.6-1.2 2.3-.3 4.5-1.1 6.5-2.6 0-.9 1.2-2.4 2-4.2.8-1.9.8-3.9.1-4.2.1.8.1 1.5 0 2.3-.5-1.7-1.4-.6-2.6.2s-2.6 1.1-3.3.5c.2 1.3-1.4 2-2.9 2.2-.8.1-1.5.2-2.2.4s-1.3.4-2 1c-.5-.4.5-.6.2-1.1.1-.4-.8-.3-1.8-1.1-.1-.1-.2-.3-.4-.4l.3-.1c-1-.6-1.6-1.4-2.1-2.2-.3-.4-.4-.9-.5-1.3-.1-.5-.2-.9-.3-1.4-.2-1.9 0-4 1.1-6.6-.3 0-.7.1-1 .1.5-1.2.9-1.3 1.3-1.7-.2-.5-.3-.5-.5-.3s-.4.6-.6 1-.3.9-.5 1.1-.4.3-.7-.2c1.2-.6 1.9-2.7 3.4-4.3 1.4-1.7 3.4-2.8 4.4-2.1.8-.4.6-.6.3-.8-.2-.2-.5-.4.4-.8l.7.4.2-.9c.6-.2 1.2-.1 1.6.1s.6.4.7.7c-.3 0-.8.4-1.1.5.4.1.9 0 1.4-.1l1.5-.3c1-.2 1.9-.5 2.2-.3-.6-.2-1.2-.2-1.9-.3 2.6-.5 5.8-.1 8.5 1 .6.3 1.3.6 1.9 1 .3.2.6.3.9.5s.5.4.8.6c.1.1.3.2.4.3l.4.3c.2.2.5.4.8.6l1.5 1.5.1-.6.5.5c.1.2.3.4.4.5.2.3.4.6.5.9.3.5.4 1 .4 1.4.1.5.1.9.3 1.6.1.7.3 1.4.6 2.6l-.1-.2c.6.9 1 2.2.9 3.6-.6-1.2-.9 2.4-1.6.7.4 2.4.5 3.1.7 3.5s.6.6 1.2 2.5l-.8.7c.5 1.3.9 1.4.6 4.1-.3-2.3-1.4 1.5-1.8-1.1-2.6 5.2-.1 8.6-2.9 10.7 1.5 3 2.1-4.7 2.3-3.1.9-1.1 1 2.5.5 4.2-.2.9-1 1.5-1.9 2.6-.9 1-1.8 2.4-2.1 4.8.1-.5-.1-.5 0-1-.4.8-.3 1.8-.3 2.8s0 2-.4 3.1c1.2 1.3-.2 3 1.4 3.3-.1-1.5-.2-3-.2-4.5.1 1.3.7 2.5 1 3.9.2.7.4 1.5.5 2.3v1.3c0 .5 0 .9-.1 1.5-.3-.3-.9-1.5-1.1-2.3-.5 1.2.5 2.3.1 3.6-.8-.1-1-1.5-1.2-3.1-.1-1.7-.1-3.6-.6-5.1-.8 1.4 1.2 5.2-.6 3.9.6.5.8 1 .9 1.6s.2 1.2.1 1.9c0 .7 0 1.4.1 2.2.2.8.4 1.5 1 2.3l-1-.1c.2.5.8 1.5 1 2.5-.5-.5-1.1-1-1.5-1.5.7 1.3.8 2.6.8 4s.1 2.7.7 3.9c-1.5-5.4.7-1.5.8-3.9 1.5 3.1 1.1 4.1.8 5.4-.3 1.2-.8 2.7 1 6.2-.5-.9-1-3.8 0-2.5.2.7.4 1.5.5 2.3s.3 1.5.3 2c2.5 4.5.5-1.1 2 .5-.1 1 .3 1.5.9 2 .6.4 1.4.8 2.1 1.6l-.8.5c1.3 2.6 2 2.6 2.6 2.6s1.1-.1 2.4 2.1l-2.4-.9 2 1.9-1.2.3c1.2.9 2 1.5 2.7 2.2s1.2 1.5 2.2 2.6c0-1 1.5-1 3.4.6 1 1.5-1.3.1 1.5 2.2-1 0-2.2 0-2.8-1.7-.3.1-1-.1-1.3 0 .5.9 1.4 1.7 2.3 2.3.5.3.9.6 1.3.9.4.3.8.5 1.1.7-.2-.2-.4-.4-.7-.6-.2-.2-.3-.4-.4-.5 1.8.8 3.5 1.4 5.2 1.9.5.7-.2.7-.9.6 1 .5 1.8.4 3.2 1.1-.7.5-1 1.3-3.2.5 1.6.6 3.2 1.1 4.8 1.6.1.5 1.9 2 1.2 1.9 1.2.8 2.9 1.1 4.7 1.5 1.8.3 3.7.6 5.3 1.5.2-.1.6-.1 1.4 0 3.2 1.1 5.9 2.9 10 2.6.6.6 1.3 1.2 2 1.8 3.1.2-2.7-2.2 2.5-1.9 3.7 0 1.2 1.4 2.4 1.9 1.9-.5 5.2-1.6 8.5-.3-.9.6-1.7.4-2.8.4zm37.6-4.5c-.7.4-1.9 1.4-2.6.9.6-1.3 1.4-.9 2.6-.9zm52.7-17.1c-.5.4-1.3.4-2.2.2.6-.1 1.4-.2 2.2-.2zm153.3 3.2c-1.5-.6-1-.4 0 0zm3.1.9c.3-.1.3-.2.2-.4-.3.2-1 .1-1.8-.1.2.3.6.6 1.6.5zm-304-52.1l-.3.6c-.1-1.5.1-1 .3-.6z"/><path class="st0" d="M256.7 190.9c-.2-.1-.3-.3-.4-.5-.2.2-.2.4.4.5zM148.7 206h-.1c-.1 0-.1.1-.2.1l.3-.1zM368.3 188.9c-.6-.3-1-.5-1.2-.7-.1.3.2.5 1.2.7zM436 192.8l-2.1.1c1 0 1.3.3 1.8.5 0-.3-.4-.7.3-.6zM453.8 199.2c.3-.1.7 0 1-.1l-.1-.4c-1.3-.1-2.2.3-.9.5zM437.7 196.1c.1.8 1.4.6 2.9.5h-.3c.5-1.1-1.1-.8-2.6-.5zM440.9 196.6h1.3c.3-.4-.5-.1-1.3 0zM423.1 192.6c.6.3.6-1 .9-.6.9-1-4.7.6-.9.6zM438.7 198.8l-.5-1-.8.7zM427.2 197.2c.8.2 1.5.3 2.3.5 0-.2.3-.2.7-.3-1.5-.2-3-.5-3-.2zM430.2 197.4c.7.1 1.5.1 1.9 0-.4-.1-1.3-.1-1.9 0zM435.5 198.9l-.7-.2-1.6-.3zM402.5 192.5l-2.5-.5c-.3.3.3.7 1.2.8.7 0 1.6.1 1.3-.3zM409.5 197c-.6-.4-.6-.6-1-1l-.3 1.2 1.3-.2zM402 195.5c-.3.3-3.9-.1-.7.8.4-.3 3 0 .7-.8zM364.9 185l.7.1.2-2.1zM330.9 186.9c3 .6.8-1.2 3.4-.5.7-.5-2.2-.6-1.5-1-1.7.5-2.7.2-1.9 1.5zM332.9 185.4l.9-.3c-.5.2-.7.3-.9.3zM100.9 113c.5-1 .9-2 1.1-3.1-.3.7-.6 1.3-1 1.9 0 .4 0 .8-.1 1.2zM100 107.1c.4-.3.8-.6 1.1-.9-.5-.5-1.2-1-1.8-1.4.3.6.9 1.8.7 2.3zM216.1 206.4l.1-.3c-.4-.2-.9-.1-1.8.1l1.7.2zM188.6 210.9h.5l-1-1.1zM164.8 211.8c1 .2 2.1.1 3.1.2-2.1 0-3.1-1.7-3.1-.2z"/></g><g><path class="st0" d="M580.7 169.4c-.3.2-.8.6-.7.5l1-.7-.3.2zM579.1 171c.5-.3 1.4-.8 2.2-1.5-1 .6-.6.3-1.7 1-.1 0 .3-.3.6-.5-.3.2.2-.2-.5.2-.7.6-.7.7 0 .3-.2.2-.4.4-.6.5zM580.6 176.4l.1-.1c-.1 0-.1 0-.1.1zM582 179.4s-.1.1-.2.1c0 0 .1 0 .2-.1zM581.2 180.6s.1 0 0 0c0 0-.1.1 0 0zM580.6 176.4l-.3.3c.4-.3.3-.3.3-.3zM581.8 169.9c-.1 0-.2.1-.3.1h.1c.1 0 .2 0 .2-.1zM579 175.7c-.1.1-.3.1-.4.2l.4-.2zM578.2 174.9s.8-.5 1.2-.8c-.3.2-.5.3-.6.4-.2.1-.4.3-.6.4zM578.6 172.5l-.1.1.1-.1zM579.3 176.5c-.1.1-.2.2-.3.2.1 0 .2-.1.3-.2zM603.3 197.4c-.1 0-.1.1-.1.1l.1-.1zM600 201.4c-.2.1-.4.2-.5.3l.5-.3zM580.8 182.2c-.1 0-.1 0 0 0zM586.8 189.4c.7-.6 1-.5 1.8-1.2-.4.2-1.4.8-1.8 1.2zM581.7 170c.1 0 .1 0 0 0 .1 0 .1 0 0 0zM588.5 188.2c.1 0 .1 0 0 0zM582.6 183.8l.3-.3c0 .1-.1.1-.3.3zM582.8 181.5l-.1.1.1-.1zM584.3 183.7c-.1.1-.2.1 0 0 0 .1 0 0 0 0-.1.1-.1.1 0 0zM584.8 184.5c.1 0 .1-.1.2-.1h-.1l-.1.1zM601.2 195.4c-.2.2-.5.4-.7.6.6-.5.9-.5.7-.6zM581.4 170.3c.2-.1.3-.2.4-.2h-.1c-.1 0-.3.1-.3.2zM590.8 179.2v0zM597.2 189.9c.1-.1.1-.1 0 0zM591.1 179.6c-.3.2-.4.4-.5.5.1 0 .1-.1.2-.1l.3-.4zM600.5 195.9z"/><path class="st0" d="M603 195.4c-.1-.1-1.1.7-1.7 1.1-.4.1.8-.6 1.3-1.1-.3.1-1.4.7-1.4.7.2-.1.2-.2.5-.3-.9.5-.2-.2-1.4.4.1-.1.2-.1.3-.2-.5.4-1.1.8-1.5 1.1-.1 0-.8.4-.1-.1 0 0 .3-.2.5-.3l-.3.2c1-.8.4-.2 1.2-.7-.4.1-1.3.6-1.1.3 1-.7.5 0 1.3-.8l-.3.4c1.5-1.2-.1.2 1.6-1.1.2-.4-.6.2-.5-.2-.6.4-.8.6-1.4.9-1.2.5 2.4-1.9.9-1.2-.7.4-2 1.3-1.4.7l1.2-.7c0-.2-1.7 1-1 .3.5-.3.5-.1.6-.3.8-.7-.7.4-.8.3l1-.7c-.3-.1-1.1.3-1.4.2l.9-.6c-.7.1-.2-.6.2-1.2l-.9.5s.4-.3.5-.4c.3-.3-.5.4-.9.6-.1 0 .4-.4.7-.6-.8.4-1.9.7-1.1-.2l.3-.1c.3-.4-1.9 1.1-1.1.4l.2-.1c.2-.5-.8-.3.3-1.4-1.3.8.4-.7-1.4.5.7-.8 1.1-.9 1.5-1.6 0-.1-1.1.7-1.4.7l.9-.6-1 .6 1-.8-.3.1c0 .1-.4.3-.6.5-.5.2.4-.7.9-1l-.9.3c.4-.2.5-.3.8-.4-1 .5.9-.7 0-.2-.2.2-.5.4-.7.5.5-.4.4-.6.1-.5l.6-.4c0-.3-.6-.2-.7-.4-.2.3-1.3 1-1.5 1l.9-.7c-.6.4-.3.3-1.1.7.1-.2 1-.8 1.4-1l-.4.1c.3-.2.4-.3.8-.5-.6.4.8-.8-.2-.2l.3-.2c-.1-.2-.5-.1-.7-.2-.8.6-.7.4-1.4.8.2-.3.7-.9.5-1-.5.2-.7.5-1.2.8.7-.5.6-.6 1.2-.9-.3-.1-.3-.1-1.1.1-.3.2-.4.4-.7.5-.2 0 .2-.3.6-.6h.1c-1.3.5 1.7-2.2 0-1.3h.1l-1 .4c.1-.2.6-.3 1-.7-1.4.6-.1-.5-1.1-.1 2.1-1.7-.5-.4.7-1.6l-.5.4c-.5.3.3-.3.3-.4-.4.3-.4.4-.7.6-.9 0 .1-1.5.2-2.3 0-.3-2.8 1.8-1.7.7l1-.6c-1.4.5-.5-.7-1.7-.4.2-.1.5-.3.5-.3.7-.6-.1-.3-.7.1 0-.1.5-.4.8-.6.4-.4-1 .5-.3-.1.1-.1.2-.1.3-.2-.4.2-.1-.3-.8.3.3-.4-.5 0-.1-.4-1 .6.3-.5-1 .4 1.3-.9.9-1 .2-.6.4-.3.4-.4.9-.7-.1-.1-.4 0-1.1.5 1.5-1.3-1.5.6.5-1-.9.2-1.6.3-2 .3 1.3-.9.3.2 1.7-.8-.7.2-1.9.8-1.8.4.1-.2.6-.4.8-.5-.7.2-.2-.5-1.1-.2.1-.1.3-.2.4-.2-.1 0 .1-.2-.5.2l.2-.1c-.8.7-1.9 1.1-2.4 1.4 1.8-1.1.3-.5 2.5-1.9-.1.1-.4.2-.8.5.1-.1.3-.3.8-.6-.4.1-1 .6-1.1.4.3-.2.4-.3.8-.5-.6.3-1.2.7-1.1.4.2-.1.4-.3.4-.3-.2-.1-1.7.7-1.3.1 1.3-.8.4-.4 1.5-1.1l-.4.1-.5.4c-.1-.1-.9.4-.6 0l.5-.2h-.3l-.3.4c-.6.3-1.4 1-1.2.6.1-.1-.1-.1.6-.6-.4.2-.8.4-.6.1.3-.3 1.2-.8 1.4-1-.9.6-.4-.1-1.4.6.2-.1.8-.5.9-.6l-.8.5c.2-.2.3-.3.8-.6 0-.2-1.4 1-.9.4.1 0 .2-.1.3-.2.2-.4-.7 0-.4-.4 1.1-.8.4-.1 1.3-.8-.4-.1-1.6.5-1.5.1l-.1.1c-1.6 1.1.7-.7-.1-.3.1-.1.9-.6.7-.5.1-.3-.6 0-1.2.1l.4-.3c.3-.3 0-.4.2-.6-.4.3-.4.2-.9.6 2.1-1.9-1.6.3.1-1.3l.4-.2h-.5c-.7.5-.4.3-.9.7-.4.3-.8.4-.8.4.5-.2 1.1-.8 1.4-1.1-.2.2-.4.3-.6.5 1.1-1-1.4.9-.7.2l.4-.2c-.2.1-.7.4-.7.2.8-.6.4-.2 1.1-.6-.1-.1-1.6.9-.9.2.2-.1.3-.1.5-.2.9-.7.6-.6.7-.7l.3-.4-.2.2c-2.1 1.3-.5 0-2 .8 1.4-.8.7-.5 1.6-1.1.2-.2.5-.5.7-.6-.8.4.5-.5-.6.1.3-.2 0-.1.7-.6-.3.1-.5.4-.8.6-1.1.6 1-1.2-.5-.4-.7.2-1.7.9-2.2 1 .4-.4 1.1-.7 1.1-.7.4-.4.2-.4-.1-.2.3-.2.5-.3.8-.6-.1 0-1.1.7-.7.3.3-.2.9-.5 1.2-.7-.3.1-.9.4-1.2.5.5-.4.8-.5 1.1-.7-.3.1-.6.1-1.4.6l-.2.3c-.1 0 .7-.5.8-.6.7-.4-.2.3-.5.5l-.2.1c-1.6 1.2.4 0 .4.2l-1.3.8 1.1-.6c-.3.2-1 .7-1.2.8-.5.5.5-.2-.1.3-.1.1-.2.1-.2.1l.4-.2c-.3.2-.8.6-.7.4-.6.6 1.1-.4.2.3h-.1c.6-.1.9-.6 2.1-1.2l-2.1 1.7.9-.6-.4.4c.7-.4.4-.3 1-.7-.7.7.6 0-.8 1 .7-.4.5-.5 1-.7-1.5 1.1.3-.1-.3.5-.8.5-.5.1-1.1.7 1.4-.9-.2.4.1.3 1.1-.7.6-.1 1-.3-.4.2-.4.6-.7 1l-.2.1c1.1-.7 1-.5 1.3-.5-.6.5-.9.6-1.2.8l.1.1c.4-.2.6-.3.7-.4l-.8.5c.1.1 1.1-.4.7.1.8-.5 2-1.6 2.6-1.8-.4.3-1.1.8-1.3.9.1 0 .4-.2.2 0l-.7.4c-.3.3.6-.4.6-.3-.6.4-.4.3-.8.6-.1 0 .2-.2 0-.1l-.8.8c.3-.2.8-.5.9-.6.1.1-.7.5-.9.8.4-.3.1.1.9-.5 0 0-.4.3-.6.5.4-.2.3.2 1.2-.5l.1-.1c1-.4-.2.7.3.7l-.3.2c.4-.1.4.1 1-.2 0 0-.5.4-.8.7.3-.1.6-.3.2.2-.6.3-.4.3-.4.2-.2.3-.6.6.3.2-.8.5-.9.7-.6.6l.5-.5c.1 0 .1.1.1.2l-1 .7c-1 1.1 2.3-1 .4.6.7-.4.4-.5 1.2-1-.1.2-1.4 1.3-1.4 1.3-.4.5 1.5-.9 1.3-.5.3-.3 1.2-.9 1.7-1.1-.1.2-1.4 1.2-1.7 1.3l.2-.2c-.2.1-.3.1-.7.4l.4-.2c-.3.3-.2.4-.8.8.4-.2.6-.4.7-.6-.4.5.1.2-.1.6.2-.2.6-.5.6-.4-.3.5.7-.4 1-.3-.5.5-1.3.9-.7.7-.3.3-.9.7-1.2.8.8-.3-.3.5-.3.7l-1.3.2c.2-.1.2 0 .2 0l.7-.5c-.1.1-.1.2-.4.4.5-.3 1.1-.8 1.8-1.2-.3.3.5-.1-.4.6.2-.4-.9.7-1.2.6.1-.1.1 0 .1.1-.1.1-.2.1-.3.2-.7.7 1.1-.7 1.2-.5-.5.3-1 .7-.8.7 0-.1.8-.6 1.3-.9-.3.4.4-.1.4 0l.1-.2c.5-.3.5-.2.7-.3-.4.3-.3.1-.5.3 1-.6-.8.8-.1.5-.3.3-1 .7-1.2.9.8-.4-.6.6 0 .4.7-.5.5-.4 1.2-.8l-.6.1 1.1-.6c0-.1-.5.2-.4 0 .6-.3.4-.2 1-.7-1 .8.7-.3.1.3l-1.7 1.2c-.7.7 1.1-.4.8.2l.3-.3c.7-.5.2.1.5-.1-.6.4-.8.6-1.1.9.4-.3.1.2 1.2-.6l-.7.6c-.2.4 1.8-1 1.7-.7-.7.4-1 .8-1.5 1 0 .1 0 .2.4-.1-.3.3.9-.4.4 0 .3-.2.9-.6.9-.5-.1.1-.3.2-.3.2.3-.2.5-.2 1.1-.7-1.7 1.4.4.4-1 1.6.3 0 .6 0 .7.1-.2.1-.3.2-.2.1-.4.5 1.7-1.1 1.2-.5-.9.7-.6.3-.9.6-1.9 1.4.4 0-.6.9l-.1.1c-.6.5.9-.3.8-.1 0 0-.2.1-.3.2 1-.6 1.5-.6 1.8-.7-.8.5-.4.2-1.2.8.1 0 1.2-.9 1.5-.9-.4.3-.7.7-1.5 1.2l-.1-.1c-1 .8.1.1 0 .3l-.5.3c.3.1 1.4-.7 1.5-.5l.3-.3c1.2-.7-.6.5.3 0l-1.1.8c.3-.1 1.3-.6 1.6-.6-.9.5-1.4.7-2 1 0 .1.2.2.8-.2-.1.1-.4.2-.3.1 1-.6 1.5-.8 1.6-.6-2.3 1.6-.3.7-2 2.1 1-.4 0 .7.3.9 1.7-1.3.1 0 1.9-1.2.2 0 .1 0 0 .1l-.9.9c-.5.4-.4.2-.8.5 0 .2-.7.6-1.1 1 .6-.5.9-.6.8-.3l.7-.7c1.1-.5-1.4 1.2-.3.8l-.6.3c.4-.1.2.4 1.7-.5-.2.2-.7.5-.8.6 0 .4 1.9-.6 1.1.3l-.4.3c.2 0 .9-.5.5-.1-.2.1-.4.3-.5.3.2-.1.8-.4.6-.2l-.5.3c-.4.6 1.4-.5 1.9-.5-1.3.9-1.6 1.4-1.7 1.6l-.2.1c0 .4 1.4-.3 2.1-.4-1.3 1.1-.2.9-.8 1.7.2-.2 1-.7 1.2-.7-.2.2 1-.5-.2.4-1.1.9-.7.8-.7.9l1.6-1.1c-2.1 1.8 1.3.1-.6 1.6.4-.2.5-.1.9-.4l-.8.6c-.1.3-.1.5.2.5l-.6.4c0 .2 2.5-1.5 2.6-1.5l-1.2.9c.2.2-.8 1.2.5.6-.2.1-.5.4-.6.4 0 .1-.6 1 1.1-.3-1.1.8 0 .3.6 0l-.8.6c1.1-.6 1.4-.8 1.8-.9-.1.1-.6.5-.5.3-.4.4.8-.5.5 0l-.6.3c0 .1.3-.1.9-.4.4-.2-.1.3-.8.9.5-.3 1.1-.7.9-.5-.3.2-.5.3-.6.4-.4.6 1.1-.4.4.3-.3.2-.4.3-.5.4-.1-.1-.1-.3 0-.3-.8.5-.8.7-1.9 1.4.6-.3 2-1 1.7-.7-.1.1-.1.1-.3.2h-.1c-.1.1 0 .1.2 0l-.2.2c-.6.5-.2.4-.2.4.8-.6.7-.4 1.4-1-.1 0-.1.1-.2 0h-.1.1s-.1-.1-.2-.1c.4-.3.8-.5.4-.1.5-.3 1.1-.7 1.4-.9-1.1.9-1.6 1.5-2.3 2 .6-.2.6.2 2.2-.8.2-.1-.4.4-.6.6-.2.1-.2 0-.4.2.5-.2.4.2 1.4-.6-.4.5-1 .6-.7.7l-.3.2c-1.5 1.5 3.1-1.4 1.2.5l.3-.3c-.7 1.1 1.5.2.2 1.7-.2.3.5-.1 1-.4l-.9.6 1.1-.6c.9-.4-2 1.8-.4 1l.6-.4c-.1.2.5 0-.2.5.1-.1.6-.4.3-.2l-.5.3.9-.4c-.2.4-1.9 1.3-1.8 1.5.2 0 1.5-.7 1.8-1 0 0 .2-.3.7-.6l.3-.1c1.4-.9 2.8-1.9 3.6-2.7l-.9.5.6-.5.1.1c.6-.5 0-.1-.4.1.3-.3.6-.4.7-.6l-1.4.8c.5-.4 1.1-.7 1.3-1-.6.4-1.2.9-1.6 1.1.6-.5 1.1-.8.5-.5.3-.3.6-.4.8-.5-.5.2-.3 0-1 .4.7-.6-.3-.1.9-1-.3.2-1.1.6-1.2.6 1.6-1-.1-.3 1.6-1.4-1.4.9-.8.2-1.7.6.1-.1.3-.2.3-.2.1-.2.5-.5.7-.7-1.2.8-1.5.9-2.3 1.3 1-.9 1.4-.9 2.4-1.7-.9.7-1 .5-1.8 1.1.6-.6.3-.3 1.2-1-1.4 1-.3.1-1.2.7.6-.6 1.3-1 .8-.8.4-.4.9-.6.9-.6zm-4.4-1c.1 0 .1 0 0 0 .1 0 .1 0 0 0zm-.1-.3v.1l-.6.4c.2-.1.3-.2.6-.5zm-5.4 4.6c-.1 0 0-.1.2-.2h.1s.1 0 .1-.1c-.1.1-.3.2-.4.3z"/><path class="st0" d="M594.2 198s.1-.1 0 0c.1-.1.2-.1.2-.2l-.2.2zM580.7 176.2s.1 0 0 0c.1 0 .1 0 0 0zM597.8 189.9l-.2.1.2-.1zM582.7 173l.2-.2c-.1.1-.2.1-.2.2zM582.4 172.3l.2-.3c-.1.2-.1.2-.2.3zM582.6 171.6c-.1.1-.3.2-.4.2l.4-.2zM588.2 177.6c.1 0 .1 0 0 0 .3-.1.2-.1 0 0zM584.9 177c.2-.1.3-.2.4-.2.1-.1.1-.2-.4.2zM590.8 179.1zM585.4 176.9c.1-.2.1-.2-.1-.1 0 0 0 .1.1.1zM581.6 169.5zM581.5 169.6c-.1 0-.1 0 0 0zM581.2 169.7l.2-.1s0-.1-.2.1zM581.7 170.3l.3-.2c-.1.1-.2.1-.3.2z"/><path class="st0" d="M581.9 170.4c0-.1.6-.6.3-.5l-.2.2c.4-.3-.7.7-.1.3zM578.7 173.7l.1-.3c-.3.2-.7.6-.8.6-.8.9.7-.5.7-.3zM578.5 174.5c-.2 0-.5.3-.6.4.3-.1.4-.1.6-.4zM580.8 177.7l-.8.5c.2 0 .3-.2.8-.5zM585.1 175.6l.4-.4-.7.4zM580 179.7h-.1l.3-.1zM584 184.8l.9-.7c-.2.2-1.2.9-.9.7zM586.6 186.5c-.4.3-.7.6-.2.3 0-.1.3-.4.2-.3zM590 194.5l-.4.1.3-.1z"/><g><path class="st0" d="M569.7 148.6c-.2.2-.5.8-.4.8l.7-1-.3.2zM569.2 150.9c.4-.4 1.1-1.2 1.6-2.2-.7.9-.5.5-1.3 1.6-.2.1 0-.4.3-.8-.2.2 0-.3-.5.3-.3.9-.2 1 .4.5-.2.2-.4.4-.5.6zM578.5 158.7v-.2.2zM584.5 163.2c-.1 0-.1.1-.2.2.1-.1.2-.1.2-.2zM584.9 164.9v-.1c-.1.1-.1.2 0 .1zM578.5 158.7v.4c.2-.3 0-.2 0-.4zM572.1 149.3c-.1 0-.2.1-.3.2.1 0 .1 0 .3-.2 0 .1 0 .1 0 0zM575.2 157.9c-.1.1-.2.2-.3.4l.3-.4zM573 156.7c0 .1.6-.8.8-1.1-.2.3-.4.5-.5.5-.1.1-.2.3-.3.6zM570.5 153.1l-.1.1s0-.1.1-.1zM576.6 159c-.1.1-.1.2-.2.3.1-.1.2-.2.2-.3zM640.6 189.2c0 .1-.1.1-.1.2 0-.1.1-.2.1-.2zM640.5 195c-.2.2-.3.3-.4.5l.4-.5zM586.2 167.3c0-.1 0-.1 0 0-.1 0-.1 0 0 0zM604.8 177.7c.3-.9.9-.8 1.1-1.8-.1.4-1.1 1.2-1.1 1.8zM572.1 149.5s.1 0 0 0c.1 0 0 0 0 0zM605.9 175.9v-.1c.1 0 0 .1 0 .1zM591.1 169.5c.1-.2.1-.3.2-.4-.1.1-.1.2-.2.4zM588.4 166.2v.2c.1-.1.1-.1 0-.2zM593.6 169.4c0 .1-.1.2.1.1l-.1-.1c0 .1 0 .2 0 0zM595.4 170.5c0-.1 0-.1.1-.2h-.1v.2zM634.7 186.2c-.1.3-.2.5-.4.8.4-.6.8-.7.4-.8zM571.8 149.8c.1-.2.2-.3.3-.3h-.1c-.1.1-.1.2-.2.3zM597.8 162.7l.2.3c0-.2-.1-.3-.2-.3zM621.5 178.2l.1-.1c0 .1-.1.1-.1.1zM599 163.4c-.1.3-.2.5-.2.7l.2-.2v-.5zM634.3 187z"/><path class="st0" d="M637.5 186.2c-.3-.2-.8 1-1.3 1.6-.5.1.4-.9.6-1.6-.4.2-1.2 1.1-1.3 1 .1-.2.1-.3.3-.5-.8.8-.7-.4-1.6.6 0-.1.1-.2.1-.3-.3.6-.6 1.2-.9 1.6-.1-.1-.7.6-.3-.2.1.1.3-.2.4-.4l-.3.2c.5-1.1.4-.3.9-1-.5.2-1.3.9-1.3.5.6-1.1.7-.1 1-1.2l.1.6c.8-1.8.1.2 1-1.7-.2-.5-.8.3-1-.3-.4.5-.5.9-.9 1.4-1.2.7 1.1-2.9-.1-1.8-.5.6-1.4 1.9-1.2 1l.8-1.1c-.3-.4-1.2 1.6-1.2.5.4-.4.5-.2.6-.4.3-1.1-.6.6-.8.4l.6-1.1c-.5-.1-1.4.4-2 .3.2-.3.5-.6.6-1-.9.2-1.1-.9-1.3-1.8l-.8.8s.2-.5.3-.6c0-.5-.4.6-.7.9-.2 0 .2-.6.4-.8-.8.5-2.1 1-1.9-.2l.2-.2c-.1-.6-1.5 1.6-1.3.6l.2-.1c-.4-.8-1.7-.4-1.4-2.1-.9 1.2-.3-1-1.5.8.2-1.1.5-1.4.3-2.3-.1-.2-.9 1-1.2 1.1l.6-.9-.8.8.6-1.2-.3.1c0 .1-.1.5-.3.8-.5.3-.2-1 0-1.5l-1.1.4c.2-.4.4-.4.7-.6-.9.8.5-1-.3-.3-.1.2-.4.5-.5.7.2-.7-.1-.9-.5-.8l.4-.6c-.4-.4-1.2-.3-1.7-.6 0 .4-.7 1.5-.9 1.5l.5-1c-.5.6-.1.5-.7 1.1-.1-.2.6-1.2.9-1.5l-.4.2c.2-.3.3-.4.6-.8-.5.6.2-1.2-.6-.3l.2-.3c-.5-.3-1-.1-1.4-.3-.5.9-.6.6-1.1 1.2-.1-.5-.1-1.3-.5-1.5-.5.3-.5.7-1 1.1.5-.8 0-.9.6-1.4-.5-.1-.7-.2-1.6.1-.1.4-.1.5-.3.8-.2.1 0-.5.2-.8l.1-.1c-1.4.8-.1-3.2-1.6-1.9l.1-.1-1 .5c-.2-.3.5-.5.6-1.1-1.4 1-.8-.7-1.8-.2 1-2.5-1.4-.6-1-2.4l-.3.6c-.5.5 0-.4 0-.6-.2.4-.2.6-.4.8-1.5 0-1.7-2.1-2.5-3.3-.3-.4-1.9 2.7-1.7 1.1l.8-.9c-1.5.7-1.6-1.1-3-.5.2-.2.4-.5.5-.5.3-.8-.6-.4-1 .2-.1-.1.3-.6.4-.9.1-.5-1 .7-.6-.1.1-.1.2-.2.3-.2-.3.3-.5-.4-.9.5-.1-.6-.8 0-.7-.6-.7.9-.2-.8-1.1.5.9-1.4.2-1.4-.4-.9.3-.4.1-.5.5-1.1-.2-.1-.6 0-1 .8.6-1.9-1.6.8-.5-1.4-1.1.4-2 .5-2.8.5.9-1.4.7.2 1.6-1.2-.9.2-1.9 1.2-2.3.6 0-.3.4-.5.6-.8-.9.2-1-.8-1.9-.3l.3-.3c-.1 0-.1-.3-.5.3l.2-.1c-.4 1-1.5 1.7-1.8 2.1 1.3-1.7-.2-.7 1.4-2.9-.1.1-.4.3-.6.8 0-.2.1-.4.5-.9-.5.1-.8.9-1.1.7.2-.3.3-.4.6-.7-.5.5-1 1-1.1.6.1-.2.2-.4.3-.4-.5-.2-1.7 1.1-1.9.2.9-1.2.1-.5.8-1.7l-.5.2-.2.6c-.2-.2-.9.5-.9 0l.5-.4h-.6v.6c-.6.4-.9 1.5-1 1 .1-.1-.2-.2.1-.9-.3.3-.7.6-.7.2.2-.4.8-1.2.9-1.5-.7.9-.7-.1-1.5.9.2-.2.6-.8.6-.9l-.6.7c0-.3.1-.4.4-.9-.2-.3-.8 1.5-.8.7.1 0 .1-.2.3-.2-.2-.6-1 0-1.2-.6.6-1.2.5-.1 1-1.1-.6-.1-1.9.7-2.2.2v.2c-1.1 1.6.1-1-.6-.4.1-.1.6-.9.5-.7-.2-.5-.9 0-1.8.2l.3-.4c0-.5-.4-.5-.5-.9-.3.4-.4.2-.7.9.8-2.8-2 .5-1.4-1.8.1 0 .4-.3.3-.3l-.7.1c-.4.7-.2.5-.4 1.1-.3.4-.7.6-.8.5.5-.3.7-1.1.8-1.6-.1.2-.3.4-.4.7.5-1.4-.9 1.4-.8.3l.2-.4c-.2.1-.7.5-.8.3.4-.9.4-.3.8-1-.2-.1-1.3 1.3-1 .4.2-.2.4-.1.6-.3.4-1.1.2-.9.2-1.1l-.1-.6-.1.3c-1.6 2-.8.1-1.9 1.3 1.1-1.1.5-.7 1.1-1.6.1-.3.1-.7.3-.9-.6.6.1-.8-.8.2.2-.3-.2-.1.3-.9-.4.1-.3.5-.5.9-.9.8 0-1.7-1.3-.6-.8.3-1.4 1.3-2.1 1.6.2-.6.8-1 .8-1 .1-.6-.1-.6-.5-.4.2-.2.3-.5.4-.9-.2 0-.8 1-.7.5.2-.3.6-.8.9-1.1l-1.2.8c.3-.5.6-.7.9-1-.4.1-.8.1-1.4.9v.4c-.1 0 .4-.7.5-.8.6-.5.1.4-.1.7l-.3.1c-.9 1.8.7 0 .9.3l-.9 1.2.9-.9c-.1.4-.5 1.1-.8 1.2-.2.7.4-.3.2.5 0 .1-.1.2-.1.2l.4-.3c-.2.2-.5.9-.5.7-.1.9 1.1-.6.7.4l-.1.1c.7-.1.6-.9 1.6-1.8l-1.2 2.4.6-.9c0 .1.1.2-.2.6.6-.5.2-.4.7-1-.3 1 .9 0 0 1.5.5-.7.1-.7.7-1-.9 1.6.5-.1.2.8-.6.8-.5.2-.7 1.1 1-1.3.2.6.6.4.7-1.1.7-.2 1.2-.4-.2.4.2 1 .2 1.5l-.1.2c.7-1.1.9-.7 1.2-.8-.4.7-.6.9-.9 1.1l.2.1c.3-.3.4-.5.6-.5l-.8.6c.3.1 1.1-.7 1.1.1.5-.8 1.1-2.3 1.7-2.6-.2.4-.7 1.2-.9 1.3.1 0 .3-.3.3-.1l-.6.6c0 .4.4-.5.5-.4-.4.6-.2.5-.5 1-.1 0 0-.3-.1-.1.1.2 0 .7-.2 1.1.2-.4.5-.8.6-.8.3.1-.4.8-.4 1.2.3-.4.2.2.8-.7.1.1-.2.5-.3.7.4-.3.7.3 1.1-.8v-.1c1-.6.6 1.1 1.3 1l-.2.3c.5-.2.7.2 1.3-.4.1 0-.2.7-.4 1 .3-.1.6-.4.6.2-.5.4-.2.5-.4.3.1.4-.1.9.7.3-.6.7-.4 1.1-.1.9l.2-.7c.2 0 .3.1.4.3l-.7 1c-.2 1.6 2.3-1.5 1.4.8.6-.6 0-.7.6-1.4.2.3-.5 1.9-.4 2 0 .8 1.2-1.3 1.3-.7.2-.4.7-1.4 1.2-1.6.2.3-.6 1.7-1 1.9-.1 0 0-.1 0-.3-.2.1-.4.2-.5.6l.3-.3c-.1.4.3.6-.2 1.2.4-.2.4-.5.4-.8 0 .7.5.3.6.9.1-.2.3-.7.3-.7.2.7.6-.6 1.1-.5-.2.7-.9 1.3-.3 1 0 .5-.5 1-.8 1.2.7-.5.3.8.4 1l-.2.1c.2-.1.3-.1.3 0l.4-.8c0 .2.1.2-.1.5.4-.4.7-1.3 1.2-1.8-.1.4.6-.2.1.8-.2-.6-.5 1-1 .9.1-.1.2 0 .2.2-.1.1-.1.2-.2.2-.2 1.1.8-1 1.2-.7-.4.5-.5 1.1-.4 1-.1-.1.5-.9.9-1.3 0 .6.5-.2.6 0v-.3c.4-.5.5-.4.7-.4-.2.4-.3.2-.4.4.8-.8-.2 1.2.5.8-.1.4-.6 1-.7 1.3.7-.5-.1.9.5.5.4-.8.2-.6.9-1.2l-.8.2 1-.9c-.1-.1-.6.3-.6.1.5-.5.4-.3.7-1-.5 1.2.8-.4.6.5l-1.1 1.8c-.1 1 1.2-.5 1.4.2v-.4c.5-.7.4.1.7-.1-.4.6-.4.9-.6 1.3.3-.5.3.3 1.1-.9l-.3.9c.2.6 1.5-1.4 1.7-1-.5.6-.6 1.1-1.1 1.4.1.1.2.3.4-.2-.2.4.8-.6.6 0 .2-.2.6-.9.7-.7-.1.1-.2.3-.2.3.2-.3.5-.3.8-1-.8 2.1 1.1.5.5 2.3.4 0 .8 0 1.1.1-.1.2-.2.3-.2.2 0 .8 1.3-1.6 1.3-.7-.4 1.1-.5.4-.6.8-1.2 2 .6 0 .2 1.3l-.1.1c-.2.8.9-.5 1.2-.1 0 0-.1.2-.2.3.8-.9 1.5-1 1.9-1-.6.7-.4.3-.8 1.1.2 0 .7-1.3 1.1-1.3-.2.5-.2 1-.7 1.8l-.3-.1c-.5 1.2.4.2.4.4l-.3.5c.5.1 1.2-1.1 1.6-.8l.2-.4c1-1-.2.8.6 0l-.7 1.2c.3-.2 1.3-.8 1.7-.9-.7.8-1.3 1.1-1.8 1.5.1.1.6.2 1-.3-.1.1-.4.3-.3.1.8-.8 1.3-1.1 1.6-.9-1.5 2.3.4 1.1-.4 3 1.1-.5.9 1 1.6 1.3.9-2 .2.1 1.3-1.8.2 0 .3 0 .2.2l-.2 1.4c-.2.6-.4.3-.6.8.2.3-.3.9-.4 1.5.4-.7.7-.9.7-.5l.3-1c1.1-.7-.6 1.8.5 1.1l-.5.5c.4-.2.9.5 2-.8-.1.2-.3.8-.5.9.4.6 2.2-.8 2.1.4l-.3.4c.2-.1.7-.7.6-.2-.1.2-.3.4-.3.5.2-.1.8-.6.7-.3l-.4.4c.2.9 1.6-.7 2.2-.8-.8 1.3-.7 2-.6 2.4l-.1.2c.5.6 1.8-.5 2.7-.6-.5 1.7.9 1.4.9 2.5.1-.3.7-1 .8-1.1 0 .4 1-.7.2.5v-.1c-.6 1.3-.2 1.1 0 1.3l1-1.6c-.9 2.7 2 .1 1.1 2.4.4-.3.6-.2.9-.5l-.5.9c.3.5.4.7 1 .8l-.5.6c.2.2 1.9-2.3 2.1-2.2l-.7 1.3c.5.3.3 1.7 1.4.8-.1.2-.4.5-.5.6.2.2.3 1.4 1.3-.4-.7 1.2.4.4 1 .1l-.6.8c.9-1 1.1-1.3 1.6-1.4 0 .2-.4.7-.3.4 0 .6.7-.7.7-.1l-.4.5c.2.2.4-.1.9-.6.4-.2.3.5-.1 1.3.3-.4.8-1 .8-.7-.2.3-.3.5-.4.5.1.8 1.2-.6 1 .4-.2.3-.2.4-.3.5-.3-.2-.5-.4-.5-.5-.5.8-.3 1.1-1.2 2 .6-.5 1.7-1.5 1.7-1 0 .1-.1.2-.1.3l-.1.1c0 .1.1.1.2 0 0 .2 0 .3.1.4-.4.7.1.5.2.6.5-.9.6-.6.9-1.4 0 .1-.1.1-.2.1 0 0-.1 0-.1.1l.1-.1c-.1 0-.2-.1-.4-.1.4-.4.7-.7.6-.1.4-.5.8-1 1-1.3-.6 1.3-.6 2.2-1 2.9.7-.2 1.1.3 2.4-1.2.2-.1-.2.5-.3.8-.2.1-.2 0-.4.3.5-.3.8.2 1.5-.8 0 .7-.8.9-.3 1l-.3.3c-.3 2.3 3-2.1 2.4.7 0-.2 0-.3.1-.5.3 1.6 2.6.3 2.6 2.5.1.5.5-.2 1-.7l-.5 1 .9-.9c.9-.5-.7 2.7.7 1.5l.3-.7c.1.2.8 0 .3.7.1-.1.5-.6.3-.2l-.3.5 1-.6c.1.6-1.2 1.9-.8 2.3.3-.1 1.4-1.1 1.5-1.4-.1-.1 0-.4.3-.9l.3-.1c.9-1.4 1.9-2.8 2.1-4l-.8.7.3-.7.3.1c.3-.7-.2-.2-.5.1.2-.4.3-.7.3-.8l-1.1 1.2c.3-.6.8-1 .8-1.5-.5.5-.6 1.3-1.1 1.6.3-.7.6-1.2.1-.8.2-.4.4-.6.5-.7-.4.3-.5-.1-1 .7.3-.9-.6-.1.2-1.4-.2.3-.9.9-1.1.9 1.2-1.5-.5-.4.7-2.1-1.1 1.3-1.1.2-1.9.8.1-.1.3-.3.3-.2-.1-.2.1-.7.2-1-.8 1.2-1.2 1.3-1.8 1.9.5-1.3 1-1.3 1.6-2.5-.6 1-1 .7-1.4 1.6.3-.8.1-.4.6-1.5-.9 1.5-.3.2-1 1 .2-.9.8-1.4.2-1.2.2-.7.8-1 .8-1zm-8.1-1.4h0zm-.5-.4c0 .1.1.1.2.2l-.4.6c.1-.2.1-.5.2-.8zm-2.5 6.7c-.2.1-.1-.1 0-.3h.2s0-.1.1-.1c-.1.2-.2.3-.3.4z"/><path class="st0" d="M627.2 190.1c.1 0 .1-.1 0 0 .1-.1.1-.2.1-.3 0 .1 0 .2-.1.3zM578.5 158.6s0-.1.1-.1c-.1 0-.1 0-.1.1zM622.3 178.2l-.1.2.2-.1zM577.3 153.8c0-.1.1-.2.1-.2s-.1.1-.1.2zM576.1 152.8v-.4.4zM575.4 151.7c-.1.1-.2.3-.2.4l.2-.4zM591.9 160.4c.2-.1.1-.1 0 0zM585.9 159.6c.1-.1.3-.2.4-.3 0-.2-.1-.2-.4.3zM597.8 162.6c0 .1 0 .1 0 0zM586.5 159.4c0-.2-.1-.2-.2-.1.1 0 .1.2.2.1zM571.3 148.7c-.1 0-.1 0-.1.1l.1-.1zM571.2 148.8c-.1.1-.1.1 0 0zM570.8 149l.2-.1c0-.1 0-.1-.2.1zM572.4 149.9l.2-.3c-.1.1-.2.2-.2.3z"/><path class="st0" d="M572.8 150.1c-.1-.1.2-.8-.1-.7l-.2.2c.4-.4-.1.9.3.5zM572.1 154.9l-.2-.5c-.1.4-.3.9-.5.8-.2 1.4.4-.7.7-.3zM572.9 156.1c-.3 0-.3.5-.4.7.3-.3.4-.4.4-.7zM580.4 160.7l-.5.8c.3-.1.2-.4.5-.8zM584.3 157.5l.2-.5-.5.6zM581.8 163.6l-.1.1.4-.2zM594.6 171.1l.5-1c-.1.1-.8 1.2-.5 1zM600.7 173.4c-.2.5-.3.9.1.5 0-.1.1-.5-.1-.5zM616.2 185l-.3.3.3-.2z"/></g><g><path class="st0" d="M593.9 147.8c-.1.3-.4.9-.3.8l.5-1.1-.2.3zM593.3 149.9c.3-.5.8-1.4 1.2-2.4-.5 1-.3.6-1 1.8-.1.1.1-.4.3-.8-.1.3 0-.3-.3.4-.3.9-.3.9.1.3-.1.3-.2.5-.3.7zM596.6 153.6v-.1.1zM598.8 155.4s-.1.1-.1.2c0-.1.1-.1.1-.2zM598.7 156.7c0 .1 0 .1 0 0zM596.6 153.6l-.1.4.1-.4zM595.1 147.6s-.1.1-.2.3l.1-.1c0-.1 0-.1.1-.2zM595 153.9c-.1.1-.2.3-.2.4l.2-.4zM594.1 153.6s.4-.9.6-1.2c-.2.4-.3.5-.3.6l-.3.6zM593.5 151.4zM595.6 154.4c-.1.1-.1.3-.1.3 0-.1 0-.2.1-.3zM622.9 159.1c0 .1-.1.1-.1.2.1-.1.1-.2.1-.2zM621.7 164.1c-.1.2-.2.4-.3.5l.3-.5zM598.9 158.3c0 .1 0 .1 0 0zM606.6 161.1c.3-.9.6-1 .9-1.9-.2.3-.8 1.3-.9 1.9zM595 147.7s.1 0 0 0c.1 0 0 0 0 0zM607.5 159.2c0-.1 0-.1 0 0zM601 158.6c.1-.2.1-.3.2-.4 0 .1-.1.2-.2.4zM600.3 156.7v0zM602.4 157.7c-.1.1-.1.2 0 0-.1.1-.1.1 0 0zM603.1 158c0-.1 0-.1.1-.2l-.1.2zM620.4 158.5c-.1.3-.2.5-.4.8.4-.7.6-.8.4-.8z"/><path class="st0" d="M594.8 148.1c.1-.2.2-.3.2-.4-.1.2-.2.3-.2.4zM605.8 150.5l.1.2c0-.1 0-.1-.1-.2zM615.1 156c.1-.1 0-.1 0 0zM606.3 150.8c-.1.3-.2.5-.2.7 0-.1.1-.1.1-.2l.1-.5zM620.1 159.3z"/><path class="st0" d="M621.9 157.5c-.1-.1-.6 1.1-1 1.8-.3.3.4-.9.6-1.5-.2.3-.8 1.3-.9 1.3.1-.2.1-.3.2-.5-.5.9-.3-.1-1 1.1 0-.1.1-.2.1-.3l-.8 1.6c-.1 0-.5.7-.1-.1 0 0 .2-.3.3-.5l-.2.3c.5-1.1.3-.4.7-1.2-.3.3-.8 1.2-.8.8.5-1.1.4-.3.7-1.3l-.1.5c.7-1.8 0 .2.8-1.7 0-.4-.4.5-.5.1-.3.6-.4.9-.7 1.5-.8 1 1.1-2.8.3-1.5-.4.7-1.1 2.1-.8 1.3l.6-1.2c-.1-.2-.9 1.7-.7.8.3-.5.3-.4.4-.5.4-1-.4.7-.5.6l.5-1.1c-.2.1-.8.8-1.1.9.2-.3.4-.7.5-1-.5.4-.4-.4-.3-1.1l-.5.9.3-.6c.1-.4-.3.6-.5 1-.1 0 .2-.6.4-.8-.5.7-1.3 1.5-.9.4l.2-.3c.1-.4-1.1 1.9-.8.9l.1-.2c-.1-.5-.8.2-.3-1.3-.7 1.3 0-.7-.9 1.2.3-1 .5-1.3.6-2.1 0-.1-.7 1.1-.8 1.3l.5-1-.6 1 .5-1.2-.2.2c0 .1-.2.5-.3.8-.3.4.1-.8.3-1.3l-.7.7c.2-.4.3-.5.5-.8-.6 1 .5-1.1-.1-.2l-.4.8c.2-.6.1-.7-.1-.5l.3-.7c-.1-.3-.5.1-.7 0-.1.4-.7 1.5-.8 1.6l.5-1.1c-.4.6-.1.4-.6 1.2 0-.2.5-1.2.7-1.5l-.3.3c.1-.3.2-.5.4-.9-.4.6.3-1.1-.3 0l.1-.3c-.2-.1-.5.2-.7.2-.4.9-.4.7-.8 1.4 0-.3.2-1.1 0-1.1-.3.4-.4.8-.7 1.3.4-.8.2-.8.6-1.4-.2 0-.3.1-.9.6-.1.4-.2.5-.3.8-.1.1.1-.4.3-.8l.1-.1c-.8 1.1.6-2.7-.5-1.1l.1-.1-.6.8c0-.2.4-.6.5-1.1-.9 1.3-.3-.4-.9.5 1-2.5-.6-.1 0-1.7l-.3.6c-.3.5.1-.4.1-.5-.2.4-.2.5-.4.8-.8.5-.5-1.3-.7-2-.1-.2-1.5 2.9-1.1 1.5l.6-1c-.9 1.1-.6-.4-1.5.6.1-.2.3-.6.3-.5.3-.8-.2-.2-.5.5 0-.1.3-.6.4-.9.2-.5-.6.9-.3.1.1-.1.1-.2.2-.3-.2.4-.2-.2-.5.7.1-.5-.4.3-.3-.3-.5 1 0-.6-.7.8.7-1.5.4-1.3 0-.6.2-.4.2-.5.5-1.1-.1 0-.3.2-.6 1 .7-1.8-1 1.3 0-1-.6.7-1.1 1.1-1.5 1.3.7-1.5.3 0 1-1.6-.5.5-1.2 1.7-1.3 1.2 0-.2.3-.6.5-.9-.5.5-.4-.3-.9.4.1-.1.2-.3.2-.4-.1 0 0-.3-.3.4l.1-.2c-.4 1-1.1 1.9-1.4 2.4 1-1.9 0-.6 1.3-2.9-.1.1-.3.4-.5.9 0-.1.1-.4.4-.9-.3.3-.6 1-.7.9.2-.3.2-.4.4-.8-.4.6-.7 1.2-.7.9l.2-.4c-.2 0-1.1 1.5-1 .8.7-1.4.2-.5.7-1.7l-.3.3-.2.6c-.1-.1-.6.8-.5.3l.3-.5-.3.1-.1.5c-.4.6-.7 1.5-.7 1.1.1-.1-.1-.1.2-.8-.2.4-.5.7-.4.4.2-.4.7-1.3.8-1.6-.5 1-.4.2-.9 1.2.1-.2.4-.9.5-1l-.4.8c.1-.3.1-.4.4-.9-.1-.2-.7 1.5-.5.8 0-.1.1-.2.2-.3 0-.4-.5.4-.5-.1.5-1.2.3-.2.7-1.3-.3.1-1.1 1.3-1.2.9v.2c-.8 1.7.3-.9-.2-.2.1-.1.5-.9.4-.7 0-.3-.5.3-.9.7l.2-.4c.1-.4-.1-.3-.1-.6-.2.4-.3.3-.5 1 .9-2.6-1.2 1.1-.4-1.1 0 0 .3-.4.2-.4l-.4.3c-.3.8-.2.5-.4 1.1-.2.4-.5.7-.5.7.3-.5.6-1.2.7-1.6-.1.2-.2.5-.3.7.5-1.4-.7 1.5-.5.5l.2-.4c-.1.2-.4.7-.5.5.4-.9.2-.4.6-1.1-.1 0-.9 1.6-.6.7.1-.2.2-.2.4-.4.4-1.1.3-.8.3-1l.1-.5-.1.3c-1.2 2.2-.4.3-1.2 1.7.8-1.3.4-.8.9-1.8l.3-.9c-.4.8.2-.7-.5.4.1-.3-.1-.1.3-.8-.2.2-.2.6-.4.9-.6 1 .3-1.5-.6-.1-.5.5-1 1.6-1.4 2 .2-.5.6-1.1.6-1.1.1-.5 0-.4-.2-.1.1-.3.2-.5.4-.9-.1.1-.6 1.1-.4.6.2-.3.5-.9.7-1.2-.2.3-.6.8-.8 1.1.2-.6.4-.8.6-1.2-.2.2-.5.4-.9 1.2l-.1.3c-.1 0 .3-.8.4-.9.4-.6 0 .4-.2.7l-.2.2c-.8 1.9.4-.2.4 0l-.7 1.3.6-1.1c-.1.4-.5 1.1-.6 1.3-.2.7.3-.4 0 .3 0 .1-.1.2-.1.2l.3-.4c-.1.3-.4 1-.4.7-.2.8.7-.9.3.1l-.1.1c.4-.4.5-1 1.2-2.1l-1.1 2.5.5-1s0 .1-.2.5c.4-.6.2-.4.5-1.1-.3.9.5-.3-.3 1.3.4-.7.2-.6.5-1.1-.8 1.7.3-.2 0 .6-.4.9-.3.4-.6 1.2.8-1.4 0 .4.2.2.6-1.2.4-.4.7-.7-.2.4-.1.8-.2 1.2l-.1.2c.6-1.2.6-.9.8-1.1-.3.7-.5 1-.7 1.3h.1c.2-.4.3-.6.4-.7l-.4.9c.1 0 .7-.9.6-.3.4-.8 1-2.4 1.4-2.8l-.7 1.4c0-.1.2-.4.2-.1l-.4.7c-.1.4.3-.6.3-.5-.3.6-.2.5-.4 1 0 .1.1-.3-.1 0 0 .1-.1.6-.3 1 .2-.4.4-.9.5-.9s-.3.8-.4 1.1c.2-.4.1.1.5-.9 0 0-.2.5-.3.7.3-.4.3 0 .7-1v-.1c.6-.9.1.7.5.4l-.2.3c.3-.3.3-.1.7-.8 0 0-.2.6-.4 1 .2-.2.4-.6.2 0-.3.5-.2.5-.3.4 0 .3-.2.8.3 0-.4.8-.4 1.1-.2.8l.2-.6c.1-.1.1 0 .1.1l-.5 1.1c-.4 1.4 1.5-2 .6.2.4-.7.1-.6.6-1.4 0 .2-.6 1.8-.6 1.8-.1.7.9-1.5.8-1 .2-.4.6-1.4.9-1.7 0 .2-.6 1.7-.9 1.9 0 0 0-.1.1-.2-.1.1-.2.3-.4.7l.2-.4c-.1.4 0 .4-.3 1.1.2-.3.3-.6.4-.8-.1.6.2.1.1.5.1-.2.3-.7.3-.7 0 .6.4-.7.6-.8-.2.6-.7 1.4-.3 1-.1.4-.5 1-.7 1.3.5-.7 0 .6 0 .8l-.2.3c.1-.2.2-.1.2-.1l.3-.8c0 .2 0 .2-.2.5.3-.5.6-1.3 1-1.9-.1.4.3-.3-.1.7 0-.4-.5 1-.7 1.1.1-.1.1-.1.1.1 0 .1-.1.2-.1.3-.3 1 .6-1.1.8-1-.3.6-.5 1.1-.4 1-.1 0 .4-1 .7-1.4-.1.5.3-.3.3-.2v-.2c.3-.6.3-.5.5-.6-.2.4-.2.3-.3.5.6-1-.3 1.1.1.5-.1.4-.5 1.1-.6 1.4.5-.7-.2.8.2.3.3-.8.2-.6.7-1.3l-.5.4.7-1.1c-.1 0-.4.4-.3.3.4-.6.3-.4.5-1.1-.5 1.2.5-.6.2.2l-.9 1.9c-.3.9.7-.9.7-.3l.1-.4c.4-.7.2 0 .4-.3-.3.6-.4.9-.5 1.3.2-.5.1.1.7-1.2l-.3.9c0 .4 1-1.7 1.1-1.4-.4.7-.5 1.2-.9 1.6 0 0 0 .2.2-.3-.2.4.5-.8.3-.2.2-.3.5-.9.5-.9-.1.1-.2.3-.2.3.2-.3.3-.4.6-1.1-.8 2.1.5.1-.2 1.8.2-.2.4-.3.6-.3-.1.2-.2.3-.1.2-.1.7 1-1.8.8-1.1-.4 1.1-.3.5-.5.9-1 2.1.3-.2-.2 1.1l-.1.1c-.3.8.6-.7.6-.5 0 0-.1.2-.2.3.6-1 .9-1.3 1.2-1.5-.4.8-.3.4-.6 1.3.1-.1.6-1.3.8-1.5-.2.5-.3.9-.7 1.8h-.1c-.5 1.2.2 0 .1.3l-.2.5c.2-.1.8-1.4 1-1.2l.2-.4c.7-1.2-.3.7.3-.1l-.6 1.3c.2-.3.8-1.1 1-1.3-.5.9-.9 1.3-1.2 1.9.1 0 .3 0 .6-.6-.1.1-.3.4-.2.2.6-1 .9-1.4 1-1.3-1.2 2.5 0 .8-.8 2.7.7-.8.2.6.6.6.8-2 .1 0 1-2 .1-.1.1-.1.1.1l-.4 1.3c-.2.6-.3.4-.5.9.1.2-.3.9-.5 1.4.3-.7.5-1 .5-.7l.3-1c.7-1-.6 1.7 0 .8l-.4.6c.3-.3.3.2 1.2-1.4-.1.2-.3.8-.4.9.1.3 1.3-1.4 1-.4l-.2.5c.1-.1.5-.9.3-.4-.1.2-.2.5-.2.5.1-.2.5-.8.4-.5l-.3.5c-.1.7 1-1.2 1.3-1.4-.7 1.4-.7 2-.8 2.2l-.1.2c.2.3 1-1 1.5-1.4-.6 1.6.2.9 0 1.9.1-.3.5-1.1.6-1.2-.1.3.6-.9 0 .4s-.3 1-.2 1.1l.8-1.7c-1 2.6 1-.6.1 1.7l.6-.8-.4.9c0 .3.1.5.4.3l-.4.6c.1.1 1.4-2.6 1.5-2.6l-.6 1.4c.2.1-.2 1.4.6.2-.1.2-.3.6-.4.6.1.1-.1 1.1.8-.8-.6 1.2.1.2.5-.3l-.4.9c.6-1.1.8-1.4 1.1-1.7 0 .1-.3.7-.2.5-.1.5.5-.8.4-.3l-.3.6c.1.1.2-.2.6-.8.2-.3.1.3-.3 1.1.3-.5.6-1.1.6-.9-.1.3-.3.5-.3.6-.1.7.7-.9.4 0-.1.3-.2.5-.2.5l-.2-.2c-.4.8-.4 1-1 2.1.4-.6 1.2-1.9 1.1-1.4 0 .1-.1.2-.1.3l-.1.1c0 .1 0 0 .1-.1 0 .2-.1.3 0 .3-.3.7-.1.4 0 .5.4-.9.4-.7.7-1.5 0 .1-.1.1-.1.1l-.1.1v-.1h-.2c.3-.4.5-.8.3-.3.3-.6.6-1.2.8-1.4-.5 1.3-.7 2-1.1 2.8.4-.4.5-.2 1.5-1.8.2-.2-.2.5-.3.8-.1.2-.1.1-.3.4.3-.4.3 0 .9-1.2-.1.6-.6 1.1-.3.9l-.2.4c-.6 2.1 2-2.8 1.1-.2 0-.2.1-.2.2-.4-.1 1.3 1.3-.6.9 1.3-.1.4.3-.4.7-.9l-.4 1 .7-1.1c.6-.7-.9 2.5.1 1.1l.3-.7c0 .2.4-.3 0 .5.1-.1.4-.7.2-.3l-.2.5.6-.8c0 .4-1 2-.8 2.2.2-.2.9-1.4 1.1-1.7 0 0 .1-.4.3-.9l.2-.2c.7-1.5 1.5-3 1.9-4.1l-.6.9.3-.7h.1c.3-.7-.1-.1-.3.3.2-.4.3-.7.3-.8l-.8 1.4c.3-.6.6-1.1.7-1.5-.4.6-.6 1.3-.9 1.7.3-.7.6-1.3.2-.7l.4-.8c-.3.4-.3.1-.7.9.3-.9-.3.1.4-1.3-.2.3-.6 1.1-.7 1.1.9-1.7-.2-.2.7-2-.8 1.5-.6.6-1.1 1.3.1-.1.2-.4.2-.3 0-.2.2-.6.3-.9-.6 1.3-.9 1.5-1.3 2.2.5-1.3.8-1.5 1.3-2.6-.5 1-.6.9-1 1.8.3-.8.1-.4.6-1.5-.8 1.6-.2.2-.7 1.2.3-.8.7-1.5.3-1.1.5-.5.9-1 .9-1zM618 159zm-.3-.1c.1 0 .1.1 0 0-.1.4-.2.7-.2.7.1-.2.1-.4.2-.7zm-2.5 6.5c-.1.1 0-.1.1-.3 0 0 .1 0 .1-.1 0 0 0-.1.1-.1-.2.2-.2.4-.3.5z"/><path class="st0" d="M615.8 164.3c0-.1.1-.1 0 0 .1-.1.1-.2.1-.3 0 .1-.1.2-.1.3zM596.6 153.4v-.1.1zM615.5 155.7l-.1.2.2-.1zM596.9 149.7c0-.1.1-.2.1-.2s-.1.1-.1.2zM596.5 149.2l.1-.4c-.1.3-.1.4-.1.4zM596.3 148.6c-.1.2-.1.3-.2.4l.2-.4zM603.2 150.6c.1-.2.1-.1 0 0zM600.3 151.8c.1-.2.2-.3.3-.4-.1-.1-.1-.1-.3.4zM605.8 150.5z"/><path class="st0" d="M600.6 151.5c.1-.2 0-.2 0 0-.1 0-.1.1 0 0zM594.7 147.4zM594.7 147.5c-.1.1-.1.1 0 0zM594.4 147.8l.2-.2c0-.1 0-.1-.2.2zM595.1 148l.2-.3c-.1.1-.2.2-.2.3z"/><path class="st0" d="M595.3 148c0-.1.2-.7.1-.6l-.1.3c.2-.5-.3.9 0 .3zM594 152.4v-.3c-.1.4-.3.8-.4.9-.4 1.1.3-.8.4-.6zM594.2 153.1c-.2.1-.2.5-.3.7.1-.3.2-.3.3-.7zM597.2 154.6l-.4.8c.1-.1.2-.3.4-.8zM599.8 150.6l.2-.6-.4.8zM597.4 156.6l-.1.1.2-.2zM602.6 158.8l.5-1c-.2.1-.7 1.2-.5 1zM605.3 158.8c-.2.5-.3.9 0 .4-.1-.1.1-.5 0-.4zM611.1 163.6l-.2.3.2-.2z"/></g><g><path class="st0" d="M583.8 128.5c-.1.3-.3 1-.2.9l.4-1.1-.2.2zM583.8 130.8c.3-.5.7-1.4 1-2.5l-.9 1.8c-.1.1-.1-.4.1-.8-.1.3-.1-.3-.4.4-.1.9 0 1 .4.3 0 .3-.1.6-.2.8zM593.3 135.7v-.2.2zM599.4 138.3c-.1 0-.1.1-.1.2 0-.1.1-.1.1-.2zM600.1 139.8s-.1 0 0 0c-.1.1-.1.1 0 0zM593.3 135.7l.1.4c.1-.4 0-.3-.1-.4zM586.1 128.5c-.1 0-.1.1-.2.3l.1-.1c0-.1 0-.2.1-.2zM590.3 135.7c-.1.1-.2.3-.2.4l.2-.4zM588.1 135.3c0 .1.4-.9.5-1.3-.2.4-.2.6-.3.6 0 .2-.1.4-.2.7zM585.3 132.5l-.1.1s.1 0 .1-.1zM591.8 136.4c0 .1-.1.3-.1.3s0-.2.1-.3zM653.1 147.7c0 .1 0 .1-.1.2.1-.1.1-.2.1-.2zM654 153.2c-.1.2-.2.4-.2.6l.2-.6zM601.6 141.7c-.1.1 0 0 0 0zM619.8 146.6c.1-.9.7-1 .7-2-.2.3-.8 1.3-.7 2zM586.1 128.6zM620.4 144.5zM606.3 142.5c0-.2.1-.3.1-.4 0 .1-.1.2-.1.4zM603.4 140.1v0zM608.5 141.7c0 .1 0 .2.1.1 0-.1 0-.1-.1-.1 0 .1 0 .2 0 0zM610.3 142.3v-.2h-.1l.1.2zM647.4 146.4c0 .3-.1.6-.2.9.2-.7.6-.8.2-.9z"/><path class="st0" d="M585.9 129c.1-.2.1-.4.2-.4h-.1c0 .2-.1.3-.1.4zM610.9 134.1l.2.2-.2-.2zM634.4 142.5c.1-.1.1-.1 0 0zM612.1 134.5c-.1.4-.1.6 0 .7 0-.1.1-.1.1-.2l-.1-.5zM647.2 147.3s.1 0 0 0c.1 0 0 0 0 0z"/><path class="st0" d="M649.9 145.6c-.3-.1-.5 1.2-.8 1.9-.4.3.1-1 .2-1.7-.3.3-.8 1.4-1 1.3.1-.2 0-.3.2-.5-.5.9-.7-.2-1.3 1 0-.1 0-.2.1-.3-.2.6-.4 1.3-.5 1.7-.1 0-.5.7-.3-.1.1 0 .2-.3.3-.5l-.2.3c.3-1.2.3-.4.6-1.2-.4.3-1 1.2-1.1.8.3-1.2.6-.3.6-1.4l.2.5c.3-1.9.1.2.5-1.8-.3-.5-.6.5-.9 0-.3.6-.3 1-.6 1.6-.9 1 .5-3.1-.4-1.6-.3.7-.8 2.2-.9 1.3l.5-1.3c-.3-.2-.8 1.8-.9.8.2-.5.4-.3.4-.5.1-1.1-.4.7-.6.6l.3-1.2c-.5.1-1.2.8-1.7.8.1-.3.3-.7.3-1.1-.7.4-1.2-.5-1.5-1.4l-.5.9s.1-.5.2-.7c-.1-.4-.2.6-.4 1-.1 0 0-.6.2-.9-.6.7-1.6 1.5-1.7.3l.2-.3c-.2-.5-1 1.9-1 .9l.1-.2c-.5-.6-1.6 0-1.6-1.6-.5 1.4-.5-.8-1.1 1.2-.1-1.1.2-1.4-.2-2.3-.1-.1-.6 1.2-.8 1.3l.3-1.1-.6 1 .3-1.3-.3.2c0 .1 0 .5-.1.8-.4.4-.4-.9-.2-1.5l-.9.7c.1-.4.3-.5.5-.8-.7 1 .3-1.1-.3-.2 0 .3-.2.6-.3.8 0-.7-.3-.8-.6-.6l.3-.7c-.4-.3-1.1 0-1.6-.1.1.4-.4 1.6-.5 1.7l.3-1.1c-.3.7 0 .5-.4 1.2-.2-.2.3-1.3.5-1.6l-.4.3c.1-.3.2-.5.3-.9-.3.7-.1-1.2-.6-.1l.1-.3c-.5-.2-.9.1-1.3.1-.3 1-.4.7-.8 1.4-.2-.4-.3-1.3-.7-1.3-.4.4-.3.8-.6 1.3.3-.9-.1-.9.2-1.5-.5 0-.6 0-1.4.5-.1.4 0 .6-.2.8-.1.1-.1-.4 0-.9l.1-.1c-1 1.1-.6-3-1.7-1.3l.1-.1-.8.8c-.2-.2.3-.6.3-1.2-1 1.3-.8-.5-1.6.3.5-2.7-1.3-.2-1.3-2l-.2.6c-.3.6 0-.4-.1-.6-.1.5 0 .6-.2.9-1.3.4-1.9-1.6-2.8-2.5-.3-.3-1.2 3.1-1.3 1.5l.5-1.1c-1.2 1.1-1.6-.6-2.8.3.1-.2.2-.6.3-.6.1-.9-.6-.2-.8.4-.1-.1.2-.6.2-1 0-.5-.7.9-.6.1 0-.1.1-.3.2-.3-.2.4-.5-.3-.7.7-.2-.5-.7.2-.7-.4-.5 1-.3-.7-.9.8.5-1.5-.1-1.4-.5-.7.2-.4 0-.5.3-1.2-.2 0-.5.2-.7 1 .2-2-1.2 1.2-.7-1.2-.9.6-1.6 1-2.3 1.2.5-1.5.7 0 1.2-1.6-.7.5-1.5 1.7-1.9 1.2-.1-.3.3-.6.4-.9-.7.5-1-.5-1.7.2 0-.1.1-.3.2-.4-.1 0-.1-.3-.4.4l.2-.2c-.2 1.1-1 2-1.2 2.5.8-2-.3-.7.7-3.1-.1.1-.3.4-.4.9 0-.2 0-.4.3-1-.5.3-.6 1.1-.9.9.1-.3.2-.5.4-.8-.4.6-.7 1.2-.9.9.1-.2.1-.5.2-.4-.5 0-1.3 1.5-1.6.7.6-1.4 0-.5.4-1.8l-.4.3-.1.7c-.2-.1-.7.8-.8.3l.3-.5-.5.1.1.6c-.4.6-.5 1.6-.7 1.2.1-.1-.2-.1-.1-.9-.2.4-.5.8-.6.4.1-.4.5-1.4.5-1.7-.4 1-.6.1-1.1 1.2.1-.3.3-.9.4-1.1l-.4.8c0-.3 0-.4.2-1-.3-.3-.4 1.6-.6.8.1-.1.1-.2.2-.3-.3-.5-.9.3-1.1-.2.3-1.3.4-.2.6-1.3-.6.1-1.5 1.2-1.9.8v.2c-.6 1.8-.1-1-.6-.2.1-.1.4-1 .3-.8-.2-.4-.8.2-1.5.6l.2-.4c-.1-.5-.4-.4-.6-.7-.2.4-.3.3-.4 1 .2-2.9-1.7 1-1.6-1.4.1 0 .3-.4.2-.4l-.6.3c-.2.8-.1.5-.2 1.1-.2.4-.5.8-.6.7.4-.5.4-1.3.4-1.7-.1.2-.2.5-.2.8.2-1.5-.5 1.6-.6.5l.1-.4c-.2.2-.5.7-.6.5.2-.9.3-.4.5-1.1-.2 0-.9 1.6-.8.6.2-.2.3-.2.5-.4.1-1.1 0-.9-.1-1.1l-.2-.6v.3c-1 2.3-.6.3-1.5 1.7.8-1.4.3-.8.7-1.9 0-.3 0-.7.1-1-.4.8-.1-.7-.7.4.1-.3-.2-.1.1-.9-.3.2-.1.6-.3 1-.7 1-.3-1.6-1.3-.2-.6.5-1 1.6-1.6 2.1 0-.6.5-1.2.5-1.2 0-.6-.2-.5-.5-.2.1-.3.2-.5.2-.9-.2 0-.5 1.2-.5.6.2-.4.4-.9.6-1.3-.3.3-.6.8-.9 1.1.1-.6.4-.8.6-1.2-.3.2-.7.4-1.1 1.3v.4c-.1 0 .2-.8.3-1 .4-.7.2.4.1.7l-.2.2c-.5 2 .6-.1.9 0l-.6 1.4.6-1.1c-.1.4-.3 1.2-.5 1.4 0 .8.3-.5.2.4 0 .1 0 .2-.1.2l.3-.4c-.1.3-.3 1-.3.8.1.9.9-.9.7.2l-.1.1c.6-.3.4-1 1.1-2.1l-.6 2.6.4-1c0 .1.1.2 0 .6.4-.7.1-.5.4-1.1-.1 1 .8-.2.3 1.4.3-.8 0-.7.4-1.2-.5 1.8.4-.2.3.7-.4.9-.4.4-.4 1.2.6-1.5.3.5.6.2.4-1.2.5-.4 1-.7-.1.4.3.9.5 1.4l-.1.2c.4-1.2.7-.9.9-1.1-.2.7-.4 1-.6 1.3l.2.1c.2-.4.3-.6.5-.7l-.3.9c.3 0 .9-.9 1-.2.3-.9.5-2.5 1-3-.1.5-.4 1.3-.5 1.5 0-.1.2-.4.2-.1l-.4.8c0 .4.3-.6.4-.5-.2.7-.1.5-.2 1-.1.1 0-.3-.1-.1.1.2.1.6 0 1.1.1-.4.3-.9.4-1 .3 0-.2.8-.1 1.2.2-.4.2.1.5-.9.1 0-.1.5-.1.8.3-.4.7.1.8-1.1v-.1c.8-.9.7.9 1.3.6l-.1.3c.4-.3.6 0 1.1-.7.1 0 0 .7-.2 1.1.3-.2.4-.6.5.1-.4.5-.1.5-.3.4.2.4.1.9.6.1-.4.8-.1 1.1.1.9v-.7c.2-.1.3 0 .4.1l-.4 1.1c.1 1.5 1.7-2.1 1.4.4.4-.8-.1-.6.3-1.5.2.2-.1 1.9 0 2 .1.7.8-1.6 1-1 .1-.4.4-1.5.8-1.8.2.2-.2 1.8-.5 2.1-.1 0-.1-.1 0-.3-.1.1-.3.3-.3.7l.2-.4c0 .5.3.5.1 1.2.3-.3.3-.6.2-.9.1.7.5.2.7.7 0-.2.1-.7.2-.7.3.6.4-.7.8-.8 0 .7-.5 1.5 0 1 .1.5-.3 1.1-.5 1.4.5-.7.4.7.5.9l-.3.3c.2-.2.2-.1.3-.1l.2-.8c0 .2.1.2 0 .5.3-.5.4-1.4.8-2 0 .4.5-.3.2.8-.3-.5-.3 1.1-.7 1.2.1-.1.2-.1.2.1 0 .1-.1.2-.1.3.1 1.1.5-1.2.9-1-.2.6-.3 1.2-.2 1.1-.1-.1.2-1 .5-1.5.1.5.4-.3.5-.2l-.1-.3c.2-.6.3-.5.6-.6-.1.5-.3.3-.3.5.5-1 .1 1.2.6.6 0 .4-.3 1.1-.3 1.5.5-.7.1.9.6.4.2-.8.1-.6.6-1.4l-.7.4.7-1.1c-.1-.1-.5.4-.5.2.4-.6.3-.4.4-1.1-.2 1.3.6-.6.6.3l-.6 2c.1 1 1-.8 1.3-.2v-.4c.3-.8.3 0 .6-.3-.2.7-.2.9-.3 1.4.1-.5.3.2.8-1.2l-.1 1c.3.5 1-1.8 1.3-1.4-.3.7-.3 1.2-.7 1.7.1 0 .2.2.3-.3-.1.4.6-.8.5-.1.1-.3.4-1 .5-.9 0 .1-.1.3-.1.3.1-.3.4-.4.5-1.2-.3 2.2 1.1.2.9 2.1.3-.1.7-.3 1-.2-.1.2-.1.3-.1.3.1.7.8-1.9 1-1.1-.1 1.2-.4.5-.4 1-.6 2.2.6-.2.4 1.2l-.1.1c0 .8.7-.7 1-.4 0 0-.1.2-.1.3.6-1.1 1.1-1.3 1.5-1.5-.4.8-.3.4-.5 1.3.2-.1.4-1.4.8-1.6-.1.5 0 1-.3 1.9h-.3c-.2 1.3.3.1.4.3l-.2.5c.4 0 .9-1.4 1.3-1.2l.1-.4c.6-1.3 0 .8.5-.1l-.4 1.4c.3-.3.9-1.1 1.3-1.3-.5 1-1 1.4-1.3 1.9.1.1.5.1.8-.6-.1.1-.3.4-.3.2.5-1 .9-1.4 1.2-1.3-.9 2.6.6.9.2 3 .8-.8.9.7 1.6.8.4-2.1.2 0 .8-2.1.2-.1.2 0 .2.1l.1 1.4c-.1.6-.3.4-.4.9.3.3-.1.9-.1 1.5.2-.8.4-1 .5-.7v-1c.8-1-.2 1.9.6.9l-.3.6c.4-.3.8.3 1.6-1.3 0 .3-.2.8-.3 1 .5.4 1.8-1.4 1.9-.2l-.2.5c.1-.1.5-.9.4-.3-.1.2-.2.5-.2.5.1-.2.6-.8.6-.5l-.3.5c.3.8 1.3-1.1 1.8-1.4-.5 1.5-.2 2.1-.1 2.4l-.1.2c.6.4 1.5-.9 2.2-1.3-.2 1.7 1 1.1 1.3 2.2 0-.3.4-1.2.5-1.3 0 .3.7-.9.2.4-.3 1.4.1 1.1.3 1.2l.6-1.8c-.3 2.8 1.8-.5 1.4 1.9.3-.4.4-.3.7-.8l-.3 1c.3.4.5.5 1 .5l-.3.7c.2.1 1.2-2.7 1.5-2.7l-.4 1.5c.5.1.5 1.5 1.4.4-.1.2-.2.6-.3.7.2.1.5 1.2 1.1-.8-.4 1.3.4.3.9-.2l-.3.9c.6-1.2.7-1.5 1.1-1.7 0 .1-.2.8-.2.5.1.6.5-.8.6-.3l-.3.6c.2.1.3-.2.7-.9.3-.3.4.4.1 1.3.2-.5.5-1.2.6-.9-.1.3-.2.5-.3.6.2.8.9-.9.9.1-.1.3-.1.5-.1.6-.3-.1-.6-.3-.5-.3-.3.9-.1 1.1-.6 2.3.4-.6 1.2-1.9 1.3-1.4 0 .1 0 .2-.1.3l-.1.1c0 .1.1 0 .2-.1 0 .2.1.3.1.3-.2.7.2.5.3.6.3-1 .4-.8.5-1.6 0 .1-.1.1-.2.1 0 0-.1 0-.1.1v-.1h-.3c.3-.5.5-.8.5-.3.3-.6.5-1.2.7-1.5-.2 1.4-.1 2.2-.3 3.1.6-.4 1-.1 1.8-1.8.2-.2 0 .6-.1.9-.1.2-.2.1-.3.4.4-.4.7 0 1.2-1.2.1.7-.5 1.1-.1 1l-.2.4c.1 2.3 2.2-2.8 2.3 0v-.5c.6 1.4 2.3-.5 2.7 1.6.2.4.4-.3.8-.9l-.3 1 .7-1.1c.7-.7-.1 2.7.9 1.3l.2-.7c.1.2.7-.2.4.6.1-.1.3-.7.2-.3l-.2.5.7-.8c.2.5-.7 2.1-.3 2.4.3-.1 1-1.4 1.1-1.8-.1-.1-.1-.4.1-.9l.3-.2c.5-1.6 1.2-3.2 1.1-4.4l-.6.9.1-.8h.3c.1-.8-.2-.2-.4.3.1-.4.2-.7.1-.9l-.8 1.4c.2-.6.5-1.2.4-1.6-.4.7-.3 1.4-.7 1.8.1-.8.3-1.3 0-.8.1-.4.2-.7.3-.8-.3.4-.5.1-.8.9.1-.9-.6.1-.1-1.4-.2.3-.6 1.1-.8 1.1.8-1.7-.5-.3.2-2.2-.7 1.6-.9.5-1.5 1.3.1-.1.2-.4.2-.3-.1-.2 0-.7-.1-1-.4 1.3-.8 1.5-1.2 2.3.2-1.4.6-1.5.9-2.8-.3 1.1-.7 1-.9 1.9.1-.9 0-.4.2-1.6-.6 1.7-.2.2-.7 1.2 0-.9.4-1.6 0-1.2.5.3 1-.2 1-.2zm-7.3.9h.2-.2zm-.6-.1c.1.1.1.1.2.1-.1.3-.2.7-.3.6.2-.2.1-.4.1-.7zm-.9 7c-.1.1-.1-.1 0-.3 0 0 .1 0 .2-.1v-.1c-.1.2-.2.4-.2.5z"/><path class="st0" d="M641.6 152.2s.1-.1 0 0c.1-.1.1-.2.1-.3-.1.1-.1.2-.1.3zM593.3 135.5zM635.2 142.2l-.1.3.1-.2zM591.4 131.3v-.3.3zM590.2 130.7l-.1-.4c0 .2 0 .3.1.4zM589.3 129.9c-.1.2-.1.3-.1.4l.1-.4zM605.3 133.7c0-.1.1-.1 0 0 .2-.2.1-.2 0 0zM600 134.4c.1-.2.2-.3.3-.4-.1-.1-.2-.1-.3.4zM610.9 134.1zM600.5 134.1c0-.2-.1-.2-.2-.1 0 .1.1.2.2.1zM585.2 128.1s-.1.1 0 0zM585.1 128.2c0 .1 0 .1 0 0zM584.9 128.5l.2-.2c-.1 0-.1 0-.2.2zM586.4 129l.1-.3s-.1.1-.1.3z"/><path class="st0" d="M586.8 129c-.1-.1 0-.8-.2-.6l-.1.3c.2-.6 0 .9.3.3zM587.1 133.8l-.2-.4c-.1.4-.1.9-.3 1 0 1.2.1-.9.5-.6zM588 134.7c-.2.1-.2.5-.2.7.1-.3.2-.4.2-.7zM595.4 137l-.3.9c.2-.1.1-.4.3-.9zM598.2 132.9l.1-.6-.3.8zM597.1 139.4l-.1.1.4-.2zM609.7 143l.3-1.1c-.2.2-.6 1.4-.3 1.1zM615.4 143.6c-.1.6-.1 1 .2.5-.1-.2-.1-.6-.2-.5zM631 150.4l-.2.3.3-.2z"/></g><g><path class="st0" d="M601.8 116c-.1.3-.1 1-.1.9l.2-1.2-.1.3zM601.9 118.2c.1-.6.3-1.6.4-2.6-.2 1.1-.1.7-.4 2-.1.1 0-.4 0-.8-.1.3 0-.3-.2.5 0 .9 0 1 .2.2.1.2 0 .5 0 .7zM606.4 120.5zM609.3 121.5s0 .1-.1.2c0 0 .1-.1.1-.2zM609.6 122.9c0-.1 0-.1 0 0 0 0 0 .1 0 0zM606.4 120.5v.4c.1-.4 0-.3 0-.4zM602.9 115.4c0 .1 0 .2-.1.3 0 0 0-.1.1-.1v-.2zM605 121.4c0 .1-.1.3-.1.5l.1-.5zM604 121.4s.1-1 .2-1.4c-.1.4-.1.6-.1.7 0 .2-.1.4-.1.7zM602.6 119.5v0zM605.7 121.7v0zM634.2 117.2v0zM634.8 122.3c0 .2-.1.4-.1.6l.1-.6zM610.4 124.3c0-.1 0-.1 0 0-.1 0 0 0 0 0zM618.8 124.5c0-.9.3-1.1.3-2.1 0 .3-.3 1.5-.3 2.1zM602.9 115.6c0-.1 0-.1 0 0 0-.1 0-.1 0 0zM619.1 122.3v-.1.1zM612.5 123.9v-.4c.1.1.1.2 0 .4zM611.1 122.3c.1 0 .1 0 0 0zM613.5 122.6s0 .2 0 0c.1 0 .1 0 0 0 0 .1 0 .1 0 0zM614.4 122.7v-.2.2zM631.5 117.4c0 .3 0 .6-.1.9.1-.7.3-.9.1-.9z"/><path class="st0" d="M602.8 116c0-.3.1-.4.1-.4v.1c-.1.1-.1.2-.1.3zM614.4 114.7l.1.2c0-.2 0-.2-.1-.2zM625.4 116.9v-.1c.1-.1.1 0 0 .1zM615 114.7V115.1v-.4zM631.5 118.3z"/><path class="st0" d="M632.6 116.1c-.1 0-.2 1.3-.3 2-.2.4 0-1 .1-1.7-.1.3-.3 1.5-.4 1.5 0-.2 0-.3.1-.6-.2 1-.3 0-.6 1.3v-.3c-.1.7-.1 1.3-.2 1.8-.1 0-.2.8-.1 0 0 0 .1-.3.1-.6l-.1.4c.1-1.2.1-.4.2-1.3-.2.4-.4 1.4-.5 1 .1-1.2.3-.4.3-1.5l.1.5c.1-1.9.1.1.2-1.9-.1-.4-.3.6-.4.2-.1.7-.1 1-.2 1.7-.4 1.2.1-3.1-.2-1.5-.1.8-.3 2.3-.4 1.5l.2-1.4c-.2-.2-.3 2-.4 1 .1-.5.2-.4.2-.6 0-1.1-.2.8-.3.8l.1-1.2c-.2.2-.5 1-.7 1.2.1-.4.1-.7.1-1.1-.3.6-.5-.2-.7-1l-.2 1s0-.5.1-.7c-.1-.4-.1.7-.2 1.1-.1.1 0-.6.1-.9-.3.9-.7 1.9-.8.7l.1-.3c-.1-.4-.4 2.1-.4 1.1v-.2c-.3-.5-.7.4-.8-1.2-.2 1.5-.2-.7-.5 1.4-.1-1.1 0-1.4-.1-2.2-.1-.1-.2 1.3-.4 1.5l.1-1.1-.2 1.1.1-1.3-.1.3v.8c-.2.5-.2-.8-.2-1.4l-.4.9c.1-.4.1-.6.2-.9-.3 1.1.1-1.2-.2-.1 0 .3-.1.7-.1.9 0-.7-.2-.7-.3-.4l.1-.8c-.2-.2-.5.3-.7.3 0 .4-.1 1.7-.2 1.8l.1-1.2c-.1.7 0 .4-.2 1.3-.1-.1.1-1.3.2-1.7l-.2.4c0-.3.1-.5.1-1-.1.7-.1-1.2-.3.1v-.3c-.2 0-.4.4-.6.4-.1 1-.2.8-.3 1.6-.1-.3-.2-1.1-.4-1.1-.2.5-.1.8-.3 1.4.1-.9-.1-.8.1-1.5-.2.1-.3.2-.6.9 0 .4 0 .5-.1.9-.1.1-.1-.4 0-.8v-.1c-.4 1.3-.4-2.7-.8-.9v-.1l-.4 1c-.1-.2.1-.7.1-1.3-.4 1.5-.4-.3-.7.7.1-2.7-.6.1-.6-1.6l-.1.6c-.1.6 0-.4-.1-.5 0 .5 0 .6-.1.9-.6.7-.9-1-1.4-1.7-.2-.2-.5 3.3-.5 1.7l.2-1.2c-.5 1.4-.8-.1-1.3 1 .1-.3.1-.6.1-.6 0-.9-.3-.1-.4.6 0-.1.1-.6.1-1 0-.5-.3 1.1-.3.2 0-.1.1-.3.1-.3-.1.4-.2-.1-.3.9-.1-.5-.3.4-.4-.2-.2 1.1-.2-.6-.4 1 .2-1.6-.1-1.3-.3-.6.1-.5 0-.5.1-1.2-.1 0-.2.3-.3 1.1 0-1.9-.5 1.5-.4-1-.4.8-.7 1.4-1 1.7.2-1.6.3-.1.5-1.8-.3.6-.6 2-.8 1.6 0-.2.1-.7.2-1-.3.6-.5-.2-.8.6 0-.1.1-.3.1-.4 0 0-.1-.2-.2.5l.1-.2c0 1.1-.4 2.2-.5 2.8.3-2.1-.2-.6.3-3.2 0 .1-.1.5-.2 1 0-.1 0-.4.1-1-.2.4-.2 1.2-.4 1.1 0-.4.1-.5.1-.9-.1.7-.3 1.4-.4 1 0-.2 0-.5.1-.5-.2.1-.6 1.8-.7 1.1.2-1.5 0-.5.1-1.8l-.2.4v.7c-.1 0-.3.9-.3.5l.1-.5-.2.2.1.5c-.2.7-.2 1.7-.3 1.3 0-.1-.1 0-.1-.8-.1.4-.2.9-.2.5s.2-1.5.2-1.8c-.2 1.1-.3.3-.5 1.5.1-.3.1-1 .1-1.1l-.1.9c0-.3 0-.4.1-1-.1-.2-.1 1.7-.2.9 0-.1 0-.2.1-.3-.1-.4-.4.5-.5.1.1-1.3.2-.3.2-1.4-.3.2-.7 1.5-.9 1.2v.2c-.2 1.9-.1-1-.3-.1 0-.1.2-1 .1-.8-.1-.3-.4.4-.7 1l.1-.5c0-.4-.2-.3-.3-.5-.1.5-.1.4-.2 1.1 0-2.8-.7 1.4-.8-.9l.1-.4-.3.4c-.1.8 0 .5 0 1.1-.1.5-.2.9-.2.8.2-.5.1-1.3.2-1.8 0 .3-.1.5-.1.8 0-1.5-.2 1.7-.3.6l.1-.4c-.1.2-.2.8-.3.6.1-1 .1-.4.2-1.2-.1 0-.4 1.8-.4.8.1-.3.1-.3.2-.5 0-1.1 0-.8-.1-1l-.1-.5v.3c-.4 2.5-.3.4-.6 2 .3-1.5.1-.9.3-2v-.9c-.2.9 0-.7-.3.6 0-.3-.1 0 0-.9-.1.3 0 .6-.1 1-.3 1.2-.2-1.5-.6.1-.3.6-.4 1.8-.7 2.4 0-.6.2-1.3.2-1.3 0-.5-.1-.4-.2 0 .1-.3.1-.6.1-1-.1.1-.2 1.3-.2.7.1-.4.1-1 .2-1.4-.1.3-.3.9-.4 1.3 0-.6.2-.9.2-1.3-.1.3-.3.5-.4 1.5v.3s.1-.8.1-1c.2-.7.1.3 0 .7l-.1.2c-.2 2 .3-.3.4-.2l-.2 1.5.3-1.2c0 .4-.1 1.2-.2 1.4 0 .7.1-.5.1.3v.3l.1-.4c-.1.3-.1 1-.1.8.1.9.4-1.1.3 0v.1c.3-.5.1-1.1.4-2.3l-.2 2.7.1-1.1s.1.1 0 .6c.2-.7 0-.5.2-1.2 0 1 .3-.4.2 1.3.1-.8 0-.6.1-1.2-.2 1.9.2-.3.2.6-.1 1-.2.4-.2 1.3.2-1.6.2.4.3.1.1-1.3.2-.5.4-.9-.1.4.2.7.3 1.2v.2c.2-1.3.3-1 .4-1.3-.1.8-.1 1.1-.2 1.4h.1c.1-.4.1-.6.2-.8l-.1 1c.1 0 .4-1.1.5-.5.1-.9.2-2.5.4-3.1 0 .5-.1 1.3-.2 1.5 0-.1.1-.4.1-.2l-.2.8c0 .4.1-.7.2-.6-.1.7 0 .5-.1 1.1 0 .1 0-.3-.1 0 0 .1.1.6 0 1.1 0-.4.1-.9.2-1 .1 0-.1.8 0 1.2.1-.5.1 0 .2-1v.8c.1-.5.3-.1.4-1.2v-.1c.3-1 .4.6.6.2v.4c.2-.4.3-.2.5-1v1.1c.1-.3.2-.6.2-.1-.2.6 0 .5-.1.4.1.3.1.9.3-.1-.1.9 0 1.1.1.9v-.7c.1-.1.1 0 .2 0l-.2 1.2c.1 1.5.7-2.4.6 0 .2-.8-.1-.6.1-1.6.1.2 0 1.9.1 1.9.1.7.3-1.7.5-1.2 0-.4.1-1.6.3-1.9.1.2-.1 1.8-.2 2.1v-.2c-.1.1-.1.3-.1.8l.1-.4c0 .4.2.4.1 1.1.1-.4.1-.7.1-.9.1.6.2 0 .3.5 0-.2 0-.7.1-.7.2.5.2-.8.4-1 0 .7-.2 1.5 0 1 0 .4-.1 1.1-.2 1.5.2-.8.2.6.3.7l-.1.3.1-.2.1-.8c0 .2.1.2 0 .5.1-.5.1-1.4.3-2.2 0 .4.2-.4.1.7-.1-.4-.1 1.1-.3 1.3 0-.1.1-.1.1 0s0 .2-.1.3c.1 1 .2-1.3.4-1.2-.1.6-.1 1.2 0 1.1-.1 0 .1-1.1.2-1.5.1.5.2-.4.2-.3v-.2c.1-.6.1-.5.2-.7 0 .5-.1.3-.1.6.2-1.1.1 1.2.3.4 0 .4-.1 1.2-.1 1.5.2-.8.1.9.3.2.1-.9 0-.6.2-1.5l-.3.6.3-1.2c-.1 0-.2.5-.2.4.1-.7.1-.5.2-1.2 0 1.3.3-.7.3.2l-.2 2.1c.1 1 .4-1 .6-.5v-.4c.1-.8.1-.1.3-.4-.1.7-.1 1-.1 1.4.1-.5.2.1.3-1.3v.9c.1.4.4-2 .6-1.7-.1.8-.1 1.3-.3 1.8.1 0 .1.1.1-.3 0 .4.3-.9.2-.3.1-.3.1-1 .2-1v.3c0-.3.2-.5.2-1.2-.1 2.2.5-.1.5 1.8.2-.2.3-.4.4-.5 0 .2 0 .4-.1.3.1.7.3-2 .4-1.3 0 1.1-.2.6-.2 1-.2 2.3.2-.3.2 1.1v.1c0 .8.3-.9.5-.7v.3c.2-1.2.5-1.5.6-1.8-.1.9-.1.5-.2 1.4.1-.1.1-1.5.3-1.7 0 .5 0 .9-.1 1.9h-.1c-.1 1.3.2 0 .2.2l-.1.6c.2-.2.4-1.6.6-1.4v-.4c.3-1.4 0 .8.2-.2l-.1 1.4c.1-.3.4-1.3.6-1.6-.2 1-.4 1.5-.6 2.2.1 0 .3-.1.4-.8 0 .1-.1.5-.1.3.2-1.1.4-1.6.5-1.6-.3 2.7.3.7.2 2.9.4-1 .4.5.8.4.1-2.1.1-.1.3-2.2.1-.1.1-.1.1 0l.1 1.3c0 .6-.1.5-.2 1 .1.2 0 .9 0 1.5.1-.8.2-1.1.2-.8v-1c.3-1.1 0 1.8.3.7l-.1.7c.2-.4.4.1.7-1.7 0 .3-.1.9-.1 1 .2.3.8-1.8.9-.7l-.1.5c.1-.1.2-1 .2-.4 0 .2-.1.5-.1.6 0-.2.2-.9.3-.6l-.1.6c.2.7.5-1.4.8-1.8-.2 1.6 0 2.1 0 2.4v.2c.3.2.6-1.2 1-1.8 0 1.7.5.8.7 1.8 0-.3.1-1.2.2-1.4 0 .3.3-1.1.1.4-.1 1.4.1 1.1.2 1.1l.2-1.9c0 2.8.8-.9.7 1.5.1-.5.2-.4.3-.9l-.1 1c.1.3.2.4.5.2l-.1.7c.1.1.5-2.9.6-2.9l-.1 1.5c.2 0 .3 1.3.7 0 0 .2-.1.7-.1.7.1.1.3 1.1.5-1-.1 1.3.2.2.4-.4l-.1 1c.2-1.3.3-1.6.5-1.9 0 .1-.1.8-.1.5.1.5.2-.9.3-.4l-.1.6c.1.1.1-.3.3-1 .1-.4.2.3.1 1.2.1-.5.2-1.3.3-1 0 .3-.1.5-.1.6.1.7.4-1.1.4-.1v.6c-.1 0-.3-.1-.2-.2-.1.9 0 1.1-.2 2.3.2-.7.5-2.2.6-1.7v.4c0 .1.1 0 .1-.1 0 .2 0 .3.1.3-.1.8.1.4.1.5.1-1 .2-.8.2-1.7 0 .1 0 .1-.1.2v.1-.1s-.1 0-.2.1c.1-.5.2-.9.2-.4.1-.6.2-1.3.3-1.6-.1 1.4 0 2.2-.1 3 .2-.5.5-.3.8-2.2.1-.2 0 .5 0 .8-.1.2-.1.2-.1.4.2-.5.3-.2.5-1.5.1.6-.2 1.2 0 1l-.1.4c.1 2.1.9-3.3 1-.5v-.5c.3 1.2 1-1 1.3.9.1.4.2-.4.3-1.1l-.1 1.1.3-1.2c.3-.9 0 2.7.5 1l.1-.7c.1.1.3-.4.2.4 0-.1.1-.7.1-.4l-.1.6.3-.9c.1.4-.3 2.2-.1 2.4.1-.2.4-1.6.4-2 0 0-.1-.4 0-.9l.1-.3c.2-1.7.4-3.3.4-4.5l-.2 1v-.8h.1c0-.8-.1-.1-.2.4 0-.4.1-.7 0-.9l-.3 1.6c.1-.7.2-1.3.2-1.6-.1.7-.1 1.5-.3 1.9 0-.8.1-1.4 0-.7 0-.4.1-.7.1-.9-.1.5-.2.2-.3 1.1 0-.9-.3.2-.1-1.4-.1.4-.3 1.2-.3 1.3.3-1.9-.2-.1 0-2.1-.3 1.7-.4.7-.6 1.6 0-.1.1-.4.1-.3-.1-.1 0-.7-.1-1-.2 1.4-.3 1.7-.5 2.5 0-1.4.2-1.6.4-2.9-.1 1.1-.3 1.1-.4 2.1 0-.8 0-.4.1-1.6-.2 1.7-.1.3-.3 1.3 0-.9.2-1.6 0-1.1-.8-.6-.6-1.2-.6-1.2zm-3.3 2.6s.1 0 0 0c.1 0 0 0 0 0zm-.3 0l.1.1c0 .3-.1.7-.1.7.1-.3 0-.5 0-.8zm-.2 7c-.1.1 0-.1 0-.3l.1-.1v-.1c-.1.2-.1.4-.1.5zM629 124.4s0-.1 0 0v-.3.3zM606.4 120.4v-.1.1zM625.8 116.4v.3-.2zM605.4 116.8v-.3.3zM604.8 116.5v-.4.4z"/><path class="st0" d="M604.4 116c0 .2 0 .3-.1.4l.1-.4zM611.9 115.6c0-.2 0-.2 0 0zM609.4 117.7c0-.2.1-.4.1-.5 0-.1 0-.1-.1.5zM614.4 114.7zM609.6 117.3c0-.2 0-.2 0 0 0 0 0 .1 0 0zM602.5 115.3zM602.4 115.4c0 .1 0 .1 0 0zM602.3 115.8l.1-.2c0-.1 0-.1-.1.2zM603 115.8v-.4c.1.1 0 .2 0 .4zM603.2 115.7c0-.1 0-.8-.1-.6v.3c.1-.5 0 .9.1.3zM603.5 120.3l-.1-.3c0 .4 0 .9-.1 1 0 1.2 0-.9.2-.7zM603.9 120.9c-.1.2-.1.6-.1.8.1-.4.1-.4.1-.8zM607.4 121.3l-.1.9c.1-.1 0-.3.1-.9zM608.6 116.7v-.6l-.1.8zM608.2 123.2v.1l.1-.3zM614.1 123.5l.1-1.1c0 .2-.2 1.5-.1 1.1zM616.8 122.7c0 .6 0 .9.1.4-.1-.1-.1-.6-.1-.4zM624.1 125.3l-.1.4.2-.3z"/></g><g><path class="st0" d="M569.7 116.6c.1.3.5.9.5.7l-.6-1 .1.3zM571.3 118.2c-.2-.5-.6-1.5-1.2-2.4.5 1 .2.6.9 1.8 0 .2-.3-.3-.5-.6.1.3-.2-.2.1.5.6.7.7.7.4 0 .1.2.2.5.3.7zM578.5 116.1l-.1-.1c.1 0 .1 0 .1.1zM582.8 114.3s0 .2.1.2c0 0-.1-.1-.1-.2zM584.1 115c0 .1.1.1 0 0zM578.5 116.1l.3.3c-.1-.4-.2-.3-.3-.3zM570.7 115.2c0 .1 0 .2.1.3v-.1c0-.1-.1-.1-.1-.2zM577.3 117.9c0 .1.1.3.2.5l-.2-.5zM576.1 118.8c.1 0-.4-.9-.7-1.2.2.4.3.5.3.6.1.2.2.4.4.6zM573.1 118.6zM578.4 117.5c.1.1.2.2.2.3-.1-.1-.2-.2-.2-.3zM611.5 89.2c0 .1.1.1.1.2 0-.2-.1-.2-.1-.2zM615.6 92.5c.1.2.2.4.3.5l-.3-.5zM586 115.4c0 .1 0 .1 0 0zM596.8 108.2c-.6-.7-.4-1.1-1.1-1.9.3.3.7 1.4 1.1 1.9zM570.8 115.3zM595.8 106.3s-.1 0 0 0c-.1-.1-.1 0 0 0zM588.5 113.2c-.1-.1-.2-.3-.3-.4.1.2.2.3.3.4zM585.7 113.2l.1.1c-.1 0-.1-.1-.1-.1zM588.9 111.4c.1 0 .1.2 0 0 .1 0 0-.1 0 0 .1 0 .1.1 0 0zM590 110.7c0-.1-.1-.1-.1-.2l.1.2zM608.3 91.6c.2.2.3.5.5.7-.3-.5-.3-.9-.5-.7z"/><path class="st0" d="M571 115.7c-.1-.2-.2-.3-.2-.4v.1c.1.1.2.2.2.3zM584.9 104.5h.3-.3zM600.3 96.5c-.1-.1-.1-.1 0 0zM585.6 104.1c.2.3.4.4.5.5 0-.1-.1-.1-.1-.2l-.4-.3zM608.8 92.4z"/><path class="st0" d="M608.8 89.6c-.2.1.6 1.2.9 1.8 0 .4-.6-.8-1-1.3.1.4.6 1.5.4 1.5-.1-.2-.2-.2-.3-.5.4 1-.4.3.1 1.5-.1-.1-.1-.2-.2-.3.4.6.7 1.1.9 1.5-.1.1.3.8-.2.1.1 0-.1-.3-.2-.6l.1.4c-.7-1-.1-.4-.6-1.2 0 .4.4 1.4.1 1.2-.6-1 .1-.5-.6-1.4l.4.3c-1.1-1.6.2 0-1-1.6-.4-.2 0 .7-.4.5.3.6.5.8.8 1.5.3 1.3-1.8-2.5-1.3-.9.3.7 1.1 2.1.5 1.5l-.6-1.2c-.3 0 .9 1.8.2 1.1-.2-.5 0-.5-.2-.6-.7-.8.3.7.2.8l-.6-1c-.2.3 0 1.2-.2 1.6-.2-.3-.3-.7-.6-1 0 .7-.8.3-1.5-.1l.4 1s-.3-.4-.4-.6c-.3-.3.3.6.5 1 0 .1-.4-.5-.5-.8.2.9.3 2-.5 1.2l-.1-.3c-.4-.3.9 2 .2 1.2l-.1-.2c-.6-.1-.6 1-1.7-.2.7 1.3-.8-.3.3 1.5-.8-.8-.9-1.1-1.6-1.5-.1 0 .5 1.2.5 1.5l-.6-.9.4 1.1-.5-1.1v.3c.1 0 .3.4.5.7.1.5-.8-.4-1.1-.9l.1 1c-.2-.4-.2-.6-.3-.8.4 1.1-.6-1-.3 0 .2.2.3.6.4.8-.4-.5-.6-.4-.7-.1l-.4-.7c-.4 0-.4.7-.7.8.3.2.9 1.4.9 1.6l-.6-1c.3.7.3.3.6 1.2-.2 0-.8-1.1-.9-1.5l.1.4c-.2-.3-.2-.5-.5-.9.3.7-.8-.9-.3.3l-.2-.3c-.3.2-.3.6-.5.8.5.9.3.7.6 1.5-.4-.2-1-.7-1.2-.5.1.5.4.8.6 1.3-.5-.8-.7-.6-.9-1.2-.2.3-.3.4-.2 1.2.2.3.4.4.5.7 0 .2-.3-.2-.6-.6v-.1c.3 1.4-2.3-1.8-1.6.1v-.1l.2 1c-.2 0-.3-.6-.7-1.1.4 1.5-.7.1-.4 1.2-1.6-2.2-.7.6-1.9-.7l.3.5c.2.6-.3-.3-.4-.4.3.4.4.4.5.8-.3 1.1-1.8 0-2.8-.1-.3 0 1.5 2.9.5 1.8l-.5-1.1c.2 1.5-1 .6-.9 1.9-.1-.3-.3-.6-.2-.6-.5-.7-.4.2 0 .8-.1 0-.3-.5-.6-.8-.4-.4.3 1.1-.2.4-.1-.1-.1-.3-.1-.3.1.4-.4.1.2.9-.4-.3-.1.6-.6.2.5 1-.6-.3.2 1.1-.8-1.4-1-.9-.7-.2-.2-.4-.4-.4-.7-1-.1.1-.1.4.4 1.1-1.2-1.5.3 1.6-1.1-.4.1 1 0 1.7-.2 2.2-.8-1.4.3-.4-.6-1.8 0 .8.5 2.1 0 1.9-.2-.1-.3-.6-.4-.9 0 .8-.7.3-.6 1.2-.1-.1-.1-.3-.2-.4 0 .1-.3-.1.1.5v-.2c.6.9.9 2.1 1.2 2.5-1-1.9-.6-.3-1.8-2.7 0 .1.2.5.4.9-.1-.1-.3-.3-.5-.8 0 .5.5 1.1.3 1.2-.2-.3-.2-.4-.4-.8.3.7.5 1.3.2 1.1-.1-.2-.3-.4-.2-.4-.2.3.5 1.9-.2 1.5-.7-1.4-.4-.4-1.1-1.5v.4l.4.5c-.2.1.2 1-.1.7l-.2-.5-.1.4.4.3c.2.7.9 1.4.5 1.2 0-.1-.2.1-.6-.6.1.4.3.8 0 .6-.2-.4-.7-1.3-.9-1.5.5 1-.2.5.3 1.5-.1-.3-.5-.9-.6-1l.4.8c-.2-.2-.3-.3-.6-.8-.3 0 .9 1.4.3.9 0-.1-.1-.2-.1-.3-.4-.2-.2.8-.6.5-.7-1.1 0-.4-.6-1.3-.2.4.2 1.8-.3 1.7l.1.1c.9 1.7-.7-.7-.4.2 0-.1-.5-.9-.4-.7-.4-.1-.2.7-.2 1.4l-.2-.4c-.3-.3-.5 0-.7-.1.2.4.1.4.5 1-1.8-2.1 0 1.7-1.6 0l-.1-.4-.1.6c.4.7.3.4.7.9.2.4.3.8.2.9-.1-.6-.7-1.1-1-1.5.1.2.3.5.4.7-.9-1.2.8 1.4.1.7l-.2-.4c0 .2.2.8.1.7-.5-.8-.1-.4-.5-1.1-.1.1.7 1.7.1 1-.1-.3 0-.3-.1-.6-.7-.9-.6-.6-.7-.7l-.5-.3.2.2c1.1 2.2-.1.6.5 2.1-.6-1.5-.4-.8-1-1.7-.2-.2-.5-.5-.6-.7.3.8-.5-.5 0 .7-.2-.3-.1 0-.5-.7 0 .3.3.5.6.9.4 1.1-1.2-1-.7.6.1.7.6 1.8.7 2.4-.4-.4-.6-1.1-.6-1.1-.4-.4-.4-.2-.3.2-.1-.3-.3-.5-.5-.8 0 .1.6 1.1.2.8-.2-.3-.5-.9-.6-1.3.1.3.3 1 .3 1.3-.3-.5-.4-.8-.6-1.2 0 .3-.1.7.4 1.5l.3.2c0 .1-.4-.7-.5-.9-.3-.7.3.2.5.5v.2c1.1 1.7.2-.5.4-.5l.7 1.3-.5-1.2c.2.3.7 1 .7 1.3.5.6-.2-.5.4.1.1.1.1.2.1.2l-.1-.5c.1.3.6.9.4.8.6.6-.2-1.2.4-.2v.1c0-.6-.5-1-1-2.2l1.5 2.2-.5-1s.2.1.4.4c-.3-.7-.3-.4-.6-1 .6.8.2-.6 1.1.8-.4-.7-.5-.5-.6-1.1 1 1.6 0-.4.6.3.5.9.1.5.6 1.2-.8-1.5.4.2.4-.2-.7-1.1 0-.6-.1-1.1.2.4.7.4 1.1.7l.1.2c-.6-1.2-.3-1-.3-1.4.4.7.5 1 .6 1.3l.1-.1c-.2-.4-.3-.6-.3-.8l.5.9c.1-.1-.3-1.2.3-.7-.5-.8-1.5-2.1-1.6-2.8.3.4.7 1.1.7 1.4 0-.1-.1-.4 0-.2l.3.8c.3.3-.3-.6-.2-.6.4.6.3.4.6.9 0 .1-.2-.2-.1 0 .1.1.5.4.8.8-.2-.3-.5-.8-.5-.9.1-.1.5.7.8 1-.2-.4.2-.1-.4-1 0 0 .3.4.5.6-.2-.5.3-.3-.3-1.3l-.1-.1c-.3-1.1.9.2.9-.4l.2.3c0-.4.2-.4 0-1.1 0 0 .4.5.6.9 0-.3-.2-.7.3-.3.2.6.3.4.1.5.3.2.6.6.3-.3.4.8.7.9.6.6l-.4-.5c0-.2.1-.1.3-.1l.6 1c1.1 1.1-.7-2.5.8-.5-.3-.8-.5-.4-.9-1.3.2 0 1.3 1.4 1.3 1.4.5.4-.7-1.6-.2-1.4-.2-.3-.8-1.3-.9-1.8.2 0 1.1 1.4 1.2 1.8 0 .1-.1-.1-.2-.2 0 .2.1.4.4.7l-.2-.4c.3.3.5.2.8.8-.1-.4-.3-.6-.5-.8.5.4.3-.2.7.1-.2-.2-.4-.6-.4-.6.6.3-.3-.8-.2-1 .4.5.7 1.4.7.8.3.3.6 1 .7 1.3-.2-.8.6.3.8.3l.1.4c0-.2 0-.2.1-.3l-.5-.7c.1.1.2.1.4.4-.2-.5-.8-1.2-1-1.9.3.3 0-.5.6.4-.4-.2.6 1 .5 1.2 0-.1 0-.2.2-.1.1.1.1.2.1.3.7.7-.5-1.2-.3-1.3.3.6.7 1 .6.9-.1 0-.6-.9-.7-1.4.4.3 0-.4.1-.4l-.2-.1c-.3-.6-.2-.5-.2-.8.3.4.1.3.2.5-.5-1 .9.8.6.1.3.3.6 1 .8 1.2-.2-.8.6.6.5-.1-.5-.7-.4-.5-.7-1.3v.7l-.4-1.2c-.1 0 .1.6-.1.5-.3-.7-.2-.5-.6-1.1.8 1-.1-.8.5-.1l1.1 1.8c.7.7-.1-1.2.4-.9l-.3-.3c-.4-.7.1-.2 0-.6.4.6.5.8.8 1.2-.3-.4.2-.1-.5-1.3l.6.7c.4.2-.8-1.9-.4-1.8.3.7.7 1.1.8 1.6.1 0 .2 0 0-.4.3.4-.3-.9.1-.4-.1-.3-.5-.9-.4-.9.1.1.2.3.2.3-.2-.3-.1-.5-.6-1.1 1.4 1.8.6-.5 1.7 1 0-.3.1-.6.3-.7.1.2.2.3.1.3.5.4-.9-1.8-.3-1.3.7.9.2.6.5.9 1.2 2 .1-.4 1 .6v.1c.5.6-.2-.9.1-.9 0 0 .1.2.2.3-.5-1.1-.4-1.6-.4-2 .4.8.2.5.7 1.2 0-.2-.8-1.3-.7-1.6.3.4.7.7 1.2 1.5l-.1.1c.7 1.1.2-.2.4 0l.3.5c.2-.3-.6-1.5-.2-1.6l-.2-.3c-.6-1.3.5.6.1-.4l.8 1.2c-.1-.4-.4-1.4-.3-1.7.4 1 .5 1.5.7 2.1.1 0 .3-.3 0-.9 0 .1.2.5 0 .3-.4-1-.6-1.6-.4-1.7 1.4 2.4.8.3 2.1 2.1-.2-1.1.9 0 1.2-.4-1.2-1.8.1-.1-1.1-2 0-.2.1-.2.2 0l.9 1c.4.5.2.5.4.9.3 0 .6.7 1 1.2-.4-.7-.5-1-.2-.8l-.7-.8c-.3-1.2 1.2 1.4.9.3l.3.6c-.1-.4.5-.3-.2-1.9.2.2.5.7.5.9.5 0-.2-2.1.6-1.3l.2.5c0-.2-.4-.9 0-.5.1.2.2.5.3.5-.1-.2-.3-.9-.1-.7l.2.6c.7.4-.2-1.6-.1-2 .8 1.4 1.3 1.6 1.6 1.8l.1.2c.5-.1 0-1.5 0-2.3 1.1 1.3 1.1.2 2 .8-.2-.2-.6-1.1-.6-1.2.2.2-.3-1.1.4.2.8 1.2.8.8.9.7l-.7-1.5c1.8 2.2.4-1.4 1.9.6-.2-.5 0-.5-.2-1l.5.9c.4.1.6.1.7-.3l.3.7c.2 0-1.3-2.6-1.2-2.8l.8 1.3c.3-.2 1.2.8.8-.6.1.2.3.6.3.7.2 0 1 .6-.1-1.2.7 1.2.4-.1.2-.7l.5.9c-.5-1.2-.7-1.5-.7-1.9.1.1.4.7.3.5.4.4-.4-.9.1-.5l.3.6c.2 0 0-.3-.3-1-.1-.4.4 0 .9.8-.3-.5-.6-1.2-.3-1 .2.3.3.5.3.6.6.4-.2-1.2.5-.5.2.3.3.4.3.5-.2.1-.4.1-.4.1.5.8.7.8 1.2 2-.2-.7-.8-2.1-.4-1.8.1.1.1.1.2.3v.1c.1.1.1 0 0-.2.1.1.2.2.3.2.4.6.4.2.5.2-.5-.9-.3-.8-.9-1.4V99.5v-.1c0 .1-.1.1-.2.2-.2-.5-.3-.9 0-.5-.3-.6-.6-1.2-.7-1.5.8 1.1 1.4 1.7 1.9 2.4 0-.6.4-.7-.4-2.4-.1-.3.4.4.5.7.1.2 0 .2.1.4-.1-.5.3-.4-.3-1.6.5.4.5 1.1.7.8l.2.4c1.5 1.5-.9-3.4 1-1.3-.1-.1-.2-.2-.3-.4 1.2.7.7-1.7 2.2-.4.4.2 0-.5-.3-1.1l.6.9-.5-1.2c-.2-.9 1.8 2 1.2.4l-.4-.6c.2.1.1-.6.5.2-.1-.1-.3-.7-.1-.4l.3.5-.2-1c.4.2 1.1 2 1.5 1.9 0-.3-.5-1.6-.7-1.9-.1 0-.3-.2-.6-.7v-.3c-.8-1.4-1.6-3-2.5-3.8l.3 1-.5-.7.1-.1c-.5-.6-.2 0 0 .4-.2-.4-.4-.6-.5-.7l.6 1.5c-.4-.5-.6-1.2-.9-1.4.3.7.8 1.2.9 1.7-.5-.6-.8-1.1-.5-.5-.2-.4-.4-.6-.4-.8.2.5-.1.3.3 1.1-.6-.8-.2.4-1-1 .2.3.5 1.2.4 1.3-.8-1.7-.4.1-1.4-1.7.8 1.5 0 .9.3 1.8-.1-.1-.2-.4-.1-.3-.2-.1-.5-.5-.7-.7.7 1.2.7 1.6 1 2.4-.8-1.1-.8-1.5-1.5-2.6.6 1 .3 1.1.9 1.9-.5-.7-.3-.3-.9-1.3.9 1.5.1.3.5 1.3-.6-.7-.9-1.4-.8-.8-.2-.7-.4-1.3-.4-1.3zm-2.5 5c0-.1 0-.1 0 0 .1-.1.1-.1 0 0zm-.3.2c.1 0 .1 0 .2-.1.2.3.4.6.3.6l-.5-.5zm4.3 5.6c0 .2-.1 0-.2-.2v-.2s0-.1-.1-.1c.1.2.2.4.3.5z"/><path class="st0" d="M609.7 99.2s0-.1 0 0c-.1-.1-.1-.2-.2-.3.1.1.1.2.2.3zM578.4 115.9zM600.4 95.9l.1.2-.1-.2zM574.8 114.1c0-.1-.1-.1-.2-.2.1 0 .1.1.2.2zM573.9 114.3l-.3-.2c.1.1.2.2.3.2zM573 114.3c.1.2.1.3.2.4l-.2-.4zM582.2 107.5s0-.1 0 0c0-.3 0-.2 0 0zM580.5 111.2c-.1-.2-.1-.3-.1-.5-.1 0-.2 0 .1.5zM584.9 104.5z"/><path class="st0" d="M580.5 110.7c-.2-.1-.2-.1-.1.1 0 0 .1 0 .1-.1zM570.1 115.5v.1-.1zM570.1 115.6c.1.1.1.1 0 0zM570.2 116l-.1-.3.1.3zM571.2 115.4l-.2-.3s.1.1.2.3zM571.4 115.1c-.1 0-.5-.6-.5-.3l.1.3c-.2-.5.6.6.4 0zM574.7 118.4l-.4-.1c.2.3.5.7.5.9.9.8-.5-.8-.1-.8zM575.6 118.5c0 .2.3.5.4.7-.1-.4-.1-.4-.4-.7zM580.3 115.8l.5.8c0-.2-.2-.3-.5-.8zM578.8 111.2l-.4-.5.4.8zM582.6 116.5v.1-.4zM590.3 111.6l-.6-1c0 .2.6 1.3.6 1zM593 108.6c.3.5.6.7.4.2-.1 0-.4-.3-.4-.2zM604.1 104.2l.1.4v-.4z"/></g></g></svg>