<svg version="1.1" id="Capa_1" xmlns="http://www.w3.org/2000/svg" x="0" y="0" viewBox="0 0 657.1 236.7" xml:space="preserve"><style>.st0{fill:#fff}</style><path class="st0" d="M656.7 185.5c-13.3-6.8-20.9-11.3-37.6-14.7-17-3.4-21.9-3.7-40.1-4.1-.5-1.5-.9-3.1-.6-4.7.9-6.8 10.5-80 6.6-87.4.1-1.2-.2-2.5-1-3.5.2-.5 0-1-1-1.3C522.5 54 453.8 45.7 387.6 42.4 319.5 39 250.7 41 183.9 49.1 145.8 53.6 108.5 60 72.4 68.3c-.5.2-1 .3-1.3.6-.2 0-.4.1-.5.3-1.7 2.3-1.3 5.7 1.2 8 .5 1.3 1.1 5.8 1.8 7 4.6 7.4 3.3 74.1-.1 81.3-7.7.2-4.3-.3-11.4.9-9.4 1.5-2.4.3-11.4 2.3-16.8 3.9-33.3 11.5-48.6 17.2-1.5.1-2.9 1-1.8 2C4.6 191.4 9 194.8 14 198c4.3 2.7 9.1 5.9 14.6 8-.8 2.1-.8 4.4-.9 6.4-.2 1.6-.4 3.3-.8 4.9-.9 4.3-2.2 8.7-2.2 13.1-.1.2-.1.3-.1.5-.4.7-.6 1.5-.2 2v.3c0 .5-.2 1 .6 1.5 2 .9 6.8-1 8.5-1.5 7.2-2 13.5-3.9 20.8-5.9 40.5-8.6 55.4-11.3 99.6-10.3 2.3.1 3-1.4 2-2.2 1.5-8.8-4.1-17.8-12.8-25C249 172 364 170 471.4 183.5c12.8 1.6 25.4 3.5 37.8 5.6-4.4 6.3-7.6 13-10.2 19.8-1.9 3.6-3.3 7.5-4.2 11.1v.1c0 .1 0 .2-.1.3 0 .3.3.6.6.8-.1.3 0 .5.4.5 8.5.5 16.8-.8 25.2-1.7 6.3-.7 12.6-1.2 19.1-1.5 13.6.2 27.3.9 40.7 2.3 27.4 2.8 28.7 6.3 53.3 13.4 2.6.8 4.9-1.3 2.7-2.2-1.4-4.4-3.9-8.7-5.5-13-1.5-4.4-2.7-8.7-3.6-13.1 1.9-1.5 3.7-3 5.4-4.5 2.4-1.5 4.6-3.2 7-4.6 5.1-3.2 11.1-6 15.6-9.4 1.5-.7 1.9-1.4 1.1-1.9zm-40.4-12.7c17 3.3 20.5 8.5 35.9 13.3-5.8 2.6-10.8 6-15.6 9.1-4.7 3-10.1 6.1-13.1 9.8-.2-.2-.8-.1-.8.2-.1 2.3.6 4.8 1.6 7.2 1 6.2 3.3 12.6 8.3 17.9-23.6-7.3-25.5-10.1-52-12.7-13.1-1.3-26.3-2.1-39.6-2.2-9.4-.1-19.9-.3-29.6.5 5-2 10.5-3.6 16.3-4.7 9.8-1.9 20-1.7 30.1-2.7 7.8-.7 16.9-2.5 23.1-5.7.2 0 .5-.1.8-.2.2-.1.3-.1.5-.2 6.7-4.2 10.5-10.1 9.6-15.8.2-2.7-1.4-5.1-3.8-7.8-2.8-3.3-5.9-6.3-7.9-9.5 17 .8 20 .4 36.2 3.5zM19.2 196.9c-4.7-3-9.2-6.2-13.3-9.4 15.9-5.3 30.9-13.1 48.2-16.8 8.1-1.7 1.2-.3 9.5-1.5 6.5-1 2.1.4 8.6-.7 0 .1-.1.2-.1.2-4.3 8.3-10.2 19.5-5.6 28.5-.4 2.5 1.6 5.1 5 6.8 5.3 2.7 13.2 3.3 20.1 3.1 3.2-.1 6.4-.3 9.5-.4 15 .5 29.2 3.1 42.2 7.3-48.8-.2-71 3.7-113.7 17.2 1.6-4.1.9-8.5 1.8-12.8.6-3.6 1.9-7.4 1.7-11 .2-.7.4-1.5.5-2.1.1-.3-.5-.4-1-.3-.1-.2-.2-.3-.5-.3-3.8-3-8.7-5.2-12.9-7.8zm117-6c1.2.3 2.5.4 3.6.8 8 6.9 10.8 13.8 11.8 21.8-10.4-3.9-21.6-6.8-33.7-8.2-5.3-.7-10.6-1.1-16-1.3-7.1-.3-17.3 1.3-23.3-1 18.8-4.8 38.1-8.7 57.6-12.1zm251-17.5c-67.5-3.3-136.3-.9-202.3 7.7-34.7 4.5-68.8 10.6-102 18.2-3.7.7-7.4 1.5-11 2.1-3.6-6.2-3.6-11.3-1.1-17.9 2.3-5.7 6.6-11.1 9.2-16.8 2.5-5.6 1.5-60.2 2.2-66 .9-6.9-4.4-21.3-1.8-27.3 125.7-28.7 260.8-37.9 393-20.8 36.3 4.7 69.4 14 104.1 21.3 2.2 5.6 3 19.1 1.1 27.6-1.2 5.1-5.9 59.2-5.2 64.4.1.6.2 1.3.4 1.9-.1.3 0 .5.2.8 1.1 2.7 3.1 5.2 5.3 7.7 1 1.1 1.9 2.2 2.8 3.3-.1.3 0 .6.2.9 2.9 3.6 4.4 7.4 3.8 11-1.2 1.6-2.3 3.3-3.6 5-1.2 1.2-2.5 2.2-3.9 3.1 1.6-2.6 3.2-5.1 4.9-7.6 0-.1-.1-.1-.2 0-1.6 2.6-3.2 5.1-4.9 7.7-59.2-15.4-126.6-23.1-191.2-26.3zm188 28c-10.2 4.5-24.4 4-38.5 5.3-14.2 1.3-26.6 5-36.7 10.7-.1 0-.3.1-.4.1 1.1-2.4 2-4.8 2.7-7.2 3.2-7 7.1-13.9 10.1-20.9 21.1 3.5 41.9 7.7 62.8 12zM139 202.8c-1.5-3.9-4-7.7-7.3-11.2"/><path class="st0" d="M139.1 202.7c-.6-2.1-1.7-3.9-2.9-5.8-.5-1-1.2-2-1.9-2.9-.3-.5-.8-.9-1.2-1.4s-.8-.9-1.3-1.3c-.3-.3-.9.1-.6.4.3.4.8.9 1.1 1.3.4.4.8.9 1.2 1.4.8.9 1.4 1.8 2.2 2.7 1.3 1.8 2.3 3.9 3 5.8.2.1.6.1.4-.2zM126.4 203c-1.1-3.4-3-6.8-5.8-9.9"/><path class="st0" d="M126.5 203c-.4-1.8-1.2-3.5-2.2-5.1-1-1.7-2.2-3.4-3.7-4.8-.1-.2-.4 0-.3.2 1.2 1.6 2.5 3.1 3.5 4.8 1 1.6 1.7 3.3 2.4 5.1.1.1.3 0 .3-.2zM113.4 199.5c-1-1.5-1.9-3.1-2.9-4.6"/><path class="st0" d="M113.5 199.4c-.4-.8-.9-1.6-1.4-2.4-.2-.3-.4-.8-.8-1.1-.2-.3-.4-.8-.8-1.1-.1-.1-.2 0-.2.1.1.4.3.8.6 1.1.2.4.5.8.8 1.2.5.8 1.1 1.5 1.5 2.3.1.2.4 0 .3-.1zM102.9 201.4c-.9-1.5-1.7-2.9-2.7-4.4"/><path class="st0" d="M103 201.4c-.4-.8-.9-1.5-1.3-2.2-.2-.3-.4-.7-.6-1.1-.1-.2-.2-.3-.3-.5-.1-.2-.2-.3-.3-.5-.1-.1-.2 0-.2.1 0 .2.1.3.2.5s.2.3.3.5c.2.3.4.8.6 1.1.4.8.9 1.5 1.4 2.1.1.3.3.1.2 0zM91.8 202.8c-.4-.5-.8-1.1-1.2-1.6"/><path class="st0" d="M92 202.7c-.2-.3-.3-.6-.5-.9-.1-.2-.2-.3-.3-.4-.1-.2-.2-.3-.3-.4-.1-.1-.3 0-.2.1 0 .2.1.3.2.4.1.2.2.3.3.4.2.3.4.5.6.9 0 .2.3.1.2-.1zM46.5 176c7.8-1.7 15.8-3.2 24-4.3"/><path class="st0" d="M46.5 176.2c4-.8 8-1.5 12-2.2 2-.3 4-.7 6-1 1.1-.2 2-.3 3.1-.5 1-.2 1.9-.2 2.8-.5.2-.1.1-.3-.1-.3-1-.1-1.9.2-2.9.3-1.1.2-2 .3-3.1.4-2 .3-4 .7-6 1-4 .7-8 1.5-11.9 2.5-.3.1-.1.3.1.3zM46.9 181.3c6.1-1.4 12.3-2.6 18.7-3.6"/><path class="st0" d="M47 181.4c3.1-.6 6.1-1.3 9.3-1.8 1.5-.3 3-.5 4.5-.9.8-.2 1.6-.3 2.4-.4.8-.2 1.6-.3 2.4-.4.2-.1.2-.3-.1-.3-1.5 0-3.1.4-4.5.7-1.6.3-3.2.6-4.9.9-3.1.6-6.3 1.3-9.3 2.1 0-.1 0 .1.2.1zM52.8 186.3c5.4-1 10.9-2.1 16.3-3"/><path class="st0" d="M52.9 186.5c2.8-.5 5.5-1 8.3-1.5 1.4-.3 2.7-.5 4.1-.8.6-.2 1.4-.3 2-.4.6-.1 1.3-.2 1.8-.4.1-.1.1-.2-.1-.2-.6 0-1.3.2-1.9.3-.6.1-1.4.3-2 .4-1.4.3-2.7.5-4.1.8-2.8.5-5.5 1-8.3 1.5-.1 0-.1.3.2.3zM49.4 194.1c5.4-.9 10.9-1.7 16.4-2.6"/><path class="st0" d="M49.4 194.4c2.7-.4 5.5-.8 8.2-1.2 1.3-.2 2.6-.4 4-.6 1.4-.3 2.9-.3 4.2-.8.2-.1.2-.3-.1-.3-1.3 0-2.7.3-4.1.5s-2.7.4-4.1.6c-2.8.4-5.5.9-8.3 1.4-.2 0-.1.4.2.4zM57.5 202.6c4.2-.5 8.5-.9 12.8-1.2"/><path class="st0" d="M57.5 202.8c2.2-.3 4.4-.5 6.6-.7 1.1-.1 2.2-.2 3.1-.3s2.2-.1 3.1-.3c.1 0 .2-.3 0-.3-1-.1-1.9 0-2.9.1l-3.6.3c-2.2.2-4.3.4-6.5.7-.1.2 0 .6.2.5zM61.5 211.3c8.6-1.1 17.3-2.3 25.9-3.4 8.8-1.2 18-2.3 27-1.4"/><path class="st0" d="M61.6 211.4c6.9-.9 13.9-1.7 20.8-2.7 6.8-.9 13.7-1.9 20.6-2.3 1.8-.1 3.8-.2 5.6-.1 1.9 0 3.9.2 5.8.3.3 0 .4-.4.1-.5-3.3-.6-6.9-.5-10.2-.3-3.5.2-6.9.4-10.2.9-6.9.8-13.8 1.8-20.7 2.7-4 .6-7.9 1.1-11.9 1.6-.4.1-.2.4.1.4zM76.8 214.1c19.5-2.7 39.6-5.3 59.6-3.9"/><path class="st0" d="M76.8 214.3c15.3-2.1 30.7-4.1 46.3-4.2 4.4 0 8.8.1 13.2.4.4 0 .4-.5 0-.6-15.5-1.1-31.2.3-46.6 2.2-4.3.5-8.6 1.1-12.9 1.7-.4.2-.3.5 0 .5z"/><g><path class="st0" d="M512.9 199.8c1.6-3.9 3.8-7.5 6.5-11.1M513 199.8c1-2 1.9-3.9 3-5.7.5-.9 1.1-1.8 1.7-2.7.6-.9 1.3-1.8 1.7-2.7 0-.1-.1-.1-.1-.1-.9.8-1.5 1.7-2 2.6-.6.9-1.2 1.9-1.8 2.8-1.1 1.9-2 3.8-2.8 5.7-.1.3.2.3.3.1z"/></g><g><path class="st0" d="M522.9 198.8c2-2.7 4.2-5.3 6.3-8M523.1 198.9c1.1-1.3 2.2-2.7 3.2-4 .5-.7 1.1-1.4 1.6-2.1.4-.6 1.1-1.3 1.4-2 .1-.2-.2-.3-.3-.2-.6.5-1.2 1.2-1.6 1.9-.5.7-1.1 1.4-1.6 2.1-1.1 1.4-2 2.7-3.1 4.1-.1.2.3.4.4.2z"/></g><g><path class="st0" d="M533.3 199.1c1.7-2.1 3.6-4.2 5.3-6.3M533.4 199.3c1-1 1.9-2.1 2.9-3.2.4-.5 1-1.1 1.4-1.6.2-.3.4-.5.6-.9.2-.3.4-.4.4-.8 0-.2-.2-.2-.3-.2-.3.2-.5.4-.8.6-.2.3-.4.5-.8.8-.4.5-.9 1-1.3 1.6-.9 1.1-1.7 2.1-2.6 3.3.2.3.4.5.5.4z"/></g><g><path class="st0" d="M544.9 199.8c1.7-1.9 3.3-3.8 5.1-5.7M545 199.9c1-.9 1.7-1.9 2.6-2.8.4-.4.9-.9 1.3-1.5.4-.5.9-.9 1.2-1.5.1-.1-.1-.3-.2-.2-.5.4-1 .9-1.3 1.4-.4.4-.9.9-1.3 1.4-.9.9-1.7 1.9-2.5 2.9-.2.3.1.4.2.3z"/></g><g><path class="st0" d="M555 200.1c.8-1.1 1.9-2.1 3.3-3M555.2 200.2c.4-.5 1-1 1.5-1.5.3-.3.6-.5.9-.7.2-.1.3-.3.5-.3.2-.1.3-.3.5-.4.1-.2-.1-.3-.3-.3l-.6.3c-.2.1-.3.3-.5.3-.3.3-.6.5-1 .8-.5.5-1.1 1.1-1.4 1.7-.3.2.2.4.4.1z"/></g><g><path class="st0" d="M561.3 201.5c1.3-1.1 2.7-2.2 4-3.3M561.5 201.6c.3-.3.8-.5 1.1-.8.3-.3.8-.5 1.1-.9.3-.3.6-.5 1-.9l.9-.9c.1-.2-.1-.3-.3-.3-.4.2-.8.5-1.1.8-.3.3-.6.6-1.1.9-.3.3-.6.6-1 .9-.3.3-.6.6-1 .9 0 .2.2.4.4.3z"/></g><g><path class="st0" d="M630.5 177.9c-16.5-1.8-33.2-3.2-50.1-4.1M630.6 177.9c-12.8-1.7-25.9-2.7-38.8-3.7-3.7-.3-7.4-.6-11.2-.7-.4 0-.4.5 0 .5 3.2.3 6.6.3 9.8.6 3.2.2 6.6.4 9.8.7 6.5.5 12.8 1.1 19.3 1.6 3.6.3 7.3.8 11.1 1z"/></g><g><path class="st0" d="M619.6 184.6c-11-1.6-22.3-2.7-33.8-3.1M619.6 184.5c-8.6-1.3-17.4-2.2-26.1-2.8-2.5-.2-5.2-.4-7.7-.3-.2 0-.3.3-.1.4 2.2.3 4.3.3 6.4.3 2.2.1 4.4.3 6.6.4 4.5.3 9 .8 13.4 1.3 2.5.3 5 .6 7.3.9.3.1.4-.2.2-.2z"/></g><g><path class="st0" d="M613.1 192.7c-8.4-.6-16.7-1.3-24.9-2.2M613.1 192.6c-4.2-.4-8.3-.8-12.5-1.1-4.1-.3-8.3-.9-12.4-1.1-.2 0-.2.3 0 .3 4.1.7 8.2 1 12.4 1.4 4.2.3 8.4.7 12.6.9.1-.2.1-.4-.1-.4z"/></g><g><path class="st0" d="M614.3 201.8c-10.2-1-20.5-2-30.9-2.8M614.3 201.8c-2.5-.3-5-.6-7.4-.9-2.6-.3-5.2-.5-7.9-.8-5.2-.5-10.4-.9-15.5-1.3-.2 0-.2.3 0 .3 5.2.5 10.2 1 15.4 1.5 2.6.3 5.2.4 7.7.7 2.6.3 5.2.3 7.7.6.1 0 .1-.1 0-.1z"/></g><g><path class="st0" d="M611.9 210.5c-19.5-2.3-39.4-3.6-59.3-3.8M611.9 210.4c-15.2-2.1-30.6-3.2-46.1-3.7-2.2-.1-4.4-.2-6.7-.2-2.3-.1-4.4-.1-6.7 0-.2 0-.2.3 0 .3 3.9.3 7.8.3 11.7.4 3.9.1 7.8.3 11.7.5 7.7.4 15.4.9 23.1 1.7l12.9 1.2c.2.1.3-.2.1-.2z"/></g><g><path class="st0" d="M611.3 217.2c-24.1-4.1-49.3-6-74.3-5.7-6.6.1-13.4.4-19.3 2"/><path class="st0" d="M611.3 216.9c-12.1-2.1-24.4-3.6-36.7-4.6-12.5-.9-25.1-1.4-37.8-1.2-3.3.1-6.7.2-10 .4-3.1.3-6.6.6-9.5 1.7-.3.1-.1.5.2.4 2.9-.5 5.7-1.1 8.7-1.4 2.9-.3 5.8-.4 8.7-.4 6.1-.2 12.4-.1 18.6 0 12.4.3 24.8 1.1 37.1 2.6 6.8.8 13.6 1.7 20.4 2.9.5.1.7-.3.3-.4z"/></g></svg>